# Blender 4.2.15 LTS
# www.blender.org
mtllib ReduxMarine3MC_3.mtl
o MyMarine
v 7.731172 25.650005 -11.758539
v -12.148062 26.220005 -11.583418
v -3.033065 41.073181 -3.879377
v 4.550250 -37.050011 -11.102949
v 5.930131 6.270001 -7.734638
v -9.503086 -33.060009 -2.226832
v 5.625020 -37.050011 -3.536384
v 8.436690 -3.420001 -5.479608
v -3.909884 -6.270001 -1.073364
v -4.719728 6.840001 -6.118299
v 8.183488 -16.530006 -9.961201
v 6.360824 9.120001 -8.386334
v -9.856350 9.690001 -5.723377
v 6.206778 10.830003 -7.172975
v -3.599747 6.270001 -6.111602
v -2.749715 10.830002 -7.786550
v -10.309581 -33.630009 -7.831757
v -6.811000 29.070007 -9.670359
v -1.798326 10.260001 -12.794636
v -3.255002 10.830002 -19.222054
v 2.371913 27.360004 -16.191504
v 8.989984 -16.530005 -4.356277
v 7.272319 33.060009 -0.000000
v -0.869566 42.180008 -2.722425
v -3.091843 40.848980 -2.848208
v 4.752417 30.780006 -0.000000
v 5.083447 5.130001 -6.619680
v 7.283220 4.560001 -0.000000
v -6.010497 8.550001 -14.157583
v -7.403043 29.070007 -13.305285
v -9.498062 -40.470009 -3.066816
v 9.300119 -37.620007 -9.394511
v -9.459548 -40.470009 -9.506704
v -8.061247 -34.200008 -9.218336
v -7.276522 10.830003 0.000000
v -0.398381 29.640007 -12.806969
v 0.790637 35.340008 -4.977136
v 3.523934 27.360008 -12.561510
v 10.383261 -37.050011 -3.227923
v -8.098087 -34.200008 -3.058446
v 2.939270 -5.700001 -0.000000
v 9.514700 9.120002 -0.000000
v -4.429685 -2.850001 -7.796595
v -4.419639 -3.420002 -9.476564
v 2.750562 36.480007 -4.994402
v 6.510215 -0.000001 -11.091228
v 8.963191 5.130001 -0.000000
v -1.894660 0.569999 -10.301480
v 4.260209 6.840001 -9.424656
v 3.436968 1.710000 -12.229630
v 4.265231 0.569999 -10.264640
v 4.592095 2.849999 -18.451147
v -7.442506 9.120001 -17.785110
v 2.104257 12.540002 -14.789089
v -1.223549 10.260001 -11.119633
v 2.806648 -6.840002 -0.473187
v -1.547935 2.279999 -16.156971
v -6.563075 8.550001 -13.312684
v 5.056655 -17.100004 -2.139759
v 0.021769 -18.240004 -3.009886
v 0.964569 -6.270003 -17.019135
v 7.411720 -5.130002 -16.235897
v 6.827077 -5.130002 -19.030855
v -9.807022 35.340008 0.000000
v -7.945756 21.090004 -11.340427
v -6.678019 -0.570001 -6.410016
v -0.553292 -38.190006 -0.493278
v -2.248332 -5.528574 0.000000
v 8.983286 -40.470009 -3.236295
v 7.856607 -5.700001 -2.123016
v 11.194634 20.520004 -0.000000
v -0.784726 -18.240005 -8.614810
v 3.428595 -19.380005 -10.829653
v -2.442927 -38.190006 -12.264791
v -1.874565 -35.340008 -13.661418
v 4.886883 -1.140001 -16.773678
v 5.176740 -3.420002 -15.656187
v 1.529480 1.709999 -16.464092
v 0.392258 12.540002 -18.414150
v -0.435377 15.960003 -17.006805
v 3.708591 -40.470009 -10.827976
v -3.230337 28.500004 -16.422163
v -6.128076 10.830003 -4.726697
v 1.509747 13.110001 -18.704006
v -7.546471 -27.360008 -1.655122
v 2.290196 5.700001 -7.756407
v -8.396502 -0.000000 0.000000
v 5.454261 2.849999 -15.938643
v -1.899683 6.840001 -9.461494
v 3.433618 6.270001 -11.669640
v -1.344717 6.840001 -8.618162
v -1.272878 0.569999 -16.719416
v -2.132578 2.279999 -18.951929
v 0.382392 -3.990003 -19.534105
v 7.134196 -6.840003 -15.953440
v 6.864074 -5.700002 -14.831017
v -1.206284 28.500006 -9.159709
v 8.180140 -40.470009 -9.401209
v -1.042952 1.709999 -12.256422
v -1.046302 6.270000 -11.696432
v -1.456676 37.620007 -5.797374
v 6.633413 30.210007 -9.228770
v -4.925072 15.960003 -18.087299
v -11.204499 9.690001 0.000000
v 2.148654 9.120001 -9.749284
v 6.741650 -5.700001 -2.969699
v 3.936677 -40.470009 -2.146456
v -3.470862 14.250002 -11.939869
v -0.133190 14.820003 -14.489368
v 0.075353 -0.570001 -11.969728
v 0.345301 -0.000001 -10.288084
v 6.501843 0.569999 -9.691254
v 1.529479 20.520002 -16.464092
v 6.751696 2.850000 -4.649670
v 2.020248 6.840001 -9.438052
v 5.650136 3.420000 -7.736312
v 3.514069 25.650005 -13.681465
v -3.439376 41.460686 0.000000
v 1.512214 -6.840003 -18.424015
v 8.429993 -20.520004 -4.359626
v 0.000001 -35.340008 0.630051
v -1.793394 31.350006 -12.234657
v -7.975355 15.390001 -14.700298
v -4.758242 -33.630009 0.321589
v 1.261823 11.970001 -15.061680
v 7.399387 -6.270003 -17.635845
v -4.107302 11.400002 -20.614601
v 1.210026 1.139999 -20.941452
v 3.732395 2.279999 -20.683666
v 6.281896 0.569999 -17.345989
v 2.853534 10.830002 -8.313047
v 5.746583 -2.850001 -14.541163
v -13.446882 25.650005 0.000001
v -6.646204 -33.630009 -11.729919
v 7.124331 -3.990002 -17.073399
v 2.941757 -7.980003 -15.076477
v -7.824791 -5.130002 -1.936793
v 1.458584 3.420000 -9.161406
v 3.757060 3.990000 -17.883770
v 0.513114 38.190006 -4.694682
v -1.726799 37.620007 -4.674949
v -1.292611 -0.000001 -18.959330
v -2.459672 -33.060009 -9.464841
v -8.622912 -27.360008 -8.941691
v 8.683196 10.830003 -0.000000
v -5.126132 9.120001 -9.125176
v 4.904149 -2.850002 -14.813752
v -6.312685 9.120001 -16.675018
v -4.714704 2.850000 -6.958285
v 3.211881 -8.550003 -16.198900
v 6.230220 -31.350006 -11.092901
v 3.172417 3.990000 -20.678728
v -2.218191 -33.060009 -3.023282
v 2.391645 19.950003 -13.951590
v -4.478247 5.700001 0.000000
v -0.152922 -3.990002 -16.729280
v 7.306664 -31.350006 -3.806333
v 0.288368 -31.920010 -0.768250
v 4.776661 -19.380003 -2.141434
v -1.044626 -26.220005 -11.976424
v 0.920362 -35.910007 -12.804688
v 1.254424 2.849999 -15.901646
v -8.247944 21.660004 -13.857864
v -7.926025 31.920010 -9.100513
v 1.898261 34.200008 -6.386949
v -0.926294 33.060009 -9.162175
v -4.833811 35.340008 -7.727700
v -6.158216 6.840002 0.000000
v 5.697253 -2.850002 -20.140951
v 8.394742 29.640007 -0.000000
v 7.230389 31.350006 -5.033866
v -1.041278 -32.490005 -12.536415
v -2.186377 3.420000 -8.343189
v 6.564352 -2.280002 -17.068466
v 6.019173 1.139999 -15.383597
v 4.616760 0.569999 -15.651255
v 7.623497 -21.090004 -9.964551
v 3.710266 -17.670006 -11.107973
v -0.845619 42.180008 0.000000
v 0.370059 2.849999 -20.934052
v -3.366771 42.180008 0.000000
v -4.082637 21.090002 -17.814709
v 2.530003 -35.910007 -1.034849
v 5.282797 34.770008 -3.616656
v -7.400577 14.820003 -13.025294
v 6.019173 -2.850002 -15.383596
v -2.616096 19.950003 -10.267334
v -9.846485 33.630009 -4.603423
v 3.052750 32.490005 -2.476966
v 0.664847 -5.130002 -19.256582
v 5.982176 -3.420002 -19.583437
v -3.365717 42.180008 0.000000
v 7.274697 31.350006 -0.000000
v -1.405641 37.620007 0.000000
v 1.954491 34.200008 -0.000000
v -7.836310 -5.130001 0.000000
v 7.843910 -5.700001 -0.000000
v 7.731173 25.650005 11.758539
v -12.148060 26.220005 11.583420
v -3.033064 41.073181 3.879378
v 4.550251 -37.050011 11.102949
v 5.930132 6.270001 7.734637
v -9.503086 -33.060009 2.226833
v 5.625020 -37.050011 3.536384
v 0.021770 -18.240004 3.009886
v 8.436690 -3.420001 5.479607
v -3.909884 -6.270001 1.073364
v -4.719727 6.840001 6.118299
v 8.183488 -16.530006 9.961201
v 6.360825 9.120001 8.386334
v -9.856350 9.690001 5.723378
v 6.206779 10.830003 7.172974
v -3.599746 6.270001 6.111602
v -2.749715 10.830002 7.786550
v -10.309581 -33.630009 7.831758
v -6.810999 29.070007 9.670359
v -1.798325 10.260001 12.794636
v -3.255000 10.830002 19.222054
v 2.371914 27.360004 16.191504
v 8.989984 -16.530005 4.356276
v -0.869566 42.180008 2.722425
v -3.091843 40.848980 2.848209
v 5.083448 5.130001 6.619680
v -6.010496 8.550001 14.157583
v -7.403042 29.070007 13.305285
v -9.498062 -40.470009 3.066817
v 9.300119 -37.620007 9.394511
v -9.459548 -40.470009 9.506704
v -8.061247 -34.200008 9.218336
v -0.398380 29.640007 12.806969
v 0.790637 35.340008 4.977136
v 3.523935 27.360008 12.561510
v 10.383261 -37.050011 3.227922
v -8.098087 -34.200008 3.058446
v -4.429684 -2.850001 7.796595
v -4.419638 -3.420002 9.476564
v 2.750563 36.480007 4.994402
v 6.510216 -0.000001 11.091228
v -1.894659 0.569999 10.301480
v 4.260210 6.840001 9.424656
v 3.436969 1.710000 12.229630
v 4.265232 0.569999 10.264640
v 4.592097 2.849999 18.451147
v -7.442504 9.120001 17.785110
v 2.104259 12.540002 14.789089
v -1.223548 10.260001 11.119633
v 2.806648 -6.840002 0.473186
v -1.547934 2.279999 16.156971
v -6.563074 8.550001 13.312684
v 5.056655 -17.100004 2.139759
v 0.964570 -6.270003 17.019135
v 7.411721 -5.130002 16.235897
v 6.827079 -5.130002 19.030855
v -7.945755 21.090004 11.340427
v -6.678018 -0.570001 6.410017
v -0.553292 -38.190006 0.493278
v 8.983286 -40.470009 3.236295
v 7.856607 -5.700001 2.123015
v -0.784725 -18.240005 8.614810
v 3.428596 -19.380005 10.829653
v -2.442926 -38.190006 12.264791
v -1.874563 -35.340008 13.661418
v 4.886885 -1.140001 16.773678
v 5.176741 -3.420002 15.656187
v 1.529481 1.709999 16.464092
v 0.392259 12.540002 18.414150
v -0.435376 15.960003 17.006805
v 3.708591 -40.470009 10.827976
v -3.230335 28.500004 16.422163
v -6.128076 10.830003 4.726698
v 1.509749 13.110001 18.704006
v -7.546471 -27.360008 1.655123
v 2.290196 5.700001 7.756407
v 5.454262 2.849999 15.938643
v -1.899683 6.840001 9.461494
v 3.433619 6.270001 11.669640
v -1.344716 6.840001 8.618162
v -1.272877 0.569999 16.719416
v -2.132577 2.279999 18.951929
v 0.382394 -3.990003 19.534105
v 7.134197 -6.840003 15.953440
v 6.864075 -5.700002 14.831017
v -1.206283 28.500006 9.159709
v 8.180140 -40.470009 9.401209
v -1.042951 1.709999 12.256422
v -1.046301 6.270000 11.696432
v -1.456676 37.620007 5.797374
v 6.633414 30.210007 9.228770
v -4.925070 15.960003 18.087299
v 2.148654 9.120001 9.749284
v 6.741650 -5.700001 2.969698
v 3.936677 -40.470009 2.146456
v -3.470861 14.250002 11.939869
v -0.133189 14.820003 14.489368
v 0.075354 -0.570001 11.969728
v 0.345302 -0.000001 10.288084
v 6.501844 0.569999 9.691254
v 1.529481 20.520002 16.464092
v 6.751696 2.850000 4.649669
v 2.020249 6.840001 9.438052
v 5.650136 3.420000 7.736311
v 3.514070 25.650005 13.681465
v 1.512215 -6.840003 18.424015
v 8.429993 -20.520004 4.359625
v 0.000000 -35.340008 -0.630051
v -1.793393 31.350006 12.234657
v -7.975354 15.390001 14.700298
v -4.758242 -33.630009 -0.321589
v 1.261824 11.970001 15.061680
v 7.399389 -6.270003 17.635845
v -4.107300 11.400002 20.614601
v 1.210028 1.139999 20.941452
v 3.732397 2.279999 20.683666
v 6.281898 0.569999 17.345989
v 2.853535 10.830002 8.313047
v 5.746584 -2.850001 14.541163
v -6.646203 -33.630009 11.729919
v 7.124333 -3.990002 17.073399
v 2.941759 -7.980003 15.076477
v -7.824791 -5.130002 1.936794
v 1.458584 3.420000 9.161406
v 3.757061 3.990000 17.883770
v 0.513115 38.190006 4.694682
v -1.726799 37.620007 4.674949
v -1.292609 -0.000001 18.959330
v -2.459671 -33.060009 9.464841
v -8.622912 -27.360008 8.941691
v -5.126131 9.120001 9.125176
v 4.904150 -2.850002 14.813752
v -6.312683 9.120001 16.675018
v -4.714703 2.850000 6.958285
v 3.211883 -8.550003 16.198900
v 6.230221 -31.350006 11.092901
v 3.172419 3.990000 20.678728
v -2.218191 -33.060009 3.023282
v 2.391647 19.950003 13.951590
v -0.152920 -3.990002 16.729280
v 7.306664 -31.350006 3.806332
v 0.288368 -31.920010 0.768250
v 4.776661 -19.380003 2.141434
v -1.044626 -26.220005 11.976424
v 0.920363 -35.910007 12.804688
v 1.254426 2.849999 15.901646
v -8.247942 21.660004 13.857864
v -7.926024 31.920010 9.100513
v 1.898262 34.200008 6.386949
v -0.926294 33.060009 9.162175
v -4.833810 35.340008 7.727700
v 5.697255 -2.850002 20.140951
v 7.230389 31.350006 5.033865
v -1.041277 -32.490005 12.536415
v -2.186376 3.420000 8.343189
v 6.564353 -2.280002 17.068466
v 6.019174 1.139999 15.383597
v 4.616761 0.569999 15.651255
v 7.623498 -21.090004 9.964551
v 3.710267 -17.670006 11.107973
v 0.370061 2.849999 20.934052
v -4.082635 21.090002 17.814709
v 2.530003 -35.910007 1.034849
v 5.282797 34.770008 3.616655
v -7.400576 14.820003 13.025294
v 6.019174 -2.850002 15.383596
v -2.616095 19.950003 10.267334
v -9.846485 33.630009 4.603424
v 3.052750 32.490005 2.476966
v 0.664848 -5.130002 19.256582
v 5.982178 -3.420002 19.583437
v 2.385445 34.200008 -6.686978
v 12.382614 30.780006 -0.000001
v 10.708442 42.180008 -5.092559
v -2.325460 42.750011 -2.747716
v 10.212837 36.480007 -6.242506
v 14.022192 33.060009 -0.000001
v 1.931282 34.200008 -3.627804
v 15.349377 36.480007 -0.000001
v 9.568187 29.640007 -0.000000
v 3.265534 31.350006 -2.430235
v 7.585772 34.200008 -4.428524
v 9.933290 34.200008 -6.258381
v 6.235645 43.320011 -5.346544
v -1.048522 38.190006 -5.479717
v 13.946471 42.180008 -0.000001
v 13.904299 42.180008 -2.106575
v 15.270299 36.480007 -1.468105
v 8.719844 36.480007 -4.644578
v 11.235792 34.770008 -4.501712
v 12.443055 30.780006 -1.067745
v 1.492992 46.170010 -0.848182
v 10.765755 45.600010 -1.162990
v 11.874262 35.340008 -5.867712
v 10.565576 30.780006 -2.576612
v 6.404077 45.600010 -3.373822
v 3.208220 38.190006 -6.359806
v 14.152100 36.480007 -1.531601
v 8.904151 45.600010 -2.951406
v 13.593000 33.060009 -1.563349
v 2.290201 42.750011 -5.009680
v 6.092780 30.780006 -2.830595
v 10.699906 45.600010 -0.000000
v 10.908622 33.060009 -3.678937
v 6.493139 46.740005 -0.000000
v 3.281408 46.170010 -2.709786
v -2.231659 43.230240 0.000000
v 1.565929 46.170013 -0.000000
v -0.823943 38.463902 0.000000
v 3.389838 31.350006 -0.000000
v -2.220233 42.750011 0.000000
v 2.133221 34.200008 -0.000000
v 2.705566 34.487003 -0.000000
v 2.385445 34.200008 6.686978
v 10.708442 42.180008 5.092558
v -2.325459 42.750011 2.747716
v 10.212837 36.480007 6.242505
v 1.931282 34.200008 3.627804
v 3.265534 31.350006 2.430234
v 7.585772 34.200008 4.428524
v 9.933290 34.200008 6.258380
v 6.235645 43.320011 5.346543
v -1.048521 38.190006 5.479717
v 13.904299 42.180008 2.106574
v 15.270299 36.480007 1.468104
v 8.719844 36.480007 4.644578
v 11.235792 34.770008 4.501711
v 12.443055 30.780006 1.067744
v 1.492992 46.170010 0.848182
v 10.765755 45.600010 1.162989
v 11.874262 35.340008 5.867712
v 10.565576 30.780006 2.576611
v 6.404077 45.600010 3.373822
v 3.208221 38.190006 6.359806
v 14.152100 36.480007 1.531600
v 8.904151 45.600010 2.951406
v 13.593000 33.060009 1.563348
v 2.290201 42.750011 5.009680
v 6.092780 30.780006 2.830595
v 10.908622 33.060009 3.678936
v 3.281408 46.170010 2.709786
v 15.062191 36.476524 -0.000001
vn 0.7244 0.1587 -0.6709
vn -0.7135 0.1270 -0.6891
vn 0.1837 0.8843 -0.4292
vn 0.5057 -0.7478 -0.4303
vn 0.6140 0.5894 -0.5249
vn -0.8119 -0.3862 0.4377
vn 0.5848 -0.7252 0.3634
vn 0.9919 0.1170 0.0495
vn -0.4784 -0.7979 0.3667
vn -0.5510 0.7391 -0.3876
vn 0.7382 -0.0486 -0.6729
vn 0.5190 -0.7014 -0.4886
vn -0.6183 -0.7242 -0.3056
vn 0.7073 -0.1985 -0.6784
vn -0.6340 -0.3137 -0.7068
vn -0.3962 -0.1803 -0.9003
vn -0.8813 -0.4421 -0.1669
vn -0.6150 0.5011 0.6088
vn 0.1817 -0.0940 0.9789
vn -0.3388 0.1657 -0.9262
vn 0.6034 0.3747 -0.7039
vn 0.9145 -0.0405 0.4025
vn 0.5847 -0.8113 -0.0000
vn -0.3186 0.7787 -0.5405
vn -0.2991 0.7366 -0.6065
vn 0.7087 -0.1987 -0.6769
vn 0.9752 -0.2213 -0.0000
vn -0.7329 -0.3078 0.6067
vn -0.7682 0.5463 -0.3338
vn -0.6614 -0.5073 0.5524
vn 0.7488 0.3368 -0.5709
vn -0.6610 -0.5089 -0.5514
vn -0.5812 0.5944 -0.5557
vn -0.8876 -0.4607 -0.0000
vn 0.0355 0.4667 -0.8837
vn 0.0591 -0.1818 -0.9815
vn 0.9230 0.3181 0.2163
vn 0.7983 0.3677 0.4770
vn -0.5713 0.5803 0.5804
vn 0.3192 -0.9477 -0.0000
vn 0.7138 -0.7003 -0.0000
vn -0.8906 0.0544 -0.4516
vn -0.8647 0.1750 -0.4708
vn 0.1060 -0.3028 -0.9471
vn 0.5460 0.5148 -0.6610
vn 0.8443 0.5359 -0.0000
vn -0.6524 -0.6999 0.2905
vn 0.6482 0.5967 0.4731
vn 0.4624 -0.3487 -0.8152
vn 0.6489 -0.6999 0.2983
vn 0.8276 0.4577 -0.3248
vn -0.9610 0.1930 -0.1981
vn 0.5444 0.7182 0.4333
vn 0.0369 0.3218 0.9461
vn 0.2176 -0.3141 0.9241
vn -0.5016 -0.5712 0.6497
vn -0.7613 0.0931 0.6417
vn 0.2321 -0.0710 0.9701
vn -0.5998 0.1099 0.7925
vn -0.7513 -0.3475 0.5611
vn 0.7226 0.5114 0.4651
vn 0.6357 -0.2412 -0.7333
vn -0.8280 0.5608 -0.0000
vn -0.7365 -0.1110 0.6672
vn -0.8194 0.1174 -0.5610
vn -0.0906 -0.9617 0.2586
vn -0.1492 -0.9888 -0.0000
vn 0.5408 -0.6892 0.4822
vn 0.6691 -0.7137 -0.2072
vn 0.9998 0.0195 -0.0000
vn -0.8011 0.1952 -0.5658
vn -0.0853 0.0641 -0.9943
vn -0.1798 -0.9544 -0.2382
vn -0.0552 -0.0433 -0.9975
vn -0.6049 -0.5609 -0.5652
vn -0.2098 -0.9446 -0.2523
vn -0.0367 -0.2516 0.9671
vn 0.5990 0.4110 -0.6872
vn 0.6561 0.0795 -0.7505
vn 0.0686 -0.5989 -0.7979
vn -0.1536 0.5877 -0.7944
vn -0.8427 -0.3649 -0.3957
vn 0.3813 0.8271 -0.4129
vn -0.6305 0.4108 0.6585
vn 0.0795 -0.1760 -0.9812
vn -0.9966 0.0826 -0.0000
vn 0.5290 0.6603 0.5331
vn -0.6538 0.5967 0.4653
vn 0.4611 0.5487 -0.6974
vn -0.2464 0.7168 -0.6523
vn -0.6693 -0.3322 0.6646
vn -0.8057 -0.4088 -0.4286
vn -0.6022 -0.3656 -0.7097
vn 0.7070 -0.6665 0.2363
vn 0.3330 0.3934 0.8569
vn 0.2851 0.2957 0.9118
vn 0.4989 -0.7035 -0.5062
vn -0.4526 -0.3487 -0.8207
vn -0.4527 0.5487 -0.7029
vn 0.5257 0.6629 -0.5330
vn 0.6599 0.5829 -0.4741
vn -0.3586 0.1110 -0.9269
vn -0.7073 -0.7069 -0.0000
vn 0.0764 -0.7473 -0.6600
vn 0.6498 -0.6389 0.4119
vn 0.0455 -0.6388 0.7680
vn 0.1165 -0.2284 0.9666
vn 0.9008 -0.0586 0.4304
vn -0.2917 0.5152 -0.8059
vn -0.2977 0.6781 -0.6720
vn 0.6774 0.5896 -0.4400
vn 0.6728 -0.1095 -0.7317
vn 0.9632 0.0449 -0.2649
vn 0.1116 0.6955 -0.7098
vn 0.7155 0.1696 -0.6777
vn 0.1920 0.0979 -0.9765
vn -0.3890 0.9212 -0.0000
vn -0.4504 -0.6991 -0.5553
vn 0.8872 -0.1038 0.4496
vn 0.2380 -0.0426 0.9703
vn 0.1583 0.9840 0.0812
vn -0.9559 -0.0763 -0.2836
vn -0.2542 -0.0940 0.9626
vn 0.8682 0.2557 0.4253
vn 0.7954 -0.4766 -0.3744
vn -0.4430 0.5914 -0.6738
vn -0.2143 -0.1381 -0.9670
vn 0.5144 0.1802 -0.8384
vn 0.9658 0.2017 -0.1631
vn 0.0890 -0.1751 -0.9805
vn 0.3866 -0.5378 0.7492
vn -0.9919 0.1270 -0.0000
vn -0.5482 -0.1083 -0.8293
vn 0.7975 0.4238 0.4294
vn -0.3399 -0.3285 0.8812
vn -0.7218 -0.6665 -0.1862
vn 0.0216 0.1883 -0.9819
vn 0.8542 0.4996 0.1437
vn -0.0915 0.2251 -0.9700
vn -0.1170 0.3007 -0.9465
vn -0.8645 -0.2718 -0.4229
vn 0.0268 0.7848 -0.6192
vn -0.7930 0.4186 -0.4427
vn -0.2272 -0.7906 -0.5687
vn -0.6573 -0.4577 0.5987
vn -0.9290 -0.1517 -0.3374
vn -0.7183 0.2010 -0.6661
vn -0.1115 -0.9937 -0.0124
vn 0.7366 -0.0913 -0.6702
vn 0.5959 0.2751 -0.7544
vn 0.0396 0.7845 0.6188
vn 0.9192 -0.3043 0.2499
vn -0.6796 -0.3048 0.6673
vn 0.8842 -0.1300 0.4486
vn 0.2520 0.1842 0.9500
vn 0.2067 0.0164 0.9783
vn -0.1357 0.2220 -0.9656
vn 0.2588 -0.2074 -0.9434
vn 0.2066 -0.2697 0.9405
vn -0.9471 0.0838 -0.3097
vn -0.5124 0.5954 -0.6188
vn 0.4700 0.7972 -0.3788
vn 0.1331 0.6650 -0.7349
vn -0.1082 0.6106 -0.7845
vn -0.6374 0.7706 -0.0000
vn 0.5239 -0.1094 -0.8447
vn 0.9225 0.3861 -0.0000
vn 0.7901 0.5927 -0.1564
vn -0.0741 0.2077 -0.9754
vn -0.4283 0.1227 -0.8953
vn 0.7925 0.1182 0.5984
vn 0.6086 0.3377 0.7181
vn -0.4342 -0.0819 0.8971
vn 0.7377 -0.0710 -0.6713
vn -0.0926 -0.0829 -0.9922
vn -0.2206 -0.0677 -0.9730
vn 0.2210 0.9753 -0.0000
vn -0.2546 0.1053 -0.9613
vn 0.5021 -0.1640 0.8491
vn 0.3161 -0.5769 -0.7531
vn -0.7400 -0.2605 0.6201
vn 0.8153 -0.5685 -0.1102
vn 0.1882 -0.2574 0.9478
vn -0.8010 0.5301 -0.2783
vn 0.3502 -0.5917 -0.7261
vn -0.5606 -0.4882 -0.6689
vn 0.6374 -0.0777 -0.7666
vn 0.9130 0.4079 -0.0000
vn 0.6760 0.7369 -0.0000
vn 0.8260 0.5637 -0.0000
vn 0.5991 0.8007 -0.0000
vn -0.7507 -0.6606 -0.0000
vn 0.6748 -0.7380 -0.0000
vn 0.7244 0.1587 0.6709
vn -0.7135 0.1270 0.6891
vn 0.1837 0.8843 0.4292
vn 0.5057 -0.7478 0.4303
vn 0.6140 0.5894 0.5249
vn -0.8119 -0.3862 -0.4377
vn 0.5848 -0.7252 -0.3634
vn -0.5998 0.1099 -0.7925
vn 0.9919 0.1170 -0.0495
vn -0.4784 -0.7979 -0.3667
vn -0.5510 0.7391 0.3876
vn 0.7382 -0.0486 0.6729
vn 0.5190 -0.7014 0.4886
vn -0.6183 -0.7242 0.3056
vn 0.7073 -0.1985 0.6784
vn -0.6340 -0.3137 0.7068
vn -0.3962 -0.1803 0.9003
vn -0.8813 -0.4421 0.1669
vn -0.6150 0.5011 -0.6088
vn 0.1817 -0.0940 -0.9789
vn -0.3388 0.1657 0.9262
vn 0.6034 0.3747 0.7039
vn 0.9145 -0.0405 -0.4025
vn -0.3186 0.7787 0.5405
vn -0.2991 0.7366 0.6065
vn 0.7087 -0.1987 0.6769
vn -0.7329 -0.3078 -0.6067
vn -0.7682 0.5463 0.3338
vn -0.6614 -0.5073 -0.5524
vn 0.7488 0.3368 0.5709
vn -0.6610 -0.5089 0.5514
vn -0.5812 0.5944 0.5557
vn 0.0355 0.4667 0.8837
vn 0.0591 -0.1818 0.9815
vn 0.9230 0.3181 -0.2163
vn 0.7983 0.3677 -0.4770
vn -0.5713 0.5803 -0.5804
vn -0.8906 0.0544 0.4516
vn -0.8647 0.1750 0.4708
vn 0.1060 -0.3028 0.9471
vn 0.5460 0.5148 0.6610
vn -0.6524 -0.6999 -0.2905
vn 0.6482 0.5967 -0.4731
vn 0.4624 -0.3487 0.8152
vn 0.6489 -0.6999 -0.2983
vn 0.8276 0.4577 0.3248
vn -0.9610 0.1930 0.1981
vn 0.5444 0.7182 -0.4333
vn 0.0369 0.3218 -0.9461
vn 0.2176 -0.3141 -0.9241
vn -0.5016 -0.5712 -0.6497
vn -0.7613 0.0931 -0.6417
vn 0.2321 -0.0710 -0.9701
vn -0.7513 -0.3475 -0.5611
vn 0.7226 0.5114 -0.4651
vn 0.6357 -0.2412 0.7333
vn -0.7365 -0.1110 -0.6672
vn -0.8194 0.1174 0.5610
vn -0.0906 -0.9617 -0.2586
vn 0.5408 -0.6892 -0.4822
vn 0.6691 -0.7137 0.2072
vn -0.8011 0.1952 0.5658
vn -0.0853 0.0641 0.9943
vn -0.1798 -0.9544 0.2382
vn -0.0552 -0.0433 0.9975
vn -0.6049 -0.5609 0.5652
vn -0.2098 -0.9446 0.2523
vn -0.0367 -0.2516 -0.9671
vn 0.5990 0.4110 0.6872
vn 0.6561 0.0795 0.7505
vn 0.0686 -0.5989 0.7979
vn -0.1536 0.5877 0.7944
vn -0.8427 -0.3649 0.3957
vn 0.3813 0.8271 0.4129
vn -0.6305 0.4108 -0.6585
vn 0.0795 -0.1760 0.9812
vn 0.5290 0.6603 -0.5331
vn -0.6538 0.5967 -0.4653
vn 0.4611 0.5487 0.6974
vn -0.2464 0.7168 0.6523
vn -0.6693 -0.3322 -0.6646
vn -0.8057 -0.4088 0.4286
vn -0.6022 -0.3656 0.7097
vn 0.7070 -0.6665 -0.2363
vn 0.3330 0.3934 -0.8569
vn 0.2851 0.2957 -0.9118
vn 0.4989 -0.7035 0.5062
vn -0.4526 -0.3487 0.8207
vn -0.4527 0.5487 0.7029
vn 0.5257 0.6629 0.5330
vn 0.6599 0.5829 0.4741
vn -0.3586 0.1110 0.9269
vn 0.0764 -0.7473 0.6600
vn 0.6498 -0.6389 -0.4119
vn 0.0455 -0.6388 -0.7680
vn 0.1165 -0.2284 -0.9666
vn 0.9008 -0.0586 -0.4304
vn -0.2917 0.5152 0.8059
vn -0.2977 0.6781 0.6720
vn 0.6774 0.5896 0.4400
vn 0.6728 -0.1095 0.7317
vn 0.9632 0.0449 0.2649
vn 0.1116 0.6955 0.7098
vn 0.7155 0.1696 0.6777
vn 0.1920 0.0979 0.9765
vn -0.4504 -0.6991 0.5553
vn 0.8872 -0.1038 -0.4496
vn 0.2380 -0.0426 -0.9703
vn 0.1583 0.9840 -0.0812
vn -0.9559 -0.0763 0.2836
vn -0.2542 -0.0940 -0.9626
vn 0.8682 0.2557 -0.4253
vn 0.7954 -0.4766 0.3744
vn -0.4430 0.5914 0.6738
vn -0.2143 -0.1381 0.9670
vn 0.5144 0.1802 0.8384
vn 0.9658 0.2017 0.1631
vn 0.0890 -0.1751 0.9805
vn 0.3866 -0.5378 -0.7492
vn -0.5482 -0.1083 0.8293
vn 0.7975 0.4238 -0.4294
vn -0.3399 -0.3285 -0.8812
vn -0.7218 -0.6665 0.1862
vn 0.0216 0.1883 0.9819
vn 0.8542 0.4996 -0.1437
vn -0.0915 0.2251 0.9700
vn -0.1170 0.3007 0.9465
vn -0.8645 -0.2718 0.4229
vn 0.0268 0.7848 0.6192
vn -0.7930 0.4186 0.4427
vn -0.2272 -0.7906 0.5687
vn -0.6573 -0.4577 -0.5987
vn -0.9290 -0.1517 0.3374
vn -0.7183 0.2010 0.6661
vn -0.1115 -0.9937 0.0124
vn 0.7366 -0.0913 0.6702
vn 0.5959 0.2751 0.7544
vn 0.0396 0.7845 -0.6188
vn 0.9192 -0.3043 -0.2499
vn -0.6796 -0.3048 -0.6673
vn 0.8842 -0.1300 -0.4486
vn 0.2520 0.1842 -0.9500
vn 0.2067 0.0164 -0.9783
vn -0.1357 0.2220 0.9656
vn 0.2588 -0.2074 0.9434
vn 0.2066 -0.2697 -0.9405
vn -0.9471 0.0838 0.3097
vn -0.5124 0.5954 0.6188
vn 0.4700 0.7972 0.3788
vn 0.1331 0.6650 0.7349
vn -0.1082 0.6106 0.7845
vn 0.5239 -0.1094 0.8447
vn 0.7901 0.5927 0.1564
vn -0.0741 0.2077 0.9754
vn -0.4283 0.1227 0.8953
vn 0.7925 0.1182 -0.5984
vn 0.6086 0.3377 -0.7181
vn -0.4342 -0.0819 -0.8971
vn 0.7377 -0.0710 0.6713
vn -0.0926 -0.0829 0.9922
vn -0.2206 -0.0677 0.9730
vn -0.2546 0.1053 0.9613
vn 0.5021 -0.1640 -0.8491
vn 0.3161 -0.5769 0.7531
vn -0.7400 -0.2605 -0.6201
vn 0.8153 -0.5685 0.1102
vn 0.1882 -0.2574 -0.9478
vn -0.8010 0.5301 0.2783
vn 0.3502 -0.5917 0.7261
vn -0.5606 -0.4882 0.6689
vn 0.6374 -0.0777 0.7666
vn -0.3604 -0.6628 -0.6564
vn 0.6055 -0.7958 -0.0000
vn 0.4146 0.3861 -0.8240
vn -0.8660 0.3068 -0.3949
vn 0.1776 -0.2221 -0.9587
vn 0.9259 -0.3779 -0.0000
vn -0.8713 0.2240 -0.4366
vn 0.7965 -0.6047 -0.0000
vn 0.0685 -0.9976 -0.0000
vn -0.5616 -0.7185 -0.4103
vn 0.1305 -0.8166 -0.5623
vn 0.7471 -0.5931 -0.3001
vn 0.0224 0.4389 -0.8983
vn -0.7792 -0.1983 -0.5947
vn 0.8814 0.4724 -0.0000
vn 0.8222 0.4378 -0.3637
vn 0.8185 -0.5290 -0.2241
vn 0.4832 -0.8398 -0.2475
vn 0.2245 -0.6607 -0.7163
vn 0.5978 -0.7130 -0.3664
vn -0.3929 0.8878 -0.2397
vn 0.5109 0.8298 -0.2247
vn 0.3251 -0.5532 -0.7670
vn 0.2704 -0.7131 -0.6468
vn 0.0536 0.7926 -0.6075
vn -0.1014 0.1753 -0.9793
vn 0.5195 -0.8535 -0.0402
vn 0.2684 0.8061 -0.5274
vn 0.7891 -0.3584 -0.4989
vn -0.2561 0.4676 -0.8461
vn -0.1317 -0.7751 -0.6180
vn 0.5090 0.8608 -0.0000
vn 0.3530 -0.3626 -0.8625
vn 0.0811 0.9967 -0.0000
vn -0.1732 0.8447 -0.5064
vn -0.8868 0.4621 -0.0000
vn -0.3745 0.9272 -0.0000
vn -0.8710 -0.4913 -0.0000
vn -0.6451 -0.7641 -0.0000
vn -0.9862 -0.1655 -0.0000
vn -0.9071 0.4208 -0.0000
vn -0.9712 0.2381 -0.0000
vn -0.3604 -0.6628 0.6564
vn 0.4146 0.3861 0.8240
vn -0.8660 0.3068 0.3949
vn 0.1776 -0.2221 0.9587
vn -0.8713 0.2240 0.4366
vn -0.5616 -0.7185 0.4103
vn 0.1305 -0.8166 0.5623
vn 0.7471 -0.5931 0.3001
vn 0.0224 0.4389 0.8983
vn -0.7792 -0.1983 0.5947
vn 0.8222 0.4378 0.3637
vn 0.8185 -0.5290 0.2241
vn 0.4832 -0.8398 0.2475
vn 0.2245 -0.6607 0.7163
vn 0.5978 -0.7130 0.3664
vn -0.3929 0.8878 0.2397
vn 0.5109 0.8298 0.2247
vn 0.3251 -0.5532 0.7670
vn 0.2704 -0.7131 0.6468
vn 0.0536 0.7926 0.6075
vn -0.1014 0.1753 0.9793
vn 0.5195 -0.8535 0.0402
vn 0.2684 0.8061 0.5274
vn 0.7891 -0.3584 0.4989
vn -0.2561 0.4676 0.8461
vn -0.1317 -0.7751 0.6180
vn 0.3530 -0.3626 0.8625
vn -0.1732 0.8447 0.5064
vn 0.4710 -0.8821 -0.0000
vt 0.773438 0.472656
vt 0.777344 0.523438
vt 0.800781 0.496094
vt 0.804688 0.468750
vt 0.589844 0.140625
vt 0.546875 0.152344
vt 0.519531 0.058594
vt 0.554688 0.054688
vt 0.734375 0.867188
vt 0.734375 0.792969
vt 0.773438 0.792969
vt 0.773438 0.867188
vt 0.527344 0.261719
vt 0.578125 0.253906
vt 0.550781 0.152344
vt 0.507812 0.160156
vt 0.472656 0.324219
vt 0.238281 0.324219
vt 0.324219 0.468750
vt 0.445312 0.441406
vt 0.996094 0.324219
vt 0.945312 0.324219
vt 0.945312 0.261719
vt 0.996094 0.261719
vt 0.726562 0.953125
vt 0.714844 0.992188
vt 0.660156 1.000000
vt 0.652344 0.949219
vt 0.046875 0.808594
vt 0.132812 0.746094
vt 0.187500 0.859375
vt 0.093750 0.886719
vt 0.171875 0.636719
vt 0.171875 0.710938
vt 0.195312 0.738281
vt 0.195312 0.613281
vt 0.769531 0.472656
vt 0.636719 0.484375
vt 0.636719 0.421875
vt 0.765625 0.429688
vt 0.773438 0.957031
vt 0.964844 0.875000
vt 0.988281 0.996094
vt 0.875000 0.343750
vt 0.804688 0.339844
vt 0.804688 0.382812
vt 0.875000 0.378906
vt 0.617188 0.906250
vt 0.589844 0.816406
vt 0.621094 0.816406
vt 0.648438 0.906250
vt 0.621094 0.226562
vt 0.578125 0.250000
vt 0.238281 0.613281
vt 0.238281 0.097656
vt 0.343750 0.132812
vt 0.390625 0.535156
vt 0.759766 0.718750
vt 0.705736 0.706466
vt 0.705736 0.679688
vt 0.472656 0.062500
vt 0.437500 0.062500
vt 0.457031 0.160156
vt 0.847656 0.464844
vt 0.917969 0.437500
vt 0.816406 0.425781
vt 0.769531 0.378906
vt 0.652344 0.351562
vt 0.636719 0.425781
vt 0.773438 0.429688
vt 0.882812 0.539062
vt 0.828125 0.507812
vt 0.824219 0.527344
vt 0.875000 0.554688
vt 0.966797 0.941406
vt 0.908204 0.937500
vt 0.896485 0.843750
vt 0.970704 0.859375
vt 0.773438 0.339844
vt 0.539062 0.386719
vt 0.476562 0.425781
vt 0.476562 0.265625
vt 0.605469 1.000000
vt 0.632812 1.000000
vt 0.539062 0.398438
vt 0.542969 0.460938
vt 0.660156 0.324219
vt 0.613281 0.355469
vt 0.210938 0.136719
vt 0.234375 0.214844
vt 0.304688 0.230469
vt 0.802735 0.765625
vt 0.830078 0.929688
vt 0.308594 0.972656
vt 0.308594 0.902344
vt 0.347656 0.906250
vt 0.347656 0.972656
vt 0.960938 0.257812
vt 0.996094 0.105469
vt 0.945312 0.191406
vt 0.945312 0.058594
vt 0.941406 0.105469
vt 0.902344 0.109375
vt 0.937500 0.324219
vt 0.914062 0.261719
vt 0.859375 0.585938
vt 0.378906 0.148438
vt 0.363281 0.078125
vt 0.289062 0.058594
vt 0.953125 0.003906
vt 0.863281 0.253906
vt 0.761719 0.550781
vt 0.783896 0.554688
vt 0.755860 0.761719
vt 0.702019 0.609376
vt 0.761719 0.621095
vt 0.722964 0.585938
vt 0.694331 0.585938
vt 0.554688 0.328125
vt 0.625000 0.328125
vt 0.605469 0.378906
vt 0.507812 0.414062
vt 0.804688 0.429688
vt 0.535156 0.386719
vt 0.605469 0.351562
vt 0.890625 0.468750
vt 0.651706 0.718750
vt 0.705736 0.761719
vt 0.655612 0.761719
vt 0.710938 0.687500
vt 0.867188 0.628906
vt 0.890625 0.757812
vt 0.722656 0.777344
vt 0.617188 0.449219
vt 0.714844 0.500000
vt 0.667969 0.539062
vt 0.593750 0.484375
vt 0.671875 0.695312
vt 0.683594 0.781250
vt 0.476562 0.816406
vt 0.398438 0.722656
vt 0.705736 0.972656
vt 0.316402 0.406250
vt 0.417969 0.437500
vt 0.453125 0.468750
vt 0.503906 0.164062
vt 0.783281 0.585938
vt 0.449219 0.496094
vt 0.316402 0.496094
vt 0.316402 0.437500
vt 0.912110 0.988281
vt 0.437500 0.535156
vt 0.316402 0.533136
vt 0.671875 0.343750
vt 0.699219 0.339844
vt 0.746094 0.375000
vt 0.625000 0.386719
vt 0.687500 0.363281
vt 0.660156 0.386719
vt 0.601562 0.523438
vt 0.628906 0.402344
vt 0.644531 0.414062
vt 0.769531 0.355469
vt 0.738281 0.332031
vt 0.316402 0.230469
vt 0.316402 0.007812
vt 0.492188 0.007812
vt 0.933594 0.390625
vt 0.929688 0.328125
vt 0.859375 0.359375
vt 0.783896 0.617188
vt 0.683594 0.093750
vt 0.851562 0.003906
vt 0.683594 0.027344
vt 0.966797 0.992188
vt 0.882812 0.324219
vt 0.609375 0.351562
vt 0.085938 0.613281
vt 0.085938 0.738281
vt 0.417969 0.101562
vt 0.375000 0.062500
vt 0.339844 0.082031
vt 0.390625 0.132812
vt 0.414062 0.628906
vt 0.414062 0.562500
vt 0.464844 0.542969
vt 0.328125 0.738281
vt 0.304688 0.609375
vt 0.199219 0.628906
vt 0.226562 0.765625
vt 0.773438 0.343750
vt 0.675781 0.292969
vt 0.414062 0.820312
vt 0.500000 0.832031
vt 0.519531 0.718750
vt 0.144531 0.996094
vt 0.355469 0.156250
vt 0.313795 0.104824
vt 0.284232 0.124878
vt 0.333160 0.176328
vt 0.109375 0.710938
vt 0.109375 0.636719
vt 0.976562 0.250000
vt 0.984375 0.132812
vt 0.703125 0.035156
vt 0.621094 0.109375
vt 0.316406 0.191406
vt 0.265625 0.136719
vt 0.683594 0.171875
vt 0.050781 0.941406
vt 0.238281 0.500000
vt 0.238281 0.605469
vt 0.314574 0.592195
vt 0.640625 0.488281
vt 0.238281 0.007812
vt 0.359375 0.003906
vt 0.546875 0.585938
vt 0.546875 0.515625
vt 0.480469 0.515625
vt 0.480469 0.585938
vt 0.957031 0.464844
vt 0.929688 0.468750
vt 0.929688 0.492188
vt 0.972656 0.484375
vt 0.395022 0.573329
vt 0.316402 0.582031
vt 0.945312 0.378906
vt 0.914062 0.375000
vt 0.996094 0.585938
vt 0.996094 0.449219
vt 0.968750 0.605469
vt 0.996094 0.738281
vt 0.976562 0.437500
vt 0.992188 0.437500
vt 0.960938 0.347656
vt 0.679688 0.136719
vt 0.609375 0.136719
vt 0.609375 0.007812
vt 0.679688 0.019531
vt 0.984375 0.375000
vt 0.984375 0.328125
vt 0.917969 0.343750
vt 0.539062 0.003906
vt 0.429688 0.003906
vt 0.597656 0.562500
vt 0.535156 0.562500
vt 0.539062 0.460938
vt 0.601562 0.460938
vt 0.824219 0.324219
vt 0.824219 0.261719
vt 0.441406 0.496094
vt 0.531250 0.484375
vt 0.449219 0.515625
vt 0.796875 0.523438
vt 0.472656 0.593750
vt 0.488281 0.679688
vt 0.527344 0.671875
vt 0.511719 0.585938
vt 0.628906 0.371094
vt 0.878906 0.550781
vt 0.875000 0.550781
vt 0.886719 0.535156
vt 0.875000 0.507812
vt 0.886719 0.496094
vt 0.734375 0.484375
vt 0.890625 0.375000
vt 0.714844 0.554688
vt 0.796875 0.644531
vt 0.890625 0.523438
vt 0.789062 0.421875
vt 0.347656 0.824219
vt 0.902344 0.464844
vt 0.808594 0.394531
vt 0.953125 0.464844
vt 0.500000 0.515625
vt 0.968750 0.796875
vt 0.886719 0.539062
vt 0.632812 0.507812
vt 0.750000 0.257812
vt 0.683594 0.257812
vt 0.683594 0.207031
vt 0.750000 0.207031
vt 0.351562 0.824219
vt 0.406250 0.523438
vt 0.484375 0.496094
vt 0.593750 0.410156
vt 0.648438 0.550781
vt 0.679688 0.257812
vt 0.625000 0.257812
vt 0.718750 0.796875
vt 0.656250 0.796875
vt 0.574219 0.007812
vt 0.996094 0.753906
vt 0.402344 0.250000
vt 0.824219 0.011719
vt 0.917969 0.042969
vt 0.390625 0.753906
vt 0.394531 0.722656
vt 0.414062 0.574219
vt 0.804688 0.613281
vt 0.734375 0.957031
vt 0.035156 0.746094
vt 0.042969 0.996094
vt 0.000000 0.894531
vt 0.050781 0.894531
vt 0.308594 0.824219
vt 0.003906 0.324219
vt 0.031250 0.441406
vt 0.152343 0.468750
vt 0.652344 0.324219
vt 0.652344 0.261719
vt 0.703126 0.261719
vt 0.703126 0.324219
vt 0.085937 0.535156
vt 0.132812 0.132812
vt 0.847656 0.707032
vt 0.816406 0.746095
vt 0.917969 0.734376
vt 0.444675 0.941406
vt 0.440768 0.859375
vt 0.514987 0.843750
vt 0.503268 0.937500
vt 0.608737 0.765625
vt 0.581394 0.929688
vt 0.710938 0.324219
vt 0.734376 0.261719
vt 0.078116 0.328125
vt 0.124992 0.414062
vt 0.027335 0.378906
vt 0.007804 0.328125
vt 0.214835 0.437500
vt 0.179679 0.468750
vt 0.183585 0.496094
vt 0.499362 0.988281
vt 0.195304 0.535156
vt 0.140616 0.007812
vt 0.444675 0.992188
vt 0.765626 0.324219
vt 0.867076 0.622275
vt 0.968639 0.594931
vt 0.995982 0.731650
vt 0.890513 0.751181
vt 0.313795 0.104824
vt 0.859375 0.812501
vt 0.933594 0.781251
vt 0.161988 0.592195
vt 0.117187 0.003906
vt 0.237782 0.573329
vt 0.996094 0.722657
vt 0.929688 0.843751
vt 0.984375 0.843751
vt 0.984375 0.796876
vt 0.191398 0.496094
vt 0.183585 0.515625
vt 0.101554 0.484375
vt 0.722545 0.766806
vt 0.683482 0.774618
vt 0.667857 0.688681
vt 0.706920 0.680868
vt 0.480357 0.805868
vt 0.398326 0.716025
vt 0.058585 0.007812
vt 0.074218 0.250000
vt 0.058593 0.437500
vt 0.070312 0.523438
vt 0.314574 0.592195
vt 0.046874 0.003906
vt 0.390513 0.747275
vt 0.411172 0.789062
vt 0.368203 0.996094
vt 0.368203 0.867188
vt 0.364297 0.773438
vt 0.231484 0.746094
vt 0.231484 0.734375
vt 0.290078 0.714844
vt 0.243203 0.843750
vt 0.227578 0.894531
vt 0.205045 0.894531
vt 0.205045 0.843750
vt 0.093750 0.507812
vt 0.117188 0.550781
vt 0.000000 0.625000
vt 0.000000 0.550781
vt 0.039062 0.960938
vt 0.015625 0.968750
vt 0.000000 0.898438
vt 0.023438 0.890625
vt 0.261631 0.894531
vt 0.280982 0.914062
vt 0.205045 0.925781
vt 0.301797 0.843750
vt 0.313516 0.722656
vt 0.321328 0.742188
vt 0.290078 0.628906
vt 0.258828 0.644531
vt 0.205045 0.609375
vt 0.227578 0.644531
vt 0.205045 0.644531
vt 0.283731 0.944913
vt 0.227578 0.960938
vt 0.411172 0.714844
vt 0.344766 0.851562
vt 0.278360 0.585938
vt 0.235391 0.679688
vt 0.205045 0.679688
vt 0.205045 0.743331
vt 0.278360 0.679688
vt 0.046875 1.000000
vt 0.023438 1.000000
vt 0.333047 0.664062
vt 0.317422 0.714844
vt 0.376016 0.621094
vt 0.205045 0.746094
vt 0.347656 0.367188
vt 0.367188 0.304688
vt 0.237380 0.304688
vt 0.242543 0.367188
vt 0.000000 0.660156
vt 0.003906 0.695312
vt 0.039062 0.687500
vt 0.035156 0.656250
vt 0.000000 0.472656
vt 0.058594 0.437500
vt 0.308594 0.304688
vt 0.237416 0.304688
vt 0.205045 0.960938
vt 0.205045 0.996094
vt 0.242251 0.433594
vt 0.296875 0.433594
vt 0.240033 0.257812
vt 0.289062 0.257812
vt 0.205045 0.585938
vt 0.244710 0.443466
vt -0.001082 0.789062
vt 0.045793 0.773438
vt 0.041887 0.867188
vt 0.041887 0.996094
vt 0.178606 0.746094
vt 0.120012 0.714844
vt 0.178606 0.734375
vt 0.166887 0.843750
vt 0.182512 0.894531
vt 0.526107 0.675382
vt 0.625064 0.646350
vt 0.635743 0.572903
vt 0.509096 0.629488
vt 0.148458 0.894531
vt 0.129108 0.914062
vt 0.108293 0.843750
vt 0.088762 0.742188
vt 0.096574 0.722656
vt 0.120012 0.628906
vt 0.151262 0.644531
vt 0.182512 0.644531
vt 0.126358 0.944913
vt 0.182512 0.960938
vt -0.001082 0.714844
vt 0.065324 0.851562
vt 0.131730 0.585938
vt 0.174699 0.679688
vt 0.131730 0.679688
vt 0.092668 0.714844
vt 0.077043 0.664062
vt 0.034074 0.621094
vt 0.613823 0.723662
vt 0.548934 0.746330
vt 0.702019 0.562500
s 1
usemtl Jmarine7.001
f 131/21/130 14/22/14 27/23/26 86/24/85
f 106/58/105 41/59/40 56/60/55
f 66/64/65 149/65/147 43/66/42
f 138/75/137 116/76/115 112/77/111 111/78/110
f 17/89/17 74/90/73 4/91/4
f 8/92/8 112/77/111 116/76/115 114/93/113
f 6/98/6 67/99/66 124/100/123
f 67/99/66 183/101/179 121/102/120
f 158/103/155 124/100/123 121/102/120
f 121/102/120 183/101/179 158/103/155
f 121/102/120 124/100/123 67/99/66
f 16/104/16 131/21/130 86/24/85 15/105/15
f 87/106/86 149/65/147 66/64/65
f 7/107/7 67/108/66 6/109/6
f 183/101/179 67/99/66 7/110/7
f 124/100/123 158/103/155 85/111/84
f 124/100/123 85/111/84 6/98/6
f 43/66/42 9/112/9 137/113/136
f 8/92/8 70/114/69 106/58/105
f 247/115/243 207/116/203 68/117/67 41/118/40
f 1/119/1 117/120/116 36/121/35 102/122/101
f 291/127/287 41/59/40 197/128/193 258/129/254
f 135/134/134 61/135/60 136/136/135 62/137/61
f 66/64/65 43/66/42 137/113/136 87/106/86
f 70/114/69 114/93/113 47/142/46 197/128/193
f 170/143/167 102/122/101 171/144/168
f 165/145/162 171/144/168 102/122/101
f 114/93/113 70/114/69 8/92/8
f 137/113/136 9/112/9 68/117/67 196/147/192
f 171/144/168 165/148/162 195/149/191 193/150/189
f 114/93/113 116/76/115 5/151/5
f 165/148/162 101/152/100 194/153/190 195/149/191
f 175/154/172 88/155/87 78/156/77
f 147/157/145 176/158/173 76/159/75
f 136/136/135 96/160/95 62/137/61
f 76/159/75 77/161/76 147/157/145
f 76/159/75 176/158/173 78/156/77
f 78/156/77 174/162/171 76/159/75
f 78/156/77 176/158/173 175/154/172
f 162/163/159 88/155/87 139/164/138
f 78/156/77 88/155/87 162/163/159
f 71/165/70 42/166/41 12/167/12 1/119/1
f 5/151/5 47/142/46 114/93/113
f 173/168/170 138/169/137 111/170/110
f 320/171/316 196/147/192 68/117/67 207/116/203
f 159/172/156 158/103/155 157/173/154 120/174/119
f 6/109/6 17/89/17 4/91/4 7/107/7
f 116/76/115 138/75/137 115/175/114 5/151/5
f 15/105/15 83/176/82 16/104/16
f 45/180/44 37/181/36 141/182/140 140/183/139
f 107/184/106 69/185/68 39/186/38
f 32/186/31 98/185/97 81/184/80
f 81/184/80 33/193/32 34/194/33
f 143/195/142 32/186/31 81/184/80
f 107/184/106 39/186/38 153/195/151
f 34/194/33 143/195/142 81/184/80
f 24/197/24 25/198/25 118/199/117 179/200/117
f 184/183/180 23/207/23 26/208/23 189/182/185
f 85/111/84 158/103/155 159/172/156 60/209/59
f 111/170/110 43/66/42 149/65/147 173/168/170
f 34/217/33 33/218/32 31/219/30 40/220/39
f 101/152/100 3/225/3 181/226/177 192/226/188 194/153/190
f 87/106/86 168/229/165 10/230/10 149/65/147
f 45/180/44 184/183/180 189/182/185 37/181/36
f 143/236/142 153/237/151 39/238/38 32/239/31
f 138/169/137 173/168/170 91/240/90 115/241/114
f 173/168/170 149/65/147 10/230/10 91/240/90
f 14/22/14 145/249/27 28/250/27 27/23/26
f 101/251/100 165/145/162 166/252/163 167/253/164
f 176/158/173 147/157/145 132/259/131 175/154/172
f 61/135/60 135/134/134 174/162/171 156/265/153
f 36/121/35 166/252/163 165/145/162 102/122/101
f 156/265/153 174/162/171 78/156/77 92/270/91
f 57/273/56 92/270/91 78/156/77 162/163/159
f 140/183/139 141/182/140 25/198/25 24/197/24
f 32/279/31 39/280/38 69/281/68 98/282/97
f 157/173/154 158/103/155 183/101/179 7/110/7
f 71/165/70 1/119/1 102/122/101 170/143/167
f 35/249/34 83/176/82 15/105/15 155/250/34
f 153/237/151 143/236/142 34/288/33 40/289/39
f 117/120/116 1/119/1 12/167/12 105/292/104
f 107/184/106 153/195/151 40/194/39 31/193/30
f 193/150/189 170/143/167 171/144/168
f 196/147/192 87/106/86 137/113/136
f 315/310/311 273/311/269 223/312/219 212/313/208
f 291/127/287 247/60/243 41/59/40
f 255/316/251 235/317/231 331/318/327
f 321/319/317 296/320/292 297/321/293 301/322/297
f 215/89/211 201/91/197 261/90/257
f 206/323/202 299/324/295 301/322/297 297/321/293
f 203/98/199 308/100/304 256/99/252
f 256/99/252 305/102/301 360/101/356
f 339/103/335 305/102/301 308/100/304
f 305/102/301 339/103/335 360/101/356
f 305/102/301 256/99/252 308/100/304
f 214/325/210 213/326/209 273/311/269 315/310/311
f 87/106/86 255/316/251 331/318/327
f 204/107/200 203/109/199 256/108/252
f 360/101/356 204/110/200 256/99/252
f 308/100/304 272/111/268 339/103/335
f 308/100/304 203/98/199 272/111/268
f 235/317/231 320/171/316 207/116/203
f 206/323/202 291/127/287 258/129/254
f 198/327/194 288/328/284 230/329/226 302/330/298
f 318/134/314 252/137/248 319/136/315 251/135/247
f 255/316/251 87/106/86 320/171/316 235/317/231
f 258/129/254 197/128/193 47/142/46 299/324/295
f 170/143/167 350/331/346 288/328/284
f 346/332/342 288/328/284 350/331/346
f 299/324/295 206/323/202 258/129/254
f 350/331/346 193/150/189 195/149/191 346/333/342
f 299/324/295 202/334/198 301/322/297
f 346/333/342 195/149/191 194/153/190 287/335/283
f 354/154/350 265/156/261 274/155/270
f 329/157/325 263/159/259 355/158/351
f 319/136/315 252/137/248 282/160/278
f 263/159/259 329/157/325 264/161/260
f 263/159/259 265/156/261 355/158/351
f 265/156/261 263/159/259 353/162/349
f 265/156/261 354/154/350 355/158/351
f 343/163/339 322/164/318 274/155/270
f 265/156/261 343/163/339 274/155/270
f 71/165/70 198/327/194 210/336/206 42/166/41
f 202/334/198 299/324/295 47/142/46
f 352/168/348 296/170/292 321/169/317
f 340/172/336 304/174/300 338/173/334 339/103/335
f 203/109/199 204/107/200 201/91/197 215/89/211
f 301/322/297 202/334/198 300/337/296 321/319/317
f 213/326/209 214/325/210 270/338/266
f 237/180/233 323/183/319 324/182/320 231/181/227
f 292/184/288 233/186/229 257/185/253
f 227/186/223 268/184/264 284/185/280
f 268/184/264 229/194/225 228/193/224
f 326/195/322 268/184/264 227/186/223
f 292/184/288 335/195/331 233/186/229
f 229/194/225 268/184/264 326/195/322
f 221/197/217 179/200/117 118/199/117 222/343/218
f 361/183/357 366/182/362 26/208/23 23/207/23
f 272/111/268 205/209/201 340/172/336 339/103/335
f 296/344/292 352/345/348 331/318/327 235/317/231
f 229/217/225 234/220/230 226/219/222 228/218/224
f 287/335/283 194/153/190 192/226/188 181/226/177 200/348/196
f 87/106/86 331/318/327 208/349/204 168/229/165
f 237/180/233 231/181/227 366/182/362 361/183/357
f 326/236/322 227/239/223 233/238/229 335/237/331
f 321/350/317 300/351/296 277/352/273 352/345/348
f 352/345/348 277/352/273 208/349/204 331/318/327
f 212/313/208 223/312/219 28/250/27 145/249/27
f 287/353/283 348/354/344 347/355/343 346/332/342
f 355/158/351 354/154/350 316/259/312 329/157/325
f 251/135/247 337/265/333 353/162/349 318/134/314
f 230/329/226 288/328/284 346/332/342 347/355/343
f 337/265/333 278/270/274 265/156/261 353/162/349
f 248/273/244 343/163/339 265/156/261 278/270/274
f 323/183/319 221/197/217 222/343/218 324/182/320
f 227/279/223 284/282/280 257/281/253 233/280/229
f 338/173/334 204/110/200 360/101/356 339/103/335
f 71/165/70 170/143/167 288/328/284 198/327/194
f 35/249/34 155/250/34 213/326/209 270/338/266
f 335/237/331 234/289/230 229/288/225 326/236/322
f 302/330/298 290/362/286 210/336/206 198/327/194
f 292/184/288 226/193/222 234/194/230 335/195/331
f 193/150/189 350/331/346 170/143/167
f 196/147/192 320/171/316 87/106/86
f 382/369/378 372/370/368 398/371/394 394/372/390
f 385/373/381 395/374/391 387/375/383
f 384/376/380 390/377/386 400/378/396 383/379/379
f 373/380/369 380/381/376 369/382/365 394/383/390
f 380/384/376 379/385/375 375/386/371
f 375/386/371 369/387/365 380/384/376
f 396/388/392 393/389/389 402/390/398
f 371/391/367 391/392/387 373/393/369
f 399/394/395 392/395/388 377/396/373
f 390/377/386 396/388/392 402/390/398
f 387/375/383 391/392/387 385/373/381
f 388/397/384 370/398/366 377/396/373 392/395/388
f 403/399/399 389/400/385 402/390/398
f 369/401/365 382/369/378 394/372/390
f 393/389/389 403/399/399 402/390/398
f 394/372/390 398/371/394 381/402/377
f 378/403/374 399/394/395 377/396/373
f 372/370/368 389/400/385 403/399/399 398/371/394
f 384/376/380 371/391/367 396/388/392 390/377/386
f 388/397/384 397/404/393 374/405/370 370/398/366
f 439/406/435 374/405/370 397/404/393 395/374/391
f 397/404/393 401/407/397 387/375/383 395/374/391
f 379/385/375 380/384/376 373/408/369 386/409/382
f 398/371/394 403/399/399 393/389/389 381/402/377
f 371/391/367 381/402/377 393/389/389 396/388/392
f 387/375/383 401/407/397 379/410/375 386/411/382
f 379/410/375 399/394/395 378/403/374 375/412/371
f 392/395/388 401/407/397 397/404/393 388/397/384
f 385/373/381 384/376/380 383/379/379 376/413/372
f 401/407/397 392/395/388 399/394/395 379/410/375
f 373/418/369 391/419/387 387/420/383 386/421/382
f 381/422/377 371/423/367 373/380/369 394/383/390
f 391/392/387 371/391/367 384/376/380 385/373/381
f 402/390/398 400/378/396 390/377/386
f 389/400/385 405/426/401 402/390/398
f 404/427/400 405/426/401 389/400/385 372/370/368
f 377/396/373 407/432/403 378/403/374
f 420/434/416 431/435/427 435/436/431 413/437/409
f 422/438/418 424/439/420 432/440/428
f 421/441/417 383/379/379 400/378/396 427/442/423
f 414/443/410 431/444/427 411/445/407 418/446/414
f 418/384/414 415/386/411 417/385/413
f 415/386/411 418/384/414 411/387/407
f 433/447/429 402/390/398 430/448/426
f 412/449/408 414/450/410 428/451/424
f 436/452/432 377/396/373 429/453/425
f 427/442/423 402/390/398 433/447/429
f 424/439/420 422/438/418 428/451/424
f 425/454/421 429/453/425 377/396/373 370/398/366
f 438/455/434 402/390/398 426/456/422
f 411/457/407 431/435/427 420/434/416
f 430/448/426 402/390/398 438/455/434
f 431/435/427 419/458/415 435/436/431
f 416/459/412 377/396/373 436/452/432
f 413/437/409 435/436/431 438/455/434 426/456/422
f 421/441/417 427/442/423 433/447/429 412/449/408
f 425/454/421 370/398/366 374/405/370 434/460/430
f 432/440/428 434/460/430 374/405/370 439/406/435
f 434/460/430 432/440/428 424/439/420 437/461/433
f 417/385/413 423/409/419 414/408/410 418/384/414
f 435/436/431 419/458/415 430/448/426 438/455/434
f 412/449/408 433/447/429 430/448/426 419/458/415
f 424/439/420 423/462/419 417/463/413 437/461/433
f 417/463/413 415/464/411 416/459/412 436/452/432
f 429/453/425 425/454/421 434/460/430 437/461/433
f 422/438/418 376/413/372 383/379/379 421/441/417
f 437/461/433 417/463/413 436/452/432 429/453/425
f 414/418/410 423/421/419 424/420/420 428/419/424
f 419/465/415 431/444/427 414/443/410 412/466/408
f 428/451/424 422/438/418 421/441/417 412/449/408
f 402/390/398 427/442/423 400/378/396
f 426/456/422 402/390/398 405/426/401
f 404/427/400 413/437/409 426/456/422 405/426/401
f 377/396/373 416/459/412 407/432/403
f 395/374/391 385/373/381 376/413/372 439/406/435
f 376/413/372 422/438/418 432/440/428 439/406/435
f 106/58/105 70/114/69 197/128/193 41/59/40
f 41/118/40 68/117/67 9/112/9 56/467/55
usemtl Jmarine8.001
f 152/1/150 139/2/138 52/3/51 129/4/128
f 103/5/102 80/6/79 79/7/78 20/8/20
f 159/9/156 120/10/119 22/11/22 59/12/58
f 65/13/64 163/14/160 123/15/122 185/16/181
f 2/17/2 133/18/132 188/19/184 164/20/161
f 81/25/80 98/26/97 69/27/68 107/28/106
f 134/29/133 144/30/143 160/31/157 172/32/169
f 50/33/49 90/34/89 49/35/48 51/36/50
f 139/37/138 54/38/53 55/39/54 162/40/159
f 60/41/59 59/12/58 56/42/55 9/43/9
f 156/44/153 92/45/91 142/46/141 94/47/93
f 110/48/109 44/49/43 43/50/42 111/51/110
f 182/52/178 113/53/112 80/6/79 103/5/102
f 42/54/41 104/55/103 13/56/13 12/57/12
f 185/16/181 29/61/28 19/62/19 108/63/107
f 93/67/92 53/68/52 127/69/126 180/70/176
f 186/71/182 130/72/129 175/73/172 132/74/131
f 92/45/91 57/79/56 93/67/92 142/46/141
f 38/80/37 97/81/96 187/82/183 154/13/152
f 46/83/45 110/48/109 111/51/110 112/84/111
f 18/85/18 122/86/121 82/87/81 30/88/29
f 177/94/174 73/95/72 178/96/175 11/97/11
f 180/70/176 128/123/127 142/46/141 93/67/92
f 122/86/121 38/124/37 21/125/21 82/87/81
f 128/123/127 129/4/128 169/126/166 94/47/93
f 103/5/102 20/8/20 148/7/146 123/15/122
f 72/130/71 144/131/143 85/132/84 60/133/59
f 72/138/71 60/139/59 9/140/9 44/141/43
f 109/146/108 108/63/107 19/62/19 125/61/124
f 113/53/112 154/13/152 109/146/108 80/6/79
f 162/40/159 55/39/54 58/68/57 57/67/56
f 21/177/21 38/80/37 154/13/152 113/53/112
f 51/178/50 49/179/48 89/35/88 48/36/47
f 97/81/96 18/85/18 65/13/64 187/82/183
f 151/187/149 157/188/154 7/189/7 4/190/4
f 57/191/56 58/192/57 53/68/52 93/67/92
f 73/95/72 177/94/174 151/196/149 160/31/157
f 49/35/48 90/34/89 100/201/99 89/179/88
f 99/202/98 100/201/99 90/34/89 50/33/49
f 47/203/46 5/204/5 10/205/10 168/206/165
f 48/178/47 89/179/88 100/201/99 99/202/98
f 160/31/157 151/196/149 161/210/158
f 188/19/184 64/211/63 181/212/177 3/213/3
f 18/85/18 30/88/29 163/14/160 65/13/64
f 180/70/176 127/69/126 84/214/83 152/1/150
f 104/215/103 133/18/132 2/17/2 13/216/13
f 126/221/125 63/222/62 135/223/134 62/224/61
f 65/13/64 185/16/181 108/63/107 187/82/183
f 63/222/62 126/221/125 150/227/148 119/228/118
f 123/15/122 148/7/146 29/61/28 185/16/181
f 130/72/129 169/126/166 129/4/128 52/3/51
f 144/131/143 17/231/17 6/232/6 85/132/84
f 95/233/94 96/234/95 136/235/135 150/227/148
f 61/242/60 119/228/118 150/227/148 136/235/135
f 117/87/116 105/243/104 146/244/144 2/17/2
f 127/245/126 53/246/52 55/247/54 54/248/53
f 88/254/87 175/73/172 130/72/129 52/3/51
f 120/255/119 177/256/174 11/257/11 22/258/22
f 129/4/128 128/123/127 180/70/176 152/1/150
f 186/260/182 132/261/131 147/262/145
f 130/72/129 76/263/75 174/264/171
f 94/47/93 142/46/141 128/123/127
f 174/264/171 169/126/166 130/72/129
f 61/242/60 156/44/153 190/266/186 119/228/118
f 139/2/138 88/254/87 52/3/51
f 8/267/8 22/258/22 11/257/11 46/268/45
f 130/72/129 186/71/182 77/269/76
f 72/271/71 178/96/175 73/95/72
f 169/126/166 191/272/187 190/266/186 94/47/93
f 187/82/183 108/63/107 109/146/108 154/13/152
f 80/6/79 109/146/108 125/61/124 79/7/78
f 126/274/125 95/233/94 150/227/148
f 53/246/52 58/275/57 55/247/54
f 191/272/187 169/126/166 174/264/171
f 156/44/153 94/47/93 190/266/186
f 56/42/55 59/12/58 22/11/22 106/276/105
f 77/269/76 76/263/75 130/72/129
f 147/262/145 77/277/76 186/260/182
f 54/248/53 84/278/83 127/245/126
f 122/86/121 18/85/18 97/81/96
f 97/81/96 38/124/37 122/86/121
f 72/283/71 44/49/43 110/48/109 178/96/175
f 119/228/118 190/266/186 191/272/187 63/222/62
f 191/272/187 174/264/171 135/223/134 63/222/62
f 177/256/174 120/255/119 157/188/154 151/187/149
f 21/177/21 113/53/112 182/52/178 82/87/81
f 163/14/160 182/52/178 103/5/102 123/15/122
f 178/96/175 110/48/109 46/83/45 11/97/11
f 164/20/161 167/284/164 166/285/163 36/286/35
f 152/1/150 84/214/83 54/287/53 139/2/138
f 30/88/29 82/87/81 182/52/178 163/14/160
f 33/290/32 81/25/80 107/28/106 31/291/30
f 106/276/105 22/11/22 8/293/8
f 12/57/12 13/56/13 146/294/144
f 12/57/12 146/294/144 105/144/104
f 5/204/5 91/295/90 10/205/10
f 91/295/90 5/204/5 115/296/114
f 2/17/2 164/20/161 36/286/35
f 62/224/61 96/234/95 95/233/94 126/221/125
f 36/286/35 117/87/116 2/17/2
f 43/297/42 44/298/43 9/140/9
f 3/213/3 167/284/164 164/20/161
f 3/213/3 101/299/100 167/284/164
f 146/244/144 13/216/13 2/17/2
f 8/267/8 46/268/45 112/300/111
f 60/301/59 159/9/156 59/12/58
f 17/302/17 144/30/143 134/29/133
f 4/303/4 74/304/73 161/210/158
f 74/304/73 134/29/133 75/305/74
f 172/32/169 161/210/158 75/305/74
f 75/305/74 134/29/133 172/32/169
f 161/210/158 172/32/169 160/31/157
f 75/305/74 161/210/158 74/304/73
f 134/29/133 74/304/73 17/302/17
f 161/210/158 151/196/149 4/303/4
f 99/202/98 50/33/49 51/36/50 48/178/47
f 259/306/255 327/30/323 341/31/337 260/95/256
f 3/213/3 164/20/161 188/19/184
f 133/18/132 64/211/63 188/19/184
f 334/1/330 313/4/309 243/3/239 322/2/318
f 289/5/285 218/8/214 266/7/262 267/6/263
f 340/9/336 250/12/246 220/11/216 304/10/300
f 254/13/250 362/16/358 307/15/303 344/14/340
f 199/307/195 345/308/341 365/309/361 133/18/132
f 268/25/264 292/28/288 257/27/253 284/26/280
f 317/29/313 351/32/347 341/31/337 327/30/323
f 241/33/237 242/36/238 240/35/236 276/34/272
f 322/37/318 343/40/339 246/39/242 245/38/241
f 205/41/201 207/43/203 247/42/243 250/12/246
f 337/44/333 280/47/276 325/46/321 278/45/274
f 295/48/291 296/51/292 235/50/231 236/49/232
f 359/52/355 289/5/285 267/6/263 298/53/294
f 42/54/41 210/314/206 211/315/207 104/55/103
f 362/16/358 293/63/289 217/62/213 224/61/220
f 279/67/275 358/70/354 311/69/307 244/68/240
f 363/71/359 316/74/312 354/73/350 314/72/310
f 278/45/274 325/46/321 279/67/275 248/79/244
f 232/80/228 336/13/332 364/82/360 283/81/279
f 238/83/234 297/84/293 296/51/292 295/48/291
f 216/85/212 225/88/221 269/87/265 306/86/302
f 356/94/352 209/97/205 357/96/353 260/95/256
f 358/70/354 279/67/275 325/46/321 312/123/308
f 306/86/302 269/87/265 219/125/215 232/124/228
f 312/123/308 280/47/276 349/126/345 313/4/309
f 289/5/285 307/15/303 330/7/326 218/8/214
f 259/130/255 205/133/201 272/132/268 327/131/323
f 259/138/255 236/141/232 207/140/203 205/139/201
f 294/146/290 309/61/305 217/62/213 293/63/289
f 298/53/294 267/6/263 294/146/290 336/13/332
f 343/40/339 248/67/244 249/68/245 246/39/242
f 219/177/215 298/53/294 336/13/332 232/80/228
f 242/178/238 239/36/235 275/35/271 240/179/236
f 283/81/279 364/82/360 254/13/250 216/85/212
f 333/339/329 201/340/197 204/341/200 338/342/334
f 248/191/244 279/67/275 244/68/240 249/192/245
f 260/95/256 341/31/337 333/196/329 356/94/352
f 240/35/236 275/179/271 286/201/282 276/34/272
f 285/202/281 241/33/237 276/34/272 286/201/282
f 47/203/46 168/206/165 208/205/204 202/204/198
f 239/178/235 285/202/281 286/201/282 275/179/271
f 341/31/337 342/210/338 333/196/329
f 365/309/361 200/346/196 181/212/177 64/211/63
f 216/85/212 254/13/250 344/14/340 225/88/221
f 358/70/354 334/1/330 271/214/267 311/69/307
f 104/215/103 211/347/207 199/307/195 133/18/132
f 310/221/306 252/224/248 318/223/314 253/222/249
f 254/13/250 364/82/360 293/63/289 362/16/358
f 253/222/249 303/228/299 332/227/328 310/221/306
f 307/15/303 362/16/358 224/61/220 330/7/326
f 314/72/310 243/3/239 313/4/309 349/126/345
f 327/131/323 272/132/268 203/232/199 215/231/211
f 281/233/277 332/227/328 319/235/315 282/234/278
f 251/242/247 319/235/315 332/227/328 303/228/299
f 302/87/298 199/17/195 328/244/324 290/243/286
f 311/245/307 245/248/241 246/247/242 244/246/240
f 274/254/270 243/3/239 314/72/310 354/73/350
f 304/356/300 220/357/216 209/358/205 356/359/352
f 313/4/309 334/1/330 358/70/354 312/123/308
f 363/260/359 329/262/325 316/261/312
f 314/72/310 353/264/349 263/263/259
f 280/47/276 312/123/308 325/46/321
f 353/264/349 314/72/310 349/126/345
f 251/242/247 303/228/299 367/266/363 337/44/333
f 322/2/318 243/3/239 274/254/270
f 206/360/202 238/361/234 209/358/205 220/357/216
f 314/72/310 264/269/260 363/71/359
f 259/271/255 260/95/256 357/96/353
f 349/126/345 280/47/276 367/266/363 368/272/364
f 364/82/360 336/13/332 294/146/290 293/63/289
f 267/6/263 266/7/262 309/61/305 294/146/290
f 310/274/306 332/227/328 281/233/277
f 244/246/240 246/247/242 249/275/245
f 368/272/364 353/264/349 349/126/345
f 337/44/333 367/266/363 280/47/276
f 247/42/243 291/276/287 220/11/216 250/12/246
f 264/269/260 314/72/310 263/263/259
f 329/262/325 363/260/359 264/277/260
f 245/248/241 311/245/307 271/278/267
f 306/86/302 283/81/279 216/85/212
f 283/81/279 306/86/302 232/124/228
f 259/283/255 357/96/353 295/48/291 236/49/232
f 303/228/299 253/222/249 368/272/364 367/266/363
f 368/272/364 253/222/249 318/223/314 353/264/349
f 356/359/352 333/339/329 338/342/334 304/356/300
f 219/177/215 269/87/265 359/52/355 298/53/294
f 344/14/340 307/15/303 289/5/285 359/52/355
f 357/96/353 209/97/205 238/83/234 295/48/291
f 345/20/341 230/286/226 347/285/343 348/284/344
f 334/1/330 322/2/318 245/287/241 271/214/267
f 225/88/221 344/14/340 359/52/355 269/87/265
f 228/290/224 226/291/222 292/28/288 268/25/264
f 291/276/287 206/293/202 220/11/216
f 210/314/206 328/363/324 211/315/207
f 210/314/206 290/364/286 328/363/324
f 202/204/198 208/205/204 277/295/273
f 277/295/273 300/296/296 202/204/198
f 199/17/195 230/286/226 345/20/341
f 252/224/248 310/221/306 281/233/277 282/234/278
f 230/286/226 199/17/195 302/87/298
f 235/297/231 207/140/203 236/298/232
f 200/346/196 345/308/341 348/365/344
f 200/366/196 348/284/344 287/299/283
f 328/367/324 199/307/195 211/347/207
f 206/360/202 297/368/293 238/361/234
f 205/301/201 250/12/246 340/9/336
f 215/302/211 317/29/313 327/30/323
f 201/303/197 342/210/338 261/304/257
f 261/304/257 262/305/258 317/29/313
f 351/32/347 262/305/258 342/210/338
f 262/305/258 351/32/347 317/29/313
f 342/210/338 341/31/337 351/32/347
f 262/305/258 261/304/257 342/210/338
f 317/29/313 215/302/211 261/304/257
f 342/210/338 201/303/197 333/196/329
f 285/202/281 239/178/235 242/36/238 241/33/237
f 200/346/196 365/309/361 345/308/341
f 133/18/132 365/309/361 64/211/63
f 382/414/378 369/415/365 410/416/406 406/417/402
f 369/415/365 375/424/371 409/425/405 410/416/406
f 406/417/402 408/428/404 372/429/368 382/414/378
f 407/430/403 409/425/405 375/424/371 378/431/374
f 408/428/404 404/433/400 372/429/368
f 420/414/416 406/417/402 410/416/406 411/415/407
f 411/415/407 410/416/406 409/425/405 415/424/411
f 406/417/402 420/414/416 413/429/409 408/428/404
f 407/430/403 416/431/412 415/424/411 409/425/405
f 408/428/404 413/429/409 404/433/400
f 160/31/157 144/30/143 72/306/71 73/95/72
o MyMarine.001
v 9.858436 -21.660006 -9.111168
v 8.989984 -17.670004 -4.356276
v 7.908516 -17.670006 -10.802859
v 10.975065 -17.100004 -8.544482
v 8.721709 -14.250003 -6.317917
v 8.460135 -14.250004 -9.399536
v 10.125034 -21.660006 -6.869535
v 9.858436 -21.660006 9.111168
v 8.989984 -17.670004 4.356275
v 7.908517 -17.670006 10.802859
v 10.975065 -17.100004 8.544480
v 8.721709 -14.250003 6.317916
v 8.460135 -14.250004 9.399536
v 10.125034 -21.660006 6.869534
vn 0.0546 -0.8792 -0.4734
vn -0.1642 0.0010 0.9864
vn -0.5152 -0.1413 -0.8453
vn 0.9507 0.2015 -0.2358
vn -0.1916 0.7669 0.6125
vn -0.3308 0.7482 -0.5752
vn 0.1308 -0.7460 0.6530
vn 0.0546 -0.8792 0.4734
vn -0.1642 0.0010 -0.9864
vn -0.5152 -0.1413 0.8453
vn 0.9507 0.2015 0.2358
vn -0.1916 0.7669 -0.6125
vn -0.3308 0.7482 0.5752
vn 0.1308 -0.7460 -0.6530
vt 0.050781 0.843750
vt 0.003906 0.859375
vt 0.007812 0.906250
vt 0.039062 0.593750
vt 0.054688 0.539062
vt 0.082031 0.597656
vt 0.062500 0.636719
vt 0.027344 0.539062
vt 0.023438 0.636719
vt 0.050781 0.921875
vt 0.082031 0.906250
vt 0.082031 0.855469
vt 0.003906 0.597656
vt 0.046875 0.693848
vt 0.003906 0.697754
vt 0.031249 0.639160
vt 0.023437 0.736817
vt 0.058593 0.639160
vt 0.062499 0.736817
vt 0.082031 0.697754
s 1
usemtl Jmarine8.001
f 442/468/438 440/469/436 446/470/442
f 443/471/439 440/472/436 442/473/438
f 442/473/438 445/474/441 443/471/439
f 443/471/439 446/475/442 440/472/436
f 445/474/441 444/476/440 443/471/439
f 441/477/437 444/478/440 445/479/441
f 446/470/442 441/477/437 445/479/441 442/468/438
f 441/480/437 446/475/442 443/471/439 444/476/440
f 449/468/445 453/470/449 447/469/443
f 450/481/446 449/482/445 447/483/443
f 449/482/445 450/481/446 452/484/448
f 450/481/446 447/483/443 453/485/449
f 452/484/448 450/481/446 451/486/447
f 448/477/444 452/479/448 451/478/447
f 453/470/449 449/468/445 452/479/448 448/477/444
f 448/487/444 451/486/447 450/481/446 453/485/449
o MyMarine.002
v -9.080659 25.293770 -17.288094
v -4.711475 21.537113 -18.813873
v -1.896389 21.493286 -19.326277
v 0.928252 21.451902 -18.869238
v 5.438030 25.074409 -17.430628
v 6.818517 29.970703 -11.032695
v 3.050776 32.345245 -8.635544
v -2.052851 33.913631 -7.949943
v -7.213999 32.500343 -8.534775
v -10.186760 30.227638 -10.865751
v -7.368766 33.542828 -11.704377
v -6.509840 28.034590 -18.829039
v -1.624095 34.438580 -11.513233
v -1.794603 28.317078 -19.460316
v 4.086037 33.369759 -11.816830
v 2.921430 27.892094 -18.921627
v -10.085002 26.794373 -16.114891
v -6.991143 23.320850 -18.213932
v 1.854589 25.523531 -19.480848
v 3.272097 23.165783 -18.314690
v 6.510081 26.543640 -16.277807
v 7.166184 28.912815 -13.032713
v -10.605414 29.181330 -12.858248
v -7.537306 32.975040 -13.896756
v -1.654901 33.993958 -13.966880
v 4.194283 32.797791 -14.011923
v -7.140065 30.177818 -17.652153
v -1.743449 30.885464 -18.202499
v 3.639090 30.014954 -17.757973
v -1.843946 25.298206 -19.840282
v -5.526218 25.635048 -19.408392
v -1.728312 29.849617 -15.066348
v -9.080657 25.293770 17.288094
v -4.711473 21.537113 18.813873
v -1.896388 21.493286 19.326277
v 0.928253 21.451902 18.869238
v 5.438032 25.074409 17.430628
v 6.818518 29.970703 11.032695
v 3.050777 32.345245 8.635544
v -2.052851 33.913631 7.949943
v -7.213998 32.500343 8.534775
v -10.186760 30.227638 10.865751
v -7.368765 33.542828 11.704377
v -6.509838 28.034590 18.829039
v -1.624094 34.438580 11.513233
v -1.794602 28.317078 19.460316
v 4.086038 33.369759 11.816830
v 2.921432 27.892094 18.921627
v -10.085000 26.794373 16.114891
v -6.991141 23.320850 18.213932
v 1.854591 25.523531 19.480848
v 3.272098 23.165783 18.314690
v 6.510082 26.543640 16.277807
v 7.166185 28.912815 13.032713
v -10.605412 29.181330 12.858248
v -7.537305 32.975040 13.896756
v -1.654900 33.993958 13.966880
v 4.194284 32.797791 14.011923
v -7.140063 30.177818 17.652153
v -1.743448 30.885464 18.202499
v 3.639092 30.014954 17.757973
v -1.843945 25.298206 19.840282
v -5.526217 25.635048 19.408392
v -1.728311 29.849617 15.066348
vn -0.7995 -0.6005 0.0089
vn -0.2846 -0.9552 -0.0812
vn -0.0171 -0.9663 -0.2567
vn 0.2539 -0.9634 -0.0865
vn 0.7811 -0.6244 -0.0066
vn 0.7618 -0.2665 0.5905
vn 0.2527 0.0473 0.9664
vn -0.0061 0.2646 0.9643
vn -0.3239 0.0958 0.9412
vn -0.7636 -0.2638 0.5893
vn -0.4760 0.8793 0.0152
vn -0.3783 0.2171 -0.8999
vn 0.0256 0.9993 0.0263
vn -0.0048 0.3036 -0.9528
vn 0.5121 0.8566 0.0637
vn 0.3670 0.2058 -0.9072
vn -0.8877 -0.4543 0.0748
vn -0.6749 -0.7378 0.0133
vn 0.2774 -0.0366 -0.9601
vn 0.6525 -0.7578 0.0002
vn 0.8749 -0.4809 0.0575
vn 0.8866 -0.4043 0.2246
vn -0.8938 -0.3774 0.2421
vn -0.4998 0.7823 -0.3718
vn 0.0098 0.9142 -0.4052
vn 0.5158 0.7669 -0.3818
vn -0.4593 0.5371 -0.7075
vn 0.0022 0.6443 -0.7648
vn 0.4613 0.5232 -0.7166
vn -0.0100 -0.0090 -0.9999
vn -0.2972 -0.0279 -0.9544
vn -0.0070 -0.7209 0.6930
vn -0.7995 -0.6005 -0.0089
vn -0.2846 -0.9552 0.0812
vn -0.0171 -0.9663 0.2567
vn 0.2539 -0.9634 0.0865
vn 0.7811 -0.6244 0.0066
vn 0.7618 -0.2665 -0.5905
vn 0.2527 0.0473 -0.9664
vn -0.0061 0.2646 -0.9643
vn -0.3239 0.0958 -0.9412
vn -0.7636 -0.2638 -0.5893
vn -0.4760 0.8793 -0.0152
vn -0.3783 0.2171 0.8999
vn 0.0256 0.9993 -0.0263
vn -0.0048 0.3036 0.9528
vn 0.5121 0.8566 -0.0637
vn 0.3670 0.2058 0.9072
vn -0.8877 -0.4543 -0.0748
vn -0.6749 -0.7378 -0.0133
vn 0.2774 -0.0366 0.9601
vn 0.6525 -0.7578 -0.0002
vn 0.8749 -0.4809 -0.0575
vn 0.8866 -0.4043 -0.2246
vn -0.8938 -0.3774 -0.2421
vn -0.4998 0.7823 0.3718
vn 0.0098 0.9142 0.4052
vn 0.5158 0.7669 0.3818
vn -0.4593 0.5371 0.7075
vn 0.0022 0.6443 0.7648
vn 0.4613 0.5232 0.7166
vn -0.0100 -0.0090 0.9999
vn -0.2972 -0.0279 0.9544
vn -0.0070 -0.7209 -0.6930
vt 0.790456 0.246565
vt 0.802573 0.208405
vt 0.713779 0.160965
vt 0.694657 0.187850
vt 0.641769 0.107565
vt 0.612021 0.145791
vt 0.883431 0.261666
vt 0.892157 0.227065
vt 0.964878 0.270652
vt 0.982567 0.227373
vt 0.755453 0.100126
vt 0.686589 0.042920
vt 0.779285 0.072391
vt 0.735263 0.009283
vt 0.830900 0.129656
vt 0.847159 0.097328
vt 0.897372 0.153887
vt 0.902592 0.117112
vt 0.976587 0.142809
vt 0.970008 0.096641
vt 0.798935 0.047551
vt 0.784348 0.005095
vt 0.856918 0.057306
vt 0.898679 0.080061
vt 0.963639 0.071487
vt 0.831969 0.004434
vt 0.878485 0.008495
vt 0.908355 0.028923
vt 0.661468 0.266015
vt 0.765440 0.316791
vt 0.873438 0.322616
vt 0.672483 0.073548
vt 0.704241 0.046685
vt 0.812501 0.169615
vt 0.757742 0.023465
vt 0.812407 0.007724
vt 0.872021 0.007617
vt 0.918783 0.041685
vt 0.951328 0.085267
vt 0.978093 0.134112
vt 0.985500 0.173479
vt 0.971351 0.246417
vt 0.950646 0.281387
vt 0.863810 0.325699
vt 0.761395 0.310407
vt 0.670196 0.263887
vt 0.629892 0.178986
vt 0.636143 0.139401
s 1
usemtl Jmarine8.001
f 466/488/462 478/489/474 477/490/473 464/491/460
f 464/491/460 477/490/473 476/492/472 463/493/459
f 468/494/464 479/495/475 478/489/474 466/488/462
f 459/496/455 475/497/471 479/495/475 468/494/464
f 477/490/473 480/498/476 470/499/466 476/492/472
f 470/499/466 480/498/476 465/500/461 454/501/450
f 478/489/474 481/502/477 480/498/476 477/490/473
f 480/498/476 481/502/477 467/503/463 465/500/461
f 481/502/477 482/504/478 469/505/465 467/503/463
f 482/504/478 481/502/477 478/489/474 479/495/475
f 474/506/470 482/504/478 479/495/475 475/497/471
f 482/504/478 474/506/470 458/507/454 469/505/465
f 465/500/461 484/508/480 471/509/467 454/501/450
f 467/503/463 483/510/479 484/508/480 465/500/461
f 469/505/465 472/511/468 483/510/479 467/503/463
f 458/507/454 473/512/469 472/511/468 469/505/465
f 455/513/451 471/509/467 484/508/480
f 484/508/480 483/510/479 456/514/452 455/513/451
f 483/510/479 472/511/468 457/515/453 456/514/452
f 457/515/453 472/511/468 473/512/469
f 464/491/460 463/493/459 462/516/458
f 466/488/462 464/491/460 462/516/458 461/517/457
f 459/496/455 468/494/464 460/518/456
f 468/494/464 466/488/462 461/517/457 460/518/456
f 470/519/466 454/520/450 485/521/481
f 454/520/450 471/522/467 485/521/481
f 471/522/467 455/523/451 485/521/481
f 455/523/451 456/524/452 485/521/481
f 456/524/452 457/525/453 485/521/481
f 457/525/453 473/526/469 485/521/481
f 473/526/469 458/527/454 485/521/481
f 458/527/454 474/528/470 485/521/481
f 474/528/470 475/529/471 485/521/481
f 475/529/471 459/530/455 485/521/481
f 459/530/455 460/531/456 485/521/481
f 460/531/456 461/532/457 485/521/481
f 461/532/457 462/533/458 485/521/481
f 462/533/458 463/534/459 485/521/481
f 463/534/459 476/535/472 485/521/481
f 476/535/472 470/519/466 485/521/481
f 498/488/494 496/491/492 509/490/505 510/489/506
f 496/491/492 495/493/491 508/492/504 509/490/505
f 500/494/496 498/488/494 510/489/506 511/495/507
f 491/496/487 500/494/496 511/495/507 507/497/503
f 509/490/505 508/492/504 502/499/498 512/498/508
f 502/499/498 486/501/482 497/500/493 512/498/508
f 510/489/506 509/490/505 512/498/508 513/502/509
f 512/498/508 497/500/493 499/503/495 513/502/509
f 513/502/509 499/503/495 501/505/497 514/504/510
f 514/504/510 511/495/507 510/489/506 513/502/509
f 506/506/502 507/497/503 511/495/507 514/504/510
f 514/504/510 501/505/497 490/507/486 506/506/502
f 497/500/493 486/501/482 503/509/499 516/508/512
f 499/503/495 497/500/493 516/508/512 515/510/511
f 501/505/497 499/503/495 515/510/511 504/511/500
f 490/507/486 501/505/497 504/511/500 505/512/501
f 487/513/483 516/508/512 503/509/499
f 516/508/512 487/513/483 488/514/484 515/510/511
f 515/510/511 488/514/484 489/515/485 504/511/500
f 489/515/485 505/512/501 504/511/500
f 496/491/492 494/516/490 495/493/491
f 498/488/494 493/517/489 494/516/490 496/491/492
f 491/496/487 492/518/488 500/494/496
f 500/494/496 492/518/488 493/517/489 498/488/494
f 502/519/498 517/521/513 486/520/482
f 486/520/482 517/521/513 503/522/499
f 503/522/499 517/521/513 487/523/483
f 487/523/483 517/521/513 488/524/484
f 488/524/484 517/521/513 489/525/485
f 489/525/485 517/521/513 505/526/501
f 505/526/501 517/521/513 490/527/486
f 490/527/486 517/521/513 506/528/502
f 506/528/502 517/521/513 507/529/503
f 507/529/503 517/521/513 491/530/487
f 491/530/487 517/521/513 492/531/488
f 492/531/488 517/521/513 493/532/489
f 493/532/489 517/521/513 494/533/490
f 494/533/490 517/521/513 495/534/491
f 495/534/491 517/521/513 508/535/504
f 508/535/504 517/521/513 502/519/498
