# Blender 4.5.10 LTS
# www.blender.org
mtllib unrealmarine.mtl
o UMSMarineRedux
v 8.117730 26.932505 -12.346468
v -12.755465 27.531004 -12.162590
v -3.184718 43.126839 -4.073349
v 4.777762 -38.902508 -11.658093
v 6.226637 6.583500 -8.121370
v -9.978240 -34.713009 -2.338170
v 5.906271 -38.902508 -3.713200
v 8.858524 -3.591002 -5.753588
v -4.105378 -6.583501 -1.127032
v -4.955714 7.182001 -6.424214
v 8.592662 -17.356506 -10.459259
v 6.678865 9.575999 -8.805652
v -10.349167 10.174500 -6.009547
v 6.517117 11.371502 -7.531624
v -3.779734 6.583500 -6.417181
v -2.887201 11.371500 -8.175879
v -10.825059 -35.311508 -8.223342
v -7.151549 30.523506 -10.153878
v -1.888242 10.773000 -13.434368
v -3.417752 11.371499 -20.183155
v 2.490509 28.728001 -17.001080
v 9.439483 -17.356504 -4.574089
v 7.635934 34.713009 -0.000003
v -0.913044 44.289005 -2.858549
v -3.246435 42.891426 -2.990621
v 4.990038 32.319004 -0.000002
v 5.337619 5.386500 -6.950665
v 7.647380 4.788001 -0.000000
v -6.311022 8.977500 -14.865462
v -7.773195 30.523504 -13.970551
v -9.972965 -42.493507 -3.220154
v 9.765125 -39.501003 -9.864233
v -9.932525 -42.493507 -9.982037
v -8.464309 -35.910007 -9.679250
v -7.640348 11.371503 -0.000001
v -0.418300 31.122004 -13.447318
v 0.830169 37.107006 -5.225996
v 3.700130 28.728006 -13.189587
v 10.902423 -38.902508 -3.389316
v -8.502992 -35.910007 -3.211365
v 3.086233 -5.985001 0.000000
v 9.990435 9.576001 -0.000001
v -4.651169 -2.992502 -8.186424
v -4.640621 -3.591003 -9.950392
v 2.888090 38.304005 -5.244125
v 6.835725 -0.000002 -11.645788
v 9.411350 5.386501 -0.000000
v -1.989393 0.598498 -10.816554
v 4.473219 7.182000 -9.895889
v 3.608816 1.795499 -12.841111
v 4.478492 0.598498 -10.777871
v 4.821700 2.992498 -19.373703
v -7.814631 9.575999 -18.674366
v 2.209470 13.167001 -15.528544
v -1.284726 10.773000 -11.675614
v 2.946980 -7.182002 -0.496845
v -1.625332 2.393998 -16.964819
v -6.891229 8.977500 -13.978318
v 5.309487 -17.955004 -2.246746
v 0.022857 -19.152002 -3.160378
v 1.012797 -6.583504 -17.870090
v 7.782305 -5.386503 -17.047691
v 7.168430 -5.386503 -19.982397
v -10.297373 37.107006 -0.000003
v -8.343043 22.144503 -11.907450
v -7.011919 -0.598502 -6.730516
v -0.580957 -40.099506 -0.517939
v -2.360749 -5.805002 0.000000
v 9.432449 -42.493507 -3.398107
v 8.249437 -5.985001 -2.229167
v 11.754366 21.546003 -0.000002
v -0.823962 -19.152004 -9.045548
v 3.600025 -20.349005 -11.371133
v -2.565073 -40.099506 -12.878027
v -1.968293 -37.107006 -14.344485
v 5.131227 -1.197002 -17.612360
v 5.435577 -3.591003 -16.438995
v 1.605954 1.795498 -17.287296
v 0.411871 13.167000 -19.334858
v -0.457146 16.758001 -17.857147
v 3.894020 -42.493507 -11.369371
v -3.391854 29.925001 -17.243273
v -6.434480 11.371503 -4.963033
v 1.585234 13.765498 -19.639208
v -7.923794 -28.728008 -1.737876
v 2.404706 5.985001 -8.144227
v -8.816326 0.000000 0.000000
v 5.726974 2.992498 -16.735575
v -1.994667 7.182000 -9.934569
v 3.605299 6.583500 -12.253122
v -1.411953 7.182001 -9.049070
v -1.336522 0.598498 -17.555386
v -2.239207 2.393998 -19.899525
v 0.401512 -4.189505 -20.510809
v 7.490905 -7.182004 -16.751110
v 7.207278 -5.985003 -15.572567
v -1.266598 29.925005 -9.617696
v 8.589146 -42.493507 -9.871266
v -1.095099 1.795498 -12.869243
v -1.098617 6.583499 -12.281254
v -1.529510 39.501003 -6.087245
v 6.965083 31.720505 -9.690211
v -5.171326 16.758001 -18.991665
v -11.764724 10.174500 -0.000001
v 2.256087 9.575999 -10.236749
v 7.078732 -5.985001 -3.118184
v 4.133511 -42.493507 -2.253776
v -3.644405 14.962501 -12.536862
v -0.139849 15.561001 -15.213837
v 0.079121 -0.598502 -12.568214
v 0.362566 -0.000002 -10.802487
v 6.826935 0.598498 -10.175816
v 1.605953 21.546000 -17.287298
v 7.089281 2.992500 -4.882154
v 2.121260 7.182000 -9.909955
v 5.932642 3.590999 -8.123127
v 3.689772 26.932503 -14.365540
v -3.611345 43.533718 -0.000003
v 1.587825 -7.182004 -19.345215
v 8.851492 -21.546003 -4.577606
v 0.000001 -37.107006 0.661557
v -1.883064 32.917503 -12.846393
v -8.374123 16.159498 -15.435313
v -4.996154 -35.311508 0.337671
v 1.324914 12.568501 -15.814764
v 7.769356 -6.583504 -18.517637
v -4.312667 11.969999 -21.645330
v 1.270527 1.196997 -21.988523
v 3.919014 2.393997 -21.717848
v 6.595991 0.598498 -18.213287
v 2.996211 11.371500 -8.728701
v 6.033912 -2.992502 -15.268221
v -14.119226 26.932505 -0.000001
v -6.978514 -35.311508 -12.316412
v 7.480547 -4.189503 -17.927067
v 3.088845 -8.379004 -15.830299
v -8.216030 -5.386502 -2.033633
v 1.531513 3.590999 -9.619475
v 3.944913 4.189498 -18.777958
v 0.538770 40.099506 -4.929419
v -1.813139 39.501003 -4.908699
v -1.357242 -0.000003 -19.907295
v -2.582655 -34.713009 -9.938080
v -9.054058 -28.728008 -9.388774
v 9.117355 11.371503 -0.000001
v -5.382438 9.575999 -9.581436
v 5.149356 -2.992503 -15.554440
v -6.628319 9.575999 -17.508768
v -4.950439 2.992500 -7.306199
v 3.372475 -8.977504 -17.008844
v 6.541730 -32.917503 -11.647543
v 3.331038 4.189498 -21.712664
v -2.329100 -34.713009 -3.174443
v 2.511227 20.947500 -14.649170
v -4.702159 5.985001 -0.000000
v -0.160568 -4.189503 -17.565744
v 7.671997 -32.917503 -3.996648
v 0.302786 -33.516010 -0.806660
v 5.015494 -20.349003 -2.248505
v -1.096857 -27.531004 -12.575243
v 0.966380 -37.705505 -13.444920
v 1.317145 2.992498 -16.696728
v -8.660340 22.743000 -14.550759
v -8.322326 33.516010 -9.555542
v 1.993174 35.910007 -6.706299
v -0.972609 34.713009 -9.620286
v -5.075501 37.107006 -8.114088
v -6.466126 7.182002 -0.000001
v 5.982116 -2.992504 -21.147997
v 8.814479 31.122005 -0.000002
v 7.591908 32.917503 -5.285562
v -1.093342 -34.114506 -13.163233
v -2.295696 3.590999 -8.760348
v 6.892570 -2.394003 -17.921888
v 6.320131 1.196998 -16.152777
v 4.847598 0.598498 -16.433817
v 8.004671 -22.144503 -10.462776
v 3.895779 -18.553505 -11.663370
v -0.887900 44.289005 -0.000003
v 0.388562 2.992497 -21.980753
v -3.535109 44.289005 -0.000003
v -4.286768 22.144499 -18.705444
v 2.656503 -37.705505 -1.086588
v 5.546937 36.508507 -3.797492
v -7.770606 15.561001 -13.676558
v 6.320131 -2.992503 -16.152775
v -2.746901 20.947502 -10.780702
v -10.338809 35.311508 -4.833597
v 3.205387 34.114506 -2.600817
v 0.698089 -5.386503 -20.219410
v 6.281284 -3.591004 -20.562609
v -3.534003 44.289005 -0.000003
v 7.638432 32.917503 -0.000002
v -1.475923 39.501003 -0.000003
v 2.052216 35.910007 -0.000003
v -8.228125 -5.386501 0.000000
v 8.236105 -5.985001 0.000000
v 8.117731 26.932505 12.346464
v -12.755463 27.531004 12.162588
v -3.184717 43.126839 4.073344
v 4.777763 -38.902508 11.658099
v 6.226638 6.583501 8.121367
v -9.978240 -34.713009 2.338178
v 5.906271 -38.902508 3.713206
v 0.022858 -19.152002 3.160381
v 8.858524 -3.591001 5.753587
v -4.105378 -6.583501 1.127033
v -4.955713 7.182002 6.424213
v 8.592662 -17.356506 10.459261
v 6.678866 9.576001 8.805650
v -10.349167 10.174500 6.009546
v 6.517118 11.371504 7.531621
v -3.779733 6.583501 6.417181
v -2.887201 11.371502 8.175877
v -10.825059 -35.311508 8.223349
v -7.151548 30.523506 10.153874
v -1.888241 10.773002 13.434366
v -3.417750 11.371503 20.183155
v 2.490510 28.728004 17.001076
v 9.439483 -17.356504 4.574091
v -0.913044 44.289005 2.858543
v -3.246435 42.891426 2.990616
v 5.337620 5.386501 6.950664
v -6.311021 8.977502 14.865460
v -7.773193 30.523508 13.970547
v -9.972965 -42.493507 3.220161
v 9.765125 -39.501003 9.864239
v -9.932525 -42.493507 9.982042
v -8.464309 -35.910007 9.679255
v -0.418299 31.122007 13.447314
v 0.830169 37.107006 5.225990
v 3.700132 28.728010 13.189583
v 10.902423 -38.902508 3.389321
v -8.502992 -35.910007 3.211371
v -4.651168 -2.992500 8.186424
v -4.640620 -3.591001 9.950392
v 2.888091 38.304005 5.244119
v 6.835727 -0.000000 11.645788
v -1.989392 0.598500 10.816554
v 4.473220 7.182002 9.895887
v 3.608817 1.795501 12.841111
v 4.478494 0.598500 10.777871
v 4.821702 2.992501 19.373703
v -7.814629 9.576001 18.674366
v 2.209472 13.167003 15.528543
v -1.284725 10.773002 11.675612
v 2.946980 -7.182002 0.496846
v -1.625331 2.394000 16.964819
v -6.891228 8.977502 13.978316
v 5.309487 -17.955004 2.246748
v 1.012798 -6.583501 17.870090
v 7.782307 -5.386500 17.047691
v 7.168432 -5.386500 19.982397
v -8.343042 22.144503 11.907446
v -7.011919 -0.598500 6.730517
v -0.580957 -40.099506 0.517945
v 9.432449 -42.493507 3.398113
v 8.249437 -5.985001 2.229167
v -0.823961 -19.152004 9.045552
v 3.600026 -20.349005 11.371137
v -2.565072 -40.099506 12.878033
v -1.968291 -37.107006 14.344491
v 5.131229 -1.197000 17.612360
v 5.435578 -3.591001 16.438995
v 1.605955 1.795500 17.287296
v 0.411872 13.167004 19.334854
v -0.457145 16.758005 17.857143
v 3.894020 -42.493507 11.369377
v -3.391852 29.925005 17.243269
v -6.434480 11.371503 4.963032
v 1.585236 13.765502 19.639204
v -7.923794 -28.728008 1.737881
v 2.404706 5.985002 8.144227
v 5.726974 2.992500 16.735575
v -1.994667 7.182002 9.934567
v 3.605300 6.583502 12.253120
v -1.411952 7.182002 9.049068
v -1.336521 0.598500 17.555386
v -2.239206 2.394001 19.899525
v 0.401514 -4.189502 20.510809
v 7.490907 -7.182002 16.751110
v 7.207279 -5.985001 15.572567
v -1.266597 29.925005 9.617692
v 8.589146 -42.493507 9.871272
v -1.095098 1.795500 12.869243
v -1.098616 6.583501 12.281252
v -1.529510 39.501003 6.087239
v 6.965084 31.720505 9.690206
v -5.171323 16.758005 18.991661
v 2.256087 9.576001 10.236747
v 7.078732 -5.985001 3.118183
v 4.133511 -42.493507 2.253782
v -3.644404 14.962502 12.536860
v -0.139848 15.561003 15.213835
v 0.079122 -0.598500 12.568214
v 0.362567 -0.000000 10.802487
v 6.826936 0.598500 10.175816
v 1.605955 21.546003 17.287294
v 7.089281 2.992501 4.882153
v 2.121261 7.182002 9.909953
v 5.932642 3.591001 8.123126
v 3.689773 26.932507 14.365536
v 1.587826 -7.182002 19.345215
v 8.851492 -21.546003 4.577608
v 0.000000 -37.107006 -0.661551
v -1.883063 32.917503 12.846387
v -8.374122 16.159502 15.435311
v -4.996154 -35.311508 -0.337665
v 1.324915 12.568502 15.814762
v 7.769358 -6.583501 18.517637
v -4.312665 11.970003 21.645330
v 1.270529 1.197001 21.988523
v 3.919017 2.394001 21.717848
v 6.595993 0.598500 18.213287
v 2.996212 11.371502 8.728699
v 6.033913 -2.992500 15.268221
v -6.978513 -35.311508 12.316418
v 7.480549 -4.189500 17.927067
v 3.088847 -8.379002 15.830301
v -8.216030 -5.386502 2.033634
v 1.531513 3.591001 9.619475
v 3.944914 4.189501 18.777958
v 0.538771 40.099506 4.929413
v -1.813139 39.501003 4.908693
v -1.357239 0.000001 19.907295
v -2.582654 -34.713009 9.938086
v -9.054058 -28.728008 9.388778
v -5.382437 9.576001 9.581434
v 5.149357 -2.992501 15.554440
v -6.628317 9.576001 17.508768
v -4.950438 2.992501 7.306199
v 3.372477 -8.977502 17.008844
v 6.541731 -32.917503 11.647549
v 3.331040 4.189501 21.712664
v -2.329100 -34.713009 3.174449
v 2.511229 20.947504 14.649166
v -0.160566 -4.189500 17.565744
v 7.671997 -32.917503 3.996651
v 0.302786 -33.516010 0.806665
v 5.015494 -20.349003 2.248507
v -1.096857 -27.531004 12.575247
v 0.966381 -37.705505 13.444925
v 1.317147 2.992500 16.696728
v -8.660338 22.743004 14.550756
v -8.322325 33.516010 9.555536
v 1.993175 35.910007 6.706293
v -0.972609 34.713009 9.620280
v -5.075500 37.107006 8.114082
v 5.982118 -2.992500 21.147997
v 7.591908 32.917503 5.285556
v -1.093341 -34.114506 13.163239
v -2.295695 3.591001 8.760348
v 6.892570 -2.394001 17.921888
v 6.320133 1.197000 16.152777
v 4.847599 0.598500 16.433817
v 8.004672 -22.144503 10.462780
v 3.895780 -18.553505 11.663372
v 0.388564 2.992501 21.980753
v -4.286767 22.144503 18.705441
v 2.656503 -37.705505 1.086594
v 5.546937 36.508507 3.797485
v -7.770605 15.561003 13.676557
v 6.320133 -2.992501 16.152775
v -2.746900 20.947502 10.780698
v -10.338809 35.311508 4.833592
v 3.205387 34.114506 2.600811
v 0.698090 -5.386500 20.219410
v 6.281287 -3.591000 20.562609
v 2.504717 35.910007 -7.021330
v 13.001744 32.319004 -0.000003
v 11.243863 44.289005 -5.347190
v -2.441733 44.887508 -2.885105
v 10.723478 38.304005 -6.554634
v 14.723301 34.713009 -0.000004
v 2.027846 35.910007 -3.809197
v 16.116844 38.304005 -0.000004
v 10.046596 31.122005 -0.000002
v 3.428810 32.917503 -2.551749
v 7.965060 35.910007 -4.649953
v 10.429954 35.910007 -6.571303
v 6.547427 45.486012 -5.613874
v -1.100948 40.099506 -5.753705
v 14.643794 44.289005 -0.000004
v 14.599513 44.289005 -2.211907
v 16.033813 38.304005 -1.541513
v 9.155836 38.304005 -4.876810
v 11.797582 36.508507 -4.726800
v 13.065207 32.319004 -1.121134
v 1.567642 48.478508 -0.890595
v 11.304042 47.880009 -1.221143
v 12.467975 37.107006 -6.161101
v 11.093854 32.319004 -2.705444
v 6.724281 47.880009 -3.542516
v 3.368631 40.099506 -6.677799
v 14.859704 38.304005 -1.608184
v 9.349359 47.880009 -3.098979
v 14.272650 34.713009 -1.641519
v 2.404711 44.887508 -5.260166
v 6.397419 32.319004 -2.972127
v 11.234901 47.880009 -0.000004
v 11.454052 34.713009 -3.862887
v 6.817795 49.077003 -0.000004
v 3.445478 48.478508 -2.845279
v -2.343242 45.391750 -0.000003
v 1.644225 48.478512 -0.000004
v -0.865140 40.387096 -0.000003
v 3.559330 32.917503 -0.000002
v -2.331244 44.887508 -0.000003
v 2.239882 35.910007 -0.000003
v 2.840844 36.211353 -0.000003
v 2.504717 35.910007 7.021324
v 11.243863 44.289005 5.347183
v -2.441732 44.887508 2.885099
v 10.723478 38.304005 6.554627
v 2.027846 35.910007 3.809191
v 3.428810 32.917503 2.551744
v 7.965060 35.910007 4.649947
v 10.429954 35.910007 6.571296
v 6.547427 45.486012 5.613867
v -1.100947 40.099506 5.753699
v 14.599513 44.289005 2.211900
v 16.033813 38.304005 1.541506
v 9.155836 38.304005 4.876804
v 11.797582 36.508507 4.726793
v 13.065207 32.319004 1.121129
v 1.567642 48.478508 0.890587
v 11.304042 47.880009 1.221134
v 12.467975 37.107006 6.161095
v 11.093854 32.319004 2.705439
v 6.724281 47.880009 3.542509
v 3.368632 40.099506 6.677793
v 14.859704 38.304005 1.608177
v 9.349359 47.880009 3.098972
v 14.272650 34.713009 1.641512
v 2.404711 44.887508 5.260159
v 6.397419 32.319004 2.972123
v 11.454052 34.713009 3.862880
v 3.445478 48.478508 2.845271
v 15.815300 38.300350 -0.000004
v 10.351357 -22.743006 -9.566724
v 9.439483 -18.553503 -4.574089
v 8.303942 -18.553505 -11.343000
v 11.523818 -17.955004 -8.971705
v 9.157794 -14.962502 -6.633811
v 8.883142 -14.962504 -9.869512
v 10.631286 -22.743006 -7.213009
v 10.351357 -22.743006 9.566728
v 9.439483 -18.553503 4.574090
v 8.303943 -18.553505 11.343002
v 11.523818 -17.955004 8.971704
v 9.157794 -14.962501 6.633812
v 8.883142 -14.962502 9.869514
v 10.631286 -22.743006 7.213012
v -9.534692 26.558455 -18.152500
v -4.947048 22.613966 -19.754568
v -1.991208 22.567947 -20.292591
v 0.974665 22.524494 -19.812700
v 5.709931 26.328127 -18.302160
v 7.159443 31.469236 -11.584331
v 3.203315 33.962505 -9.067324
v -2.155493 35.609310 -8.347443
v -7.574698 34.125359 -8.961517
v -10.696097 31.739019 -11.409041
v -7.737204 35.219967 -12.289598
v -6.835332 29.436316 -19.770491
v -1.705300 36.160507 -12.088897
v -1.884333 29.732927 -20.433332
v 4.290339 35.038246 -12.407674
v 3.067502 29.286695 -19.867710
v -10.589252 28.134089 -16.920637
v -7.340700 24.486891 -19.124630
v 1.947318 26.799704 -20.454891
v 3.435702 24.324070 -19.230425
v 6.835585 27.870819 -17.091700
v 7.524493 30.358452 -13.684350
v -11.135685 30.640392 -13.501162
v -7.914171 34.623791 -14.591597
v -1.737646 35.693653 -14.665226
v 4.403997 34.437679 -14.712522
v -7.497068 31.686707 -18.534761
v -1.830621 32.429737 -19.112625
v 3.821044 31.515697 -18.645872
v -1.936143 26.563114 -20.832298
v -5.802528 26.916798 -20.378813
v -1.814728 31.342094 -15.819667
v -9.534689 26.558458 18.152496
v -4.947046 22.613970 19.754564
v -1.991207 22.567951 20.292587
v 0.974666 22.524498 19.812696
v 5.709933 26.328131 18.302156
v 7.159444 31.469236 11.584327
v 3.203316 33.962505 9.067318
v -2.155493 35.609310 8.347437
v -7.574697 34.125359 8.961512
v -10.696097 31.739019 11.409036
v -7.737203 35.219967 12.289593
v -6.835330 29.436319 19.770487
v -1.705299 36.160507 12.088891
v -1.884332 29.732931 20.433329
v 4.290340 35.038246 12.407668
v 3.067503 29.286699 19.867706
v -10.589250 28.134092 16.920633
v -7.340698 24.486895 19.124626
v 1.947320 26.799707 20.454887
v 3.435703 24.324074 19.230421
v 6.835586 27.870823 17.091696
v 7.524494 30.358456 13.684346
v -11.135681 30.640396 13.501158
v -7.914170 34.623791 14.591591
v -1.737645 35.693653 14.665220
v 4.403998 34.437679 14.712516
v -7.497066 31.686710 18.534758
v -1.830620 32.429737 19.112621
v 3.821046 31.515701 18.645868
v -1.936142 26.563118 20.832294
v -5.802527 26.916801 20.378809
v -1.814726 31.342098 15.819663
v 16.121536 34.048454 -1.352784
v 16.424227 34.520004 -0.000004
v 16.121536 34.048454 1.352776
v 15.390772 32.910038 1.913117
v 14.660013 31.771626 1.352776
v 14.357319 31.300076 -0.000004
v 15.390775 32.910042 -1.913124
v 14.660013 31.771626 -1.352784
v 14.903193 31.616343 -1.352784
v 14.600498 31.144793 -0.000004
v 14.903193 31.616343 1.352776
v 15.633953 32.754757 1.913117
v 16.364717 33.893173 1.352777
v 16.667408 34.364723 -0.000004
v 16.364717 33.893173 -1.352784
v 15.633955 32.754761 -1.913124
v 12.929826 33.246735 -1.040681
v 12.696971 32.883984 -0.000004
v 12.929826 33.246735 1.040674
v 13.491993 34.122509 1.471736
v 14.054156 34.998272 1.040674
v 14.287015 35.361031 -0.000004
v 16.653084 34.342407 -1.886606
v 14.966071 35.419647 -1.886606
v 17.075218 35.000034 -0.000004
v 15.388206 36.077271 -0.000004
v 16.653084 34.342407 1.886599
v 14.966071 35.419647 1.886599
v 15.633953 32.754757 2.668056
v 13.946941 33.831993 2.668055
v 14.614825 31.167110 1.886599
v 12.927815 32.244350 1.886599
v 14.192687 30.509480 -0.000004
v 12.505677 31.586721 -0.000004
v 14.614826 31.167110 -1.886606
v 12.927815 32.244350 -1.886606
v 15.633955 32.754761 -2.668062
v 13.946944 33.832001 -2.668062
v 13.491993 34.122505 -1.471744
v 14.054156 34.998272 -1.040681
v 15.247239 35.240108 -1.886606
v 15.669375 35.897728 -0.000004
v 15.247239 35.240108 1.886599
v 14.228109 33.652454 2.668055
v 13.208983 32.064808 1.886599
v 12.786844 31.407183 -0.000004
v 13.208983 32.064808 -1.886606
v 14.228115 33.652466 -2.668062
v 15.352787 32.934299 -2.668062
v 16.371916 34.521950 -1.886606
v 16.794050 35.179577 -0.000004
v 16.371916 34.521950 1.886599
v 15.352785 32.934296 2.668056
v 14.333657 31.346651 1.886599
v 13.911517 30.689022 -0.000004
v 14.333657 31.346651 -1.886606
v 9.164035 25.686110 -6.628118
v 7.467030 31.113174 -6.511556
v 8.755631 25.623684 -9.667532
v 7.058626 31.050747 -9.550970
v 10.222520 26.832418 -6.793889
v 8.756641 31.520327 -6.693202
v 9.814116 26.769995 -9.833303
v 8.348239 31.457903 -9.732616
v 8.161677 31.333902 -6.675461
v 6.966568 34.662083 -6.974357
v 7.801970 31.233450 -7.235182
v 8.442584 31.434696 -7.278537
vn -0.2285 -0.9707 -0.0746
vn 0.5718 -0.3704 0.7321
vn -0.4392 0.1092 -0.8917
vn 0.1501 0.4310 0.8898
vn -0.0043 -0.7008 0.7133
vn 0.0405 -0.3783 -0.9248
vn 0.0211 -0.2591 -0.9656
vn 0.0405 -0.3782 -0.9248
vn -0.4476 -0.5401 0.7126
vn 0.4384 -0.4020 0.8039
vn 0.0737 0.3721 0.9253
vn 0.5710 0.2690 0.7756
vn -0.1789 -0.3305 0.9267
vn -0.9614 -0.2729 -0.0348
vn -0.8534 0.4468 -0.2685
vn -0.2345 -0.6526 -0.7205
vn 0.4608 -0.4401 0.7707
vn 0.0890 0.3352 0.9379
vn -0.4653 0.0712 0.8823
vn -0.1611 -0.8846 -0.4375
vn 0.3641 -0.7985 -0.4795
vn -0.1222 -0.7181 -0.6851
vn -0.0126 -0.3821 -0.9240
vn 0.3545 0.5178 0.7786
vn -0.0000 -1.0000 -0.0000
vn -0.9519 -0.3026 0.0482
vn -0.9021 -0.1644 0.3989
vn 0.9991 -0.0412 -0.0000
vn 0.9542 -0.0394 0.2965
vn 0.9739 0.1417 -0.1771
vn 0.5074 0.8105 -0.2925
vn 0.9296 0.2097 0.3031
vn -0.3190 -0.4736 0.8209
vn -0.0711 -0.9975 -0.0004
vn -0.0711 -0.9975 -0.0000
vn 0.4722 0.8815 -0.0000
vn 0.4722 0.8815 0.0042
vn 0.9324 -0.0914 -0.3496
vn 0.1659 0.7870 0.5943
vn -0.1977 0.2429 0.9497
vn -0.9913 -0.1032 -0.0813
vn -0.5039 0.8509 0.1488
vn -0.9632 -0.2067 -0.1718
vn -0.3961 -0.5468 0.7377
vn -0.4166 -0.4023 -0.8152
vn -0.2221 0.0906 0.9708
vn 0.0044 0.8644 0.5028
vn 0.0192 -0.3920 0.9198
vn 0.0079 -0.4409 0.8975
vn 0.9290 -0.1427 0.3415
vn 0.9181 -0.1202 -0.3777
vn -0.2039 0.3656 -0.9082
vn -0.0711 -0.9975 0.0004
vn -0.3190 -0.4736 -0.8209
vn -0.1914 -0.1937 0.9622
vn -0.1632 -0.1390 0.9767
vn -0.5545 -0.2305 0.7996
vn -0.6642 -0.1455 -0.7333
vn -0.0470 0.0940 0.9945
vn 0.2103 -0.0885 0.9736
vn 0.3019 -0.1164 -0.9462
vn -0.0996 0.0679 -0.9927
vn 0.1093 0.2671 -0.9574
vn 0.0715 0.1756 0.9819
vn -0.0689 0.1247 -0.9898
vn -0.3890 0.9212 -0.0000
vn -0.3860 0.9143 0.1228
vn 0.4545 -0.6306 0.6291
vn -0.7236 -0.6861 -0.0754
vn -0.1057 -0.5277 0.8428
vn 0.9492 -0.2830 0.1375
vn 0.8985 0.4364 -0.0472
vn -0.0000 0.7866 -0.6175
vn 0.9187 0.3949 -0.0081
vn -0.9244 0.2151 0.3151
vn -0.5538 0.1253 -0.8232
vn 0.3298 0.9409 0.0772
vn -0.2274 -0.0318 0.9733
vn -0.5538 0.1253 0.8232
vn 0.7133 0.7008 -0.0000
vn 0.7133 0.7008 0.0063
vn 0.8343 0.4672 0.2927
vn -0.2792 0.2118 -0.9366
vn 0.1270 -0.1558 -0.9796
vn -0.9244 0.2151 -0.3151
vn -0.4030 0.6677 -0.6259
vn 0.0192 -0.3920 -0.9198
vn 0.0258 -0.3627 -0.9315
vn 0.8710 -0.3672 0.3264
vn 0.9208 -0.3698 0.1238
vn 0.4814 0.0281 -0.8760
vn 0.1886 0.0657 0.9799
vn -0.2792 0.2118 0.9366
vn 0.9234 -0.2095 0.3217
vn -0.7562 0.6449 -0.1105
vn -0.0520 0.0452 -0.9976
vn 0.8365 0.5479 -0.0074
vn -0.9941 -0.1086 -0.0000
vn -0.9941 -0.1086 -0.0059
vn 0.3315 -0.1471 -0.9319
vn 0.5718 -0.3704 -0.7321
vn -0.4392 0.1092 0.8917
vn 0.8866 0.4289 0.1734
vn -0.0043 -0.7008 -0.7133
vn 0.9296 0.3163 -0.1891
vn -0.4476 -0.5401 -0.7126
vn 0.4384 -0.4020 -0.8039
vn 0.0737 0.3721 -0.9253
vn 0.5710 0.2690 -0.7756
vn -0.1789 -0.3305 -0.9267
vn -0.1914 -0.1937 -0.9622
vn -0.8534 0.4468 0.2685
vn -0.2345 -0.6526 0.7205
vn 0.4608 -0.4401 -0.7707
vn 0.0890 0.3352 -0.9379
vn -0.4653 0.0712 -0.8823
vn -0.1611 -0.8846 0.4375
vn 0.3641 -0.7985 0.4795
vn 0.1494 0.3216 0.9350
vn -0.2000 0.5981 0.7761
vn 0.6918 -0.2253 0.6861
vn 0.9739 0.1418 0.1771
vn 0.5074 0.8105 0.2925
vn 0.9296 0.2097 -0.3031
vn -0.7466 -0.6622 -0.0640
vn 0.9324 -0.0914 0.3496
vn 0.7133 0.7008 -0.0063
vn -0.1977 0.2429 -0.9497
vn -0.9913 -0.1032 0.0813
vn -0.5039 0.8509 -0.1488
vn -0.9632 -0.2067 0.1718
vn -0.3961 -0.5468 -0.7377
vn -0.4166 -0.4023 0.8152
vn -0.2221 0.0906 -0.9708
vn 0.0044 0.8644 -0.5028
vn 0.0079 -0.4409 -0.8975
vn -0.2000 0.5981 -0.7761
vn 0.9181 -0.1202 0.3777
vn -0.2039 0.3656 0.9082
vn 0.4403 -0.0317 0.8973
vn -0.2285 -0.9707 0.0746
vn 0.3534 -0.0883 -0.9313
vn -0.6642 -0.1455 0.7333
vn -0.3159 0.3232 -0.8920
vn 0.2103 -0.0885 -0.9736
vn 0.3019 -0.1164 0.9462
vn -0.0996 0.0679 0.9927
vn 0.1093 0.2671 0.9574
vn 0.0715 0.1756 -0.9819
vn -0.0689 0.1247 0.9898
vn -0.2274 -0.0318 -0.9733
vn -0.1204 -0.2048 0.9714
vn -0.0648 0.1601 0.9850
vn -0.5044 0.1058 -0.8570
vn -0.9759 0.2179 -0.0058
vn 0.9187 0.3949 0.0081
vn -0.0000 0.7866 0.6175
vn 0.8985 0.4364 0.0472
vn -0.9472 -0.2855 0.1460
vn 0.1883 -0.5138 -0.8370
vn -0.7655 -0.6349 0.1044
vn -0.6954 -0.0073 0.7186
vn -0.0306 -0.9995 -0.0039
vn -0.0306 -0.9995 -0.0000
vn 0.9234 -0.2095 -0.3217
vn 0.2527 0.5933 -0.7643
vn -0.3860 0.9143 -0.1228
vn 0.0472 -0.0539 0.9974
vn 0.2720 0.7359 -0.6200
vn 0.0249 -0.0538 0.9982
vn 0.5298 0.6359 -0.5612
vn -0.1548 0.4133 -0.8973
vn 0.3315 -0.1471 0.9319
vn -0.1069 0.6138 0.7822
vn 0.9424 0.2970 -0.1540
vn -0.8719 -0.4526 -0.1869
vn -0.1947 0.9809 0.0032
vn 0.3535 -0.2296 -0.9068
vn -0.0470 0.0940 -0.9945
vn 0.8365 0.5479 0.0074
vn -0.9941 -0.1086 0.0059
vn -0.3159 0.3232 0.8920
vn -0.0295 -0.8534 0.5204
vn 0.7314 0.6820 -0.0053
vn -0.9475 0.2940 -0.1254
vn 0.0542 0.9455 -0.3209
vn 0.3207 0.1604 -0.9335
vn 0.0226 -0.9175 -0.3972
vn 0.1991 0.9578 -0.2073
vn 0.4743 -0.8690 -0.1409
vn 0.4814 0.0281 0.8760
vn -0.0971 0.9909 -0.0933
vn -0.2010 0.1212 -0.9721
vn 0.1036 0.9414 -0.3208
vn -0.1193 0.2597 -0.9583
vn -0.2134 -0.9685 -0.1281
vn -0.4030 0.6677 0.6259
vn 0.5298 0.6359 0.5612
vn -0.0648 0.1601 -0.9850
vn -0.7043 0.6660 0.2456
vn -0.1548 -0.3990 -0.9038
vn 0.9823 -0.0000 0.1875
vn -0.1111 0.6104 0.7842
vn 0.1746 0.6087 0.7740
vn 0.0405 -0.3783 0.9248
vn 0.0405 -0.3782 0.9248
vn 0.0211 -0.2591 0.9656
vn -0.1548 -0.3990 0.9038
vn 0.5612 -0.4313 0.7064
vn 0.0509 -0.4409 0.8961
vn -0.3058 0.2002 -0.9308
vn -0.0447 0.9382 0.3433
vn 0.7253 0.1537 0.6711
vn 0.2615 0.9651 0.0148
vn -0.1149 0.9933 0.0099
vn -0.6282 0.7745 0.0743
vn -0.2667 -0.9637 0.0136
vn 0.3817 0.8205 0.4255
vn -0.0295 -0.8534 -0.5204
vn 0.3298 0.9409 -0.0772
vn 0.0430 0.0470 -0.9980
vn 0.0542 0.9455 0.3209
vn 0.3207 0.1604 0.9335
vn 0.0226 -0.9175 0.3972
vn 0.1991 0.9578 0.2073
vn 0.4743 -0.8690 0.1409
vn 0.2933 -0.9334 -0.2068
vn -0.0971 0.9909 0.0933
vn -0.2010 0.1212 0.9721
vn 0.1036 0.9414 0.3208
vn -0.1193 0.2597 0.9583
vn -0.2134 -0.9685 0.1281
vn 0.9296 0.3163 0.1891
vn -0.1128 -0.1895 -0.9754
vn 0.8413 -0.5275 -0.1179
vn 0.8976 -0.2081 -0.3886
vn 0.6918 -0.2253 -0.6861
vn 0.6561 -0.1711 0.7351
vn -0.5933 0.7752 -0.2170
vn 0.0015 0.9691 -0.2466
vn 0.0156 -0.2371 -0.9714
vn 0.0102 -0.1856 -0.9826
vn 0.1501 0.4310 -0.8898
vn -0.9790 -0.0997 0.1777
vn 0.9716 0.2342 -0.0330
vn -0.2169 0.9527 0.2130
vn -0.4559 -0.7541 -0.4728
vn 0.0745 0.1720 -0.9823
vn 0.7304 -0.1408 -0.6683
vn 0.2615 0.9651 -0.0148
vn -0.1149 0.9933 -0.0099
vn -0.9499 -0.3062 0.0625
vn -0.2667 -0.9637 -0.0136
vn -0.4559 -0.7541 0.4728
vn 0.0026 -1.0000 -0.0020
vn -0.0265 -0.8028 0.5956
vn -0.1138 -0.3696 0.9222
vn 0.9542 -0.0394 -0.2965
vn -0.2456 -0.2545 0.9354
vn 0.0258 -0.3627 0.9315
vn -0.9790 -0.0997 -0.1777
vn -0.8630 0.4616 0.2055
vn -0.3058 0.2002 0.9308
vn 0.9318 0.0472 0.3599
vn 0.9630 0.2238 0.1502
vn 0.5612 -0.4313 -0.7064
vn 0.2720 0.7359 0.6200
vn -0.5933 0.7752 0.2170
vn 0.0745 0.1720 0.9823
vn 0.3545 0.5178 -0.7786
vn -0.2456 -0.2545 -0.9354
vn -0.9743 -0.1638 0.1544
vn 0.9823 -0.0000 -0.1875
vn -0.9472 -0.2855 -0.1460
vn 0.5582 -0.2143 -0.8016
vn 0.9652 0.1662 0.2019
vn -0.5289 0.7750 -0.3459
vn 0.1209 0.9925 -0.0197
vn 0.1912 -0.0343 0.9809
vn 0.2210 -0.0723 0.9726
vn 0.9434 -0.0936 0.3181
vn 0.2933 -0.9334 0.2068
vn 0.0156 -0.2371 0.9714
vn 0.0102 -0.1856 0.9826
vn -0.4363 -0.1473 0.8877
vn 0.0804 0.0365 0.9961
vn 0.3240 -0.7134 -0.6214
vn 0.5783 0.0902 -0.8108
vn -0.9559 -0.2644 0.1280
vn -0.1057 -0.5277 -0.8428
vn 0.1868 -0.0287 -0.9820
vn 0.1912 -0.0343 -0.9809
vn -0.9759 0.2179 0.0058
vn -0.1632 -0.1390 -0.9767
vn -0.1947 0.9809 -0.0032
vn -0.7655 -0.6349 -0.1044
vn 0.4545 -0.6306 -0.6291
vn 0.0015 0.9691 0.2466
vn -0.0059 -0.1328 -0.9911
vn 0.0923 0.9932 -0.0711
vn -0.6282 0.7745 -0.0743
vn 0.2058 0.1247 -0.9706
vn -0.5343 -0.2622 0.8036
vn -0.9828 0.1044 -0.1525
vn 0.1883 -0.5138 0.8370
vn 0.2347 0.0138 0.9720
vn 0.1848 0.0651 0.9806
vn 0.5789 -0.3326 0.7445
vn -0.2638 -0.2542 -0.9305
vn 0.1599 -0.7244 0.6706
vn -0.9559 -0.2644 -0.1280
vn 0.8259 0.3014 0.4765
vn 0.0472 -0.0539 -0.9974
vn 0.9290 -0.1427 -0.3415
vn 0.9309 0.3559 -0.0821
vn 0.8413 -0.5275 0.1179
vn 0.9208 -0.3698 -0.1238
vn -0.9730 -0.1629 -0.1632
vn 0.9825 -0.1286 0.1348
vn 0.9835 -0.1175 0.1377
vn 0.9825 -0.1286 -0.1348
vn 0.9835 -0.1175 -0.1377
vn 0.2493 0.1183 0.9612
vn -0.5795 -0.1273 -0.8049
vn 0.9569 0.0673 -0.2825
vn -0.8855 -0.4512 0.1113
vn 0.7191 0.6496 -0.2468
vn 0.2527 0.5933 0.7643
vn 0.5360 -0.4508 -0.7138
vn -0.4778 -0.0639 -0.8761
vn 0.0357 -0.4289 0.9026
vn 0.5789 -0.3326 -0.7445
vn 0.9309 0.3559 0.0821
vn 0.4007 -0.8851 -0.2367
vn -0.3689 0.9101 0.1885
vn 0.9380 0.1777 -0.2977
vn -0.9436 -0.2776 -0.1801
vn -0.3906 0.8925 -0.2258
vn 0.1476 -0.4201 -0.8954
vn 0.3064 -0.7395 0.5995
vn -0.3436 0.9205 0.1862
vn 0.0129 0.7346 0.6784
vn 0.5336 0.6687 0.5179
vn -0.1111 0.6104 -0.7842
vn 0.0341 -0.3606 0.9321
vn 0.1821 0.9612 0.2072
vn -0.7095 0.1036 0.6971
vn 0.7626 0.4505 -0.4642
vn 0.1868 -0.0287 0.9820
vn 0.9700 -0.1227 0.2101
vn -0.8719 -0.4526 0.1869
vn -0.6236 0.1715 0.7627
vn 0.7879 0.0855 0.6098
vn -0.0098 -0.9883 0.1520
vn 0.0669 0.9937 0.0903
vn 0.0511 0.9765 0.2096
vn -0.2393 0.5312 -0.8127
vn 0.9700 -0.1227 -0.2101
vn -0.1290 0.0899 -0.9876
vn -0.9948 -0.0977 0.0272
vn -0.3341 0.5954 -0.7307
vn 0.1265 0.5252 -0.8416
vn -0.5753 -0.3430 -0.7425
vn 0.9382 0.3224 -0.1256
vn -0.1748 0.0207 0.9844
vn -0.7267 0.0746 -0.6829
vn 0.2219 -0.5224 -0.8233
vn -0.4515 -0.3184 -0.8335
vn 0.3312 0.2611 -0.9067
vn -0.2113 0.4117 -0.8865
vn 0.0189 0.0890 -0.9959
vn 0.1728 -0.4610 -0.8704
vn -0.6272 -0.5090 -0.5895
vn 0.3921 -0.1140 -0.9128
vn 0.0030 -0.8644 0.5028
vn -0.3928 0.3678 0.8428
vn -0.3505 0.3733 0.8590
vn -0.6160 0.6121 -0.4958
vn -0.9292 0.3490 -0.1217
vn 0.8343 0.4672 -0.2927
vn 0.1494 0.3216 -0.9350
vn 0.4997 -0.0676 0.8636
vn 0.5783 0.0902 0.8108
vn 0.8880 0.1355 0.4393
vn 0.9424 0.2970 0.1540
vn 0.1746 0.6087 -0.7740
vn -0.9274 0.0472 0.3710
vn 0.7304 -0.1408 0.6683
vn -0.1128 -0.1895 0.9754
vn -0.9499 -0.3062 -0.0625
vn 0.8976 -0.2081 0.3886
vn 0.2347 0.0138 -0.9720
vn 0.1848 0.0651 -0.9806
vn -0.0306 -0.9995 0.0039
vn -0.5044 0.1058 0.8570
vn -0.5343 -0.2622 -0.8036
vn 0.2513 0.9300 0.2682
vn -0.8855 -0.4512 -0.1113
vn 0.3534 -0.0883 0.9313
vn -0.0447 0.9382 -0.3433
vn 0.1209 0.9925 0.0197
vn -0.5289 0.7750 0.3459
vn 0.0249 -0.0538 -0.9982
vn -0.5545 -0.2305 -0.7996
vn 0.3817 0.8205 -0.4255
vn 0.9738 0.0564 0.2201
vn -0.6954 -0.0073 -0.7186
vn -0.7562 0.6449 0.1105
vn -0.9614 -0.2729 0.0348
vn -0.9131 -0.4047 0.0492
vn 0.8710 -0.3672 -0.3264
vn 0.0357 -0.4289 -0.9026
vn 0.9434 -0.0936 -0.3181
vn -0.0059 -0.1328 0.9911
vn 0.4722 0.8815 -0.0042
vn 0.9492 -0.2830 -0.1375
vn 0.0430 0.0470 0.9980
vn 0.1886 0.0657 -0.9799
vn 0.0030 -0.8644 -0.5028
vn 0.0059 0.1219 -0.9925
vn 0.6561 -0.1711 -0.7351
vn -0.9274 0.0472 -0.3710
vn 0.2058 0.1247 0.9706
vn -0.7043 0.6660 -0.2456
vn 0.9838 -0.1136 0.1387
vn 0.1841 0.1892 -0.9645
vn -0.9743 -0.1638 -0.1544
vn 0.9652 0.1662 -0.2019
vn 0.7314 0.6820 0.0053
vn -0.1466 0.4398 0.8860
vn -0.7802 0.6125 0.1268
vn 0.2210 -0.0723 -0.9726
vn -0.9475 0.2940 0.1254
vn 0.3240 -0.7134 0.6214
vn -0.7236 -0.6861 0.0754
vn -0.1204 -0.2048 -0.9714
vn -0.3906 0.8925 0.2258
vn 0.8866 0.4289 -0.1734
vn 0.9716 0.2342 0.0330
vn 0.0804 0.0365 -0.9961
vn 0.2493 0.1183 -0.9612
vn -0.5795 -0.1273 0.8049
vn 0.9569 0.0673 0.2825
vn 0.8259 0.3014 -0.4765
vn 0.7191 0.6496 0.2468
vn 0.9738 0.0564 -0.2201
vn 0.5360 -0.4508 0.7138
vn -0.4778 -0.0639 0.8761
vn 0.0026 -1.0000 0.0020
vn 0.8895 0.3119 0.3339
vn 0.1084 0.1489 0.9829
vn 0.4007 -0.8851 0.2367
vn -0.3689 0.9101 -0.1885
vn 0.9380 0.1777 0.2977
vn -0.9436 -0.2776 0.1801
vn 0.5160 -0.0139 0.8565
vn 0.1476 -0.4201 0.8954
vn 0.3064 -0.7395 -0.5995
vn -0.3436 0.9205 -0.1862
vn 0.0129 0.7346 -0.6784
vn 0.5336 0.6687 -0.5179
vn -0.4363 -0.1473 -0.8877
vn 0.6261 0.1777 0.7592
vn 0.8895 0.3119 -0.3339
vn 0.9838 -0.1136 -0.1387
vn 0.1534 0.0967 -0.9834
vn -0.7095 0.1036 -0.6971
vn 0.1599 -0.7244 -0.6706
vn -0.1069 0.6138 -0.7822
vn 0.9630 0.2238 -0.1502
vn 0.1534 0.0967 0.9834
vn 0.5160 -0.0139 -0.8565
vn 0.7879 0.0855 -0.6098
vn -0.0098 -0.9883 -0.1520
vn 0.0669 0.9937 -0.0903
vn 0.0511 0.9765 -0.2096
vn -0.2393 0.5312 0.8127
vn -0.8630 0.4616 -0.2055
vn -0.1290 0.0899 0.9876
vn -0.9948 -0.0977 -0.0272
vn -0.3341 0.5954 0.7307
vn 0.1265 0.5252 0.8416
vn -0.5753 -0.3430 0.7425
vn 0.9382 0.3224 0.1256
vn -0.1748 0.0207 -0.9844
vn -0.7267 0.0746 0.6829
vn 0.2219 -0.5224 0.8233
vn -0.4515 -0.3184 0.8335
vn 0.3312 0.2611 0.9067
vn -0.2113 0.4117 0.8865
vn 0.0189 0.0890 0.9959
vn 0.1728 -0.4610 0.8704
vn -0.6272 -0.5090 0.5895
vn 0.3921 -0.1140 0.9128
vn 0.0923 0.9932 0.0711
vn -0.6160 0.6121 0.4958
vn -0.9292 0.3490 0.1217
vn -0.9828 0.1044 0.1525
vn -0.0000 1.0000 -0.0000
vn -0.4482 0.8938 -0.0169
vn -0.9519 -0.3026 -0.0482
vn -0.9131 -0.4047 -0.0492
vn -0.9990 -0.0238 0.0383
vn -0.7466 -0.6622 0.0640
vn -0.4482 0.8938 0.0169
vn -0.5071 -0.0604 -0.8598
vn 0.7253 0.1537 -0.6711
vn -0.9990 -0.0238 -0.0383
vn -0.3928 0.3678 -0.8428
vn -0.3505 0.3733 -0.8590
vn -0.9105 -0.3991 0.1083
vn 0.5980 -0.0470 -0.8001
vn 0.5460 0.2411 -0.8023
vn 0.9681 -0.2227 -0.1151
vn 0.7578 0.6494 -0.0643
vn -0.9960 -0.0296 0.0845
vn -0.0520 0.0452 0.9976
vn 0.8880 0.1355 -0.4393
vn -0.9105 -0.3991 -0.1083
vn 0.5980 -0.0470 0.8001
vn 0.5460 0.2411 0.8023
vn 0.9681 -0.2227 0.1151
vn 0.7578 0.6494 0.0643
vn -0.9960 -0.0296 -0.0845
vn -0.9730 -0.1629 0.1632
vn -0.9021 -0.1644 -0.3989
vn 0.5582 -0.2143 0.8016
vn 0.7957 0.5887 -0.1422
vn -0.1570 0.9663 0.2038
vn 0.7957 0.5887 0.1422
vn 0.0341 -0.3606 -0.9321
vn -0.6352 0.1967 0.7468
vn 0.3535 -0.2296 0.9068
vn 0.1424 0.4355 -0.8889
vn 0.1424 0.4355 0.8889
vn -0.1537 0.7918 -0.5911
vn 0.7626 0.4505 0.4642
vn -0.6352 0.1967 -0.7468
vn -0.5071 -0.0604 0.8598
vn -0.1232 0.1524 0.9806
vn -0.1232 0.1524 -0.9806
vn 0.4880 -0.0755 0.8696
vn -0.3984 -0.2088 -0.8931
vn 0.1270 -0.1558 0.9796
vn -0.1509 -0.1516 -0.9769
vn 0.3743 -0.2205 -0.9007
vn -0.7048 0.6630 0.2525
vn -0.2169 0.9527 -0.2130
vn 0.6594 0.6261 0.4162
vn 0.2513 0.9300 -0.2682
vn 0.1052 -0.5679 0.8164
vn -0.0062 -0.4302 0.9027
vn -0.0642 -0.3909 0.9182
vn 0.1530 -0.4513 0.8792
vn -0.1493 -0.4467 0.8821
vn 0.0704 -0.3929 0.9169
vn 0.0109 -0.4305 0.9025
vn -0.1062 -0.5647 0.8185
vn -0.2188 -0.7665 0.6038
vn -0.1917 -0.8809 0.4326
vn -0.2195 -0.8434 0.4904
vn -0.1984 -0.8550 0.4792
vn 0.1771 -0.8512 0.4941
vn 0.2218 -0.8243 0.5208
vn 0.1735 -0.8865 0.4291
vn 0.2073 -0.7729 0.5997
vn -0.1570 0.9663 -0.2038
vn -0.7802 0.6125 -0.1268
vn 0.1821 0.9612 -0.2072
vn 0.4997 -0.0676 -0.8636
vn -0.7576 0.4735 -0.4492
vn 0.0509 -0.4409 -0.8961
vn 0.1659 0.7870 -0.5943
vn -0.1466 0.4398 -0.8860
vn -0.2638 -0.2542 0.9305
vn -0.1537 0.7918 0.5911
vn -0.7576 0.4735 0.4492
vn 0.6261 0.1777 -0.7592
vn 0.4880 -0.0755 -0.8696
vn 0.4403 -0.0317 -0.8973
vn 0.1084 0.1489 -0.9829
vn 0.1841 0.1892 0.9645
vn -0.3984 -0.2088 0.8931
vn -0.6236 0.1715 -0.7627
vn -0.1509 -0.1516 0.9769
vn 0.3743 -0.2205 0.9007
vn -0.7048 0.6630 -0.2525
vn -0.1548 0.4133 0.8973
vn 0.6594 0.6261 -0.4162
vn 0.9318 0.0472 -0.3599
vn 0.1052 -0.5679 -0.8164
vn -0.0062 -0.4302 -0.9027
vn -0.0642 -0.3909 -0.9182
vn 0.1530 -0.4513 -0.8792
vn -0.1493 -0.4467 -0.8821
vn 0.0704 -0.3929 -0.9169
vn 0.0109 -0.4305 -0.9025
vn -0.1062 -0.5647 -0.8185
vn -0.2188 -0.7665 -0.6038
vn -0.1917 -0.8809 -0.4326
vn -0.2195 -0.8434 -0.4904
vn -0.1984 -0.8550 -0.4792
vn 0.1771 -0.8512 -0.4941
vn 0.2218 -0.8243 -0.5208
vn 0.1735 -0.8865 -0.4291
vn 0.2073 -0.7729 -0.5997
vn 0.0059 0.1219 0.9925
vn 0.4972 0.7787 0.3827
vn 0.2060 0.3225 -0.9239
vn -0.4972 -0.7787 -0.3827
vn -0.2060 -0.3225 0.9239
vn 0.2060 0.3225 0.9239
vn 0.4972 0.7787 -0.3827
vn -0.2060 -0.3225 -0.9239
vn 0.8415 -0.5402 -0.0000
vn -0.4972 -0.7787 0.3827
vn -0.9752 0.1438 -0.1681
vn -0.8469 0.3440 0.4056
vn -0.5375 0.8264 -0.1678
vn -0.9752 0.1438 0.1681
vn -0.6656 0.6267 -0.4053
vn -0.5375 0.8264 0.1678
vn -0.6656 0.6267 0.4053
vn -0.8469 0.3440 -0.4056
vn -0.1331 -0.0204 -0.9909
vn 0.9451 0.2984 -0.1331
vn 0.1331 0.0204 0.9909
vn 0.7261 -0.6825 -0.0835
vn -0.2984 0.9542 0.0205
vn -0.7975 -0.2365 0.5550
vn -0.0846 0.0551 -0.9949
vn 0.8303 0.3379 0.4432
vt 0.304688 0.230469
vt 0.210938 0.136719
vt 0.289062 0.058594
vt 0.378906 0.148438
vt 0.759766 0.718750
vt 0.705736 0.706466
vt 0.705736 0.679688
vt 0.847656 0.464844
vt 0.917969 0.437500
vt 0.816406 0.425781
vt 0.514987 0.843750
vt 0.503268 0.937500
vt 0.444675 0.941406
vt 0.440768 0.859375
vt 0.234375 0.214844
vt 0.333047 0.664062
vt 0.317422 0.714844
vt 0.290078 0.714844
vt 0.278360 0.679688
vt 0.960938 0.257812
vt 0.996094 0.105469
vt 0.945312 0.191406
vt 0.945312 0.058594
vt 0.941406 0.105469
vt 0.902344 0.109375
vt 0.476562 0.816406
vt 0.683594 0.781250
vt 0.671875 0.695312
vt 0.398438 0.722656
vt 0.859375 0.585938
vt 0.363281 0.078125
vt 0.953125 0.003906
vt 0.863281 0.253906
vt 0.761719 0.550781
vt 0.783896 0.554688
vt 0.802735 0.765625
vt 0.755860 0.761719
vt 0.702019 0.609376
vt 0.761719 0.621095
vt 0.722964 0.585938
vt 0.694331 0.585938
vt 0.027335 0.378906
vt 0.007804 0.328125
vt 0.078116 0.328125
vt 0.129875 0.426269
vt 0.651706 0.718750
vt 0.705736 0.761719
vt 0.655612 0.761719
vt 0.296875 0.433594
vt 0.347656 0.367188
vt 0.242543 0.367188
vt 0.242251 0.433594
vt 0.783896 0.617188
vt 0.816406 0.746095
vt 0.847656 0.707032
vt 0.705736 0.972656
vt 0.581394 0.929688
vt 0.316402 0.406250
vt 0.507812 0.414062
vt 0.417969 0.437500
vt 0.453125 0.468750
vt 0.830078 0.929688
vt 0.783281 0.585938
vt 0.316402 0.496094
vt 0.183585 0.496094
vt 0.214835 0.437500
vt 0.316402 0.437500
vt 0.908204 0.937500
vt 0.912110 0.988281
vt 0.802573 0.208405
vt 0.830900 0.129656
vt 0.897372 0.153887
vt 0.892157 0.227065
vt 0.671875 0.343750
vt 0.699219 0.339844
vt 0.746094 0.375000
vt 0.625000 0.386719
vt 0.687500 0.363281
vt 0.660156 0.386719
vt 0.667969 0.539062
vt 0.601562 0.523438
vt 0.593750 0.484375
vt 0.628906 0.402344
vt 0.644531 0.414062
vt 0.769531 0.355469
vt 0.738281 0.332031
vt 0.140616 0.007812
vt 0.316402 0.007812
vt 0.316402 0.230469
vt 0.933594 0.390625
vt 0.929688 0.328125
vt 0.859375 0.359375
vt 0.652344 0.261719
vt 0.652344 0.324219
vt 0.710938 0.324219
vt 0.734376 0.261719
vt 0.527344 0.261719
vt 0.476562 0.265625
vt 0.476562 0.425781
vt 0.539062 0.398438
vt 0.804688 0.382812
vt 0.804688 0.429688
vt 0.773438 0.429688
vt 0.769531 0.378906
vt 0.914062 0.261719
vt 0.882812 0.324219
vt 0.937500 0.324219
vt 0.339844 0.082031
vt 0.375000 0.062500
vt 0.417969 0.101562
vt 0.390625 0.132812
vt 0.414062 0.628906
vt 0.414062 0.562500
vt 0.464844 0.542969
vt 0.414062 0.820312
vt 0.500000 0.832031
vt 0.519531 0.718750
vt 0.284232 0.124878
vt 0.313795 0.104824
vt 0.355469 0.156250
vt 0.333160 0.176328
vt 0.265625 0.136719
vt 0.316406 0.191406
vt 0.945312 0.378906
vt 0.914062 0.375000
vt 0.917969 0.343750
vt 0.960938 0.347656
vt 0.652344 0.351562
vt 0.765625 0.429688
vt 0.636719 0.421875
vt 0.995982 0.731650
vt 0.890513 0.751181
vt 0.867076 0.622275
vt 0.968639 0.594931
vt 0.437500 0.535156
vt 0.395022 0.573329
vt 0.316402 0.582031
vt 0.316402 0.533136
vt 0.996094 0.722657
vt 0.996094 0.585938
vt 0.917969 0.734376
vt 0.996094 0.449219
vt 0.984375 0.375000
vt 0.609375 0.007812
vt 0.609375 0.136719
vt 0.679688 0.136719
vt 0.679688 0.019531
vt 0.984375 0.796876
vt 0.933594 0.781251
vt 0.929688 0.843751
vt 0.984375 0.843751
vt 0.195304 0.535156
vt 0.800781 0.496094
vt 0.777344 0.523438
vt 0.773438 0.472656
vt 0.804688 0.468750
vt 0.628906 0.371094
vt 0.908355 0.028923
vt 0.878485 0.008495
vt 0.856918 0.057306
vt 0.898679 0.080061
vt 0.283731 0.944913
vt 0.368203 0.867188
vt 0.368203 0.996094
vt 0.227578 0.960938
vt 0.789062 0.421875
vt 0.808594 0.394531
vt 0.503906 0.164062
vt 0.578125 0.250000
vt 0.546875 0.152344
vt 0.683594 0.207031
vt 0.683594 0.257812
vt 0.750000 0.257812
vt 0.750000 0.207031
vt 0.851562 0.003906
vt 0.144531 0.996094
vt 0.308594 0.972656
vt 0.308594 0.902344
vt 0.187500 0.859375
vt 0.824219 0.261719
vt 0.824219 0.324219
vt 0.703126 0.324219
vt 0.703126 0.261719
vt 0.890625 0.757812
vt 0.867188 0.628906
vt 0.710938 0.687500
vt 0.722656 0.777344
vt 0.945312 0.261719
vt 0.996094 0.261719
vt 0.996094 0.324219
vt 0.945312 0.324219
vt 0.828125 0.507812
vt 0.824219 0.527344
vt 0.796875 0.523438
vt 0.896485 0.843750
vt 0.608737 0.765625
vt 0.519531 0.058594
vt 0.589844 0.140625
vt 0.554688 0.054688
vt 0.617188 0.449219
vt 0.714844 0.500000
vt 0.120012 0.714844
vt 0.131730 0.679688
vt 0.174699 0.679688
vt 0.178606 0.734375
vt 0.181632 0.488770
vt 0.237380 0.304688
vt 0.367188 0.304688
vt 0.499362 0.988281
vt 0.449219 0.496094
vt 0.683594 0.027344
vt 0.683594 0.093750
vt 0.966797 0.992188
vt 0.966797 0.941406
vt 0.765626 0.324219
vt 0.364297 0.773438
vt 0.411172 0.789062
vt 0.984375 0.328125
vt 0.429688 0.003906
vt 0.539062 0.003906
vt 0.660156 0.324219
vt 0.472656 0.324219
vt 0.683594 0.171875
vt 0.480469 0.515625
vt 0.480469 0.585938
vt 0.546875 0.585938
vt 0.546875 0.515625
vt 0.237782 0.573329
vt 0.804688 0.339844
vt 0.773438 0.339844
vt 0.773438 0.343750
vt 0.675781 0.292969
vt 0.550781 0.152344
vt 0.132812 0.132812
vt 0.238281 0.097656
vt 0.238281 0.613281
vt 0.085937 0.535156
vt 0.532480 0.484375
vt 0.457217 0.412887
vt 0.441406 0.496094
vt 0.456201 0.416458
vt 0.734375 0.484375
vt 0.605469 0.378906
vt 0.531250 0.484375
vt 0.261631 0.894531
vt 0.227578 0.894531
vt 0.243203 0.843750
vt 0.301797 0.843750
vt 0.484375 0.496094
vt 0.406250 0.523438
vt 0.445312 0.441406
vt 0.593750 0.410156
vt 0.554688 0.328125
vt 0.679688 0.257812
vt 0.625000 0.257812
vt 0.492188 0.007812
vt 0.574219 0.007812
vt 0.625000 0.328125
vt 0.041887 0.867188
vt 0.041887 0.996094
vt -0.001082 0.789062
vt 0.045793 0.773438
vt 0.231484 0.746094
vt 0.231484 0.734375
vt 0.205045 0.894531
vt 0.182512 0.894531
vt 0.166887 0.843750
vt 0.205045 0.843750
vt 0.996094 0.738281
vt 0.968750 0.605469
vt 0.039062 0.960938
vt 0.015625 0.968750
vt 0.000000 0.898438
vt 0.023438 0.890625
vt 0.280982 0.914062
vt 0.205045 0.925781
vt 0.313516 0.722656
vt 0.321328 0.742188
vt 0.290078 0.628906
vt 0.258828 0.644531
vt 0.205045 0.609375
vt 0.411172 0.714844
vt 0.344766 0.851562
vt 0.278360 0.585938
vt 0.126358 0.944913
vt 0.182512 0.960938
vt 0.148458 0.894531
vt 0.108293 0.843750
vt 0.238281 0.605469
vt 0.238281 0.500000
vt 0.152343 0.468750
vt 0.161988 0.592195
vt 0.376016 0.621094
vt 0.875000 0.554688
vt 0.882812 0.539062
vt 0.129108 0.914062
vt 0.065324 0.851562
vt 0.077043 0.664062
vt 0.092668 0.714844
vt 0.131730 0.585938
vt 0.120012 0.628906
vt 0.034074 0.621094
vt 0.151262 0.644531
vt 0.182512 0.644531
vt 0.652344 0.949219
vt 0.656250 0.796875
vt 0.718750 0.796875
vt 0.726562 0.953125
vt 0.093750 0.886719
vt 0.046875 0.808594
vt 0.132812 0.746094
vt 0.648438 0.906250
vt 0.617188 0.906250
vt 0.605469 1.000000
vt 0.632812 1.000000
vt 0.096574 0.722656
vt 0.178606 0.746094
vt 0.205045 0.960938
vt 0.205045 0.996094
vt 0.205045 0.585938
vt 0.605469 0.351562
vt 0.535156 0.386719
vt 0.542969 0.460938
vt 0.000000 0.625000
vt 0.000000 0.550781
vt 0.093750 0.507812
vt 0.117188 0.550781
vt 0.088762 0.742188
vt 0.227578 0.644531
vt 0.205045 0.644531
vt -0.001082 0.714844
vt 0.964844 0.875000
vt 0.773438 0.867188
vt 0.773438 0.957031
vt 0.988281 0.996094
vt 0.205045 0.679688
vt 0.235391 0.679688
vt 0.205045 0.743331
vt 0.046875 1.000000
vt 0.023438 1.000000
vt 0.621094 0.816406
vt 0.589844 0.816406
vt 0.109375 0.710938
vt 0.085938 0.738281
vt 0.195312 0.738281
vt 0.171875 0.710938
vt 0.890625 0.468750
vt 0.875000 0.378906
vt 0.970704 0.859375
vt 0.507812 0.160156
vt 0.578125 0.253906
vt 0.205045 0.746094
vt 0.661468 0.266015
vt 0.765440 0.316791
vt 0.790456 0.246565
vt 0.694657 0.187850
vt 0.039062 0.687500
vt 0.035156 0.656250
vt 0.000000 0.660156
vt 0.003906 0.695312
vt 0.000000 0.472656
vt 0.058594 0.437500
vt 0.636719 0.484375
vt 0.769531 0.472656
vt 0.875000 0.343750
vt 0.702019 0.562500
vt 0.437500 0.062500
vt 0.457031 0.160156
vt 0.472656 0.062500
vt 0.238281 0.324219
vt 0.003906 0.324219
vt 0.031250 0.441406
vt 0.660156 1.000000
vt 0.714844 0.992188
vt 0.171875 0.636719
vt 0.195312 0.613281
vt 0.648438 0.550781
vt 0.640625 0.488281
vt 0.101554 0.484375
vt 0.526107 0.675382
vt 0.548934 0.746330
vt 0.613823 0.723662
vt 0.625064 0.646350
vt 0.238281 0.007812
vt 0.117187 0.003906
vt 0.539062 0.386719
vt 0.929688 0.492188
vt 0.929688 0.468750
vt 0.957031 0.464844
vt 0.972656 0.484375
vt 0.613281 0.355469
vt 0.347656 0.906250
vt 0.347656 0.972656
vt 0.609375 0.351562
vt 0.351562 0.824219
vt 0.992188 0.437500
vt 0.976562 0.437500
vt 0.085938 0.613281
vt 0.703125 0.035156
vt 0.984375 0.132812
vt 0.976562 0.250000
vt 0.621094 0.109375
vt 0.050781 0.941406
vt 0.636719 0.425781
vt 0.621094 0.226562
vt 0.082031 0.855469
vt 0.050781 0.921875
vt 0.007812 0.906250
vt 0.050781 0.843750
vt 0.667857 0.688681
vt 0.706920 0.680868
vt 0.722545 0.766806
vt 0.683482 0.774618
vt 0.527344 0.671875
vt 0.511719 0.585938
vt 0.472656 0.593750
vt 0.488281 0.679688
vt 0.878906 0.550781
vt 0.875000 0.550781
vt 0.886719 0.535156
vt 0.875000 0.507812
vt 0.886719 0.496094
vt 0.890625 0.375000
vt 0.101554 0.481934
vt 0.183585 0.436035
vt 0.186515 0.494141
vt 0.184562 0.444336
vt 0.890625 0.523438
vt 0.347656 0.824219
vt 0.902344 0.464844
vt 0.953125 0.464844
vt 0.535156 0.562500
vt 0.500000 0.515625
vt 0.539062 0.460938
vt 0.597656 0.562500
vt 0.601562 0.460938
vt 0.886719 0.539062
vt 0.632812 0.507812
vt 0.883431 0.261666
vt 0.982567 0.227373
vt 0.976587 0.142809
vt 0.968750 0.796875
vt 0.773438 0.792969
vt 0.996094 0.753906
vt 0.390625 0.535156
vt 0.343750 0.132812
vt 0.402344 0.250000
vt 0.824219 0.011719
vt 0.917969 0.042969
vt 0.390625 0.753906
vt 0.394531 0.722656
vt 0.314574 0.592195
vt 0.414062 0.574219
vt 0.359375 0.003906
vt 0.714844 0.554688
vt 0.796875 0.644531
vt 0.804688 0.613281
vt 0.734375 0.957031
vt 0.734375 0.867188
vt 0.035156 0.746094
vt 0.042969 0.996094
vt 0.000000 0.894531
vt 0.050781 0.894531
vt 0.109375 0.636719
vt 0.308594 0.824219
vt 0.324219 0.468750
vt 0.734375 0.792969
vt 0.039062 0.593750
vt 0.023438 0.636719
vt 0.003906 0.597656
vt 0.027344 0.539062
vt 0.859375 0.812501
vt 0.873438 0.322616
vt 0.444675 0.992188
vt 0.480357 0.805868
vt 0.398326 0.716025
vt 0.308594 0.304688
vt 0.289062 0.257812
vt 0.240033 0.257812
vt 0.237416 0.304688
vt 0.199219 0.628906
vt 0.226562 0.765625
vt 0.328125 0.738281
vt 0.304688 0.609375
vt 0.635743 0.572903
vt 0.509096 0.629488
vt 0.847159 0.097328
vt 0.755453 0.100126
vt 0.779285 0.072391
vt 0.641769 0.107565
vt 0.713779 0.160965
vt 0.612021 0.145791
vt 0.902592 0.117112
vt 0.970008 0.096641
vt 0.074218 0.250000
vt 0.058593 0.437500
vt 0.070312 0.523438
vt 0.046874 0.003906
vt 0.390513 0.747275
vt 0.244710 0.443466
vt 0.784348 0.005095
vt 0.735263 0.009283
vt 0.798935 0.047551
vt 0.003906 0.859375
vt 0.054688 0.539062
vt 0.082031 0.597656
vt 0.062500 0.636719
vt 0.082031 0.906250
vt 0.046875 0.693848
vt 0.058593 0.639160
vt 0.082031 0.697754
vt 0.062499 0.736817
vt 0.003906 0.697754
vt 0.031249 0.639160
vt 0.023437 0.736817
vt 0.964878 0.270652
vt 0.686589 0.042920
vt 0.058585 0.007812
vt 0.963639 0.071487
vt 0.831969 0.004434
vt 0.672483 0.073548
vt 0.704241 0.046685
vt 0.812501 0.169615
vt 0.757742 0.023465
vt 0.812407 0.007724
vt 0.872021 0.007617
vt 0.918783 0.041685
vt 0.951328 0.085267
vt 0.978093 0.134112
vt 0.985500 0.173479
vt 0.971351 0.246417
vt 0.950646 0.281387
vt 0.863810 0.325699
vt 0.761395 0.310407
vt 0.670196 0.263887
vt 0.629892 0.178986
vt 0.636143 0.139401
vt 0.503906 0.082031
vt 0.503906 0.105469
vt 0.500000 0.105469
vt 0.500000 0.082031
vt 0.503906 0.230469
vt 0.503906 0.253906
vt 0.500000 0.253906
vt 0.500000 0.230469
vt 0.503906 0.179688
vt 0.503906 0.203125
vt 0.500000 0.203125
vt 0.500000 0.179688
vt 0.503906 0.128906
vt 0.503906 0.156250
vt 0.500000 0.156250
vt 0.500000 0.128906
vt 0.503906 0.277344
vt 0.500000 0.277344
vt 0.228904 0.673200
vt 0.221661 0.690625
vt 0.204218 0.697825
vt 0.186793 0.690582
vt 0.179593 0.673139
vt 0.186836 0.655714
vt 0.204279 0.648514
vt 0.221704 0.655757
vt 0.988281 0.613281
vt 0.988281 0.578125
vt 1.000000 0.578125
vt 1.000000 0.613281
vt 0.988281 0.472656
vt 0.988281 0.441406
vt 1.000000 0.441406
vt 1.000000 0.472656
vt 0.988281 0.644531
vt 1.000000 0.644531
vt 0.988281 0.542969
vt 1.000000 0.542969
vt 0.988281 0.507812
vt 1.000000 0.507812
vt 0.988281 0.679688
vt 1.000000 0.679688
vt 0.988281 0.714844
vt 1.000000 0.714844
vt 0.980469 0.546875
vt 0.988281 0.546875
vt 0.988281 0.511719
vt 0.980469 0.511719
vt 0.218750 0.039062
vt 0.183594 0.039062
vt 0.183594 0.015625
vt 0.218750 0.015625
vt 0.980469 0.582031
vt 0.988281 0.582031
vt 0.421875 0.039062
vt 0.390625 0.039062
vt 0.390625 0.015625
vt 0.421875 0.015625
vt 0.980469 0.613281
vt 0.320312 0.039062
vt 0.285156 0.039062
vt 0.285156 0.015625
vt 0.320312 0.015625
vt 0.980469 0.648438
vt 0.988281 0.648438
vt 0.457031 0.039062
vt 0.457031 0.015625
vt 0.980469 0.683594
vt 0.988281 0.683594
vt 0.250000 0.039062
vt 0.250000 0.015625
vt 0.980469 0.718750
vt 0.988281 0.718750
vt 0.355469 0.039062
vt 0.355469 0.015625
vt 0.980469 0.476562
vt 0.988281 0.476562
vt 0.980469 0.441406
vt 0.457031 0.113281
vt 0.433594 0.113281
vt 0.433594 0.085938
vt 0.457031 0.085938
vt 0.433594 0.058594
vt 0.457031 0.058594
vt 0.433594 0.277344
vt 0.433594 0.250000
vt 0.457031 0.250000
vt 0.457031 0.277344
vt 0.433594 0.222656
vt 0.457031 0.222656
vt 0.433594 0.195312
vt 0.457031 0.195312
vt 0.433594 0.167969
vt 0.457031 0.167969
vt 0.433594 0.140625
vt 0.457031 0.140625
vt 0.527663 0.309606
vt 0.527663 0.415064
vt 0.502362 0.415064
vt 0.502362 0.323969
vt 0.445485 0.415064
vt 0.445485 0.323969
vt 0.420184 0.415064
vt 0.420184 0.309606
vt 0.502362 0.294875
vt 0.445485 0.294875
vt 0.502362 0.440366
vt 0.445485 0.440366
vt 0.395969 0.284432
vt 0.335273 0.236790
vt 0.401507 0.277920
vt 0.405976 0.270633
vt 0.409268 0.262745
s 1
usemtl UMSMarinesII.Skins.JMarine7
f 201/1/1 215/2/1 203/3/1 204/4/1
f 106/5/2 41/6/2 56/7/2
f 66/8/3 149/9/3 43/10/3
f 297/11/4 301/12/4 321/13/4 296/14/4
f 17/2/5 74/15/5 4/1/5
f 379/16/6 386/17/7 387/18/7 401/19/8
f 6/20/9 67/21/9 124/22/9
f 67/21/10 183/23/10 121/24/10
f 158/25/11 124/22/11 121/24/11
f 121/24/12 183/23/12 158/25/12
f 121/24/13 124/22/13 67/21/13
f 87/30/15 149/9/15 66/8/15
f 7/4/16 67/31/16 6/3/16
f 183/23/17 67/21/17 7/32/17
f 124/22/18 158/25/18 85/33/18
f 124/22/19 85/33/19 6/20/19
f 43/10/20 9/34/20 137/35/20
f 8/36/21 70/37/21 106/5/21
f 247/38/22 207/39/22 68/40/22
f 247/38/23 68/40/23 41/41/23
f 230/42/24 302/43/24 198/44/24 288/45/24
f 291/46/25 41/6/25 197/47/25
f 291/46/25 197/47/25 258/48/25
f 320/53/27 235/54/27 255/55/27 87/30/27
f 47/56/28 299/57/29 258/48/29 197/47/28
f 170/58/30 102/59/30 171/60/30
f 165/61/31 171/60/31 102/59/31
f 114/62/32 70/37/32 8/36/32
f 137/35/33 9/34/33 68/40/33
f 137/35/34 68/40/35 196/63/35
f 195/64/36 346/65/37 350/66/37 193/67/36
f 114/62/38 116/68/38 5/69/38
f 175/74/40 88/75/40 78/76/40
f 147/77/41 176/78/41 76/79/41
f 136/80/42 96/81/42 62/82/42
f 76/79/43 77/83/43 147/77/43
f 76/79/44 176/78/44 78/76/44
f 78/76/45 174/84/45 76/79/45
f 78/76/46 176/78/46 175/74/46
f 162/85/47 88/75/47 139/86/47
f 78/76/48 88/75/49 162/85/48
f 210/87/50 42/88/50 71/89/50 198/44/50
f 5/69/51 47/56/51 114/62/51
f 173/90/52 138/91/52 111/92/52
f 320/53/53 196/63/35 68/40/35
f 320/53/54 68/40/54 207/39/54
f 273/93/55 315/94/55 214/95/55 213/96/55
f 15/105/58 83/106/58 16/107/58
f 324/108/59 231/109/59 237/110/59 323/111/59
f 107/112/60 69/113/60 39/114/60
f 32/114/61 98/113/61 81/112/61
f 81/112/62 33/115/62 34/116/62
f 143/117/63 32/114/63 81/112/63
f 107/112/64 39/114/64 153/117/64
f 34/116/65 143/117/65 81/112/65
f 118/118/66 222/119/67 221/120/67 179/121/66
f 26/122/68 23/123/68 361/111/68 366/108/68
f 101/135/72 3/136/72 181/137/72
f 101/135/73 181/137/73 192/137/73
f 101/135/74 192/137/74 194/138/74
f 208/139/75 168/140/75 87/30/75 331/141/75
f 10/142/76 91/143/76 173/90/76 149/9/76
f 233/144/77 335/145/77 326/146/77 227/147/77
f 277/148/78 352/149/78 321/150/78 300/151/78
f 208/139/79 331/141/79 352/149/79 277/148/79
f 194/138/80 287/152/81 346/65/81 195/64/80
f 316/157/83 329/77/83 355/78/83 354/74/83
f 10/142/85 149/9/85 87/30/85 168/140/85
f 403/162/86 398/163/86 372/164/86 389/165/86
f 265/76/87 278/166/88 248/167/88 343/85/87
f 257/171/90 233/172/90 227/173/90 284/174/90
f 360/23/91 339/25/91 338/175/91 204/32/91
f 132/157/93 175/74/93 176/78/93 147/77/93
f 28/180/94 145/181/94 212/182/94 223/183/94
f 234/116/96 335/117/96 292/112/96 226/115/96
f 193/67/97 170/58/97 171/60/97
f 196/63/98 87/30/98 137/35/99
f 27/188/100 86/189/100 131/190/100 14/191/100
f 291/46/101 247/7/101 41/6/101
f 255/55/102 235/54/102 331/141/102
f 215/2/104 201/1/104 261/15/104
f 116/68/105 114/62/105 8/36/105 112/195/105
f 203/20/106 308/22/106 256/21/106
f 256/21/107 305/24/107 360/23/107
f 339/25/108 305/24/108 308/22/108
f 305/24/109 339/25/109 360/23/109
f 305/24/110 256/21/110 308/22/110
f 86/189/111 15/105/111 16/107/111 131/190/111
f 87/30/112 255/55/112 331/141/112
f 204/4/113 203/3/113 256/31/113
f 360/23/114 204/32/114 256/21/114
f 308/22/115 272/33/115 339/25/115
f 308/22/116 203/20/116 272/33/116
f 235/54/117 320/53/117 207/39/117
f 206/196/118 291/46/118 258/48/118
f 136/80/120 62/82/120 135/200/120 61/201/120
f 424/202/121 437/203/121 434/204/121 432/205/121
f 170/58/122 350/66/122 288/45/122
f 346/206/123 288/45/123 350/66/123
f 299/57/124 206/196/124 258/48/124
f 299/57/126 202/209/126 301/12/126
f 194/138/80 195/64/80 165/210/127 101/135/127
f 354/74/128 265/76/128 274/75/128
f 329/77/129 263/79/129 355/78/129
f 319/80/130 252/82/130 282/81/130
f 263/79/131 329/77/131 264/83/131
f 263/79/132 265/76/132 355/78/132
f 265/76/133 263/79/133 353/84/133
f 265/76/134 354/74/134 355/78/134
f 343/85/135 322/86/135 274/75/135
f 265/76/87 343/85/87 274/75/136
f 319/80/137 251/201/137 318/200/137 252/82/137
f 202/209/138 299/57/138 47/56/138
f 352/90/139 296/92/139 321/91/139
f 157/175/140 120/211/140 159/212/140 158/25/140
f 4/1/141 7/4/141 6/3/141 17/2/141
f 115/213/142 5/69/142 116/68/142 138/214/142
f 213/96/143 214/95/143 270/215/143
f 398/163/144 394/216/144 382/217/144 372/164/144
f 292/112/145 233/114/145 257/113/145
f 227/114/146 268/112/146 284/113/146
f 268/112/147 229/116/147 228/115/147
f 326/117/148 268/112/148 227/114/148
f 292/112/149 335/117/149 233/114/149
f 229/116/150 268/112/150 326/117/150
f 91/143/151 115/218/151 138/91/151 173/90/151
f 159/212/153 60/223/153 85/33/153 158/25/153
f 149/9/154 173/90/154 111/92/154 43/10/154
f 31/224/155 40/225/155 34/226/155 33/227/155
f 287/152/156 194/138/156 192/137/156
f 287/152/157 192/137/157 181/137/157
f 287/152/158 181/137/158 200/228/158
f 189/108/160 37/109/160 45/110/160 184/111/160
f 28/180/165 27/188/165 14/191/165 145/181/165
f 166/238/166 167/239/166 101/240/166 165/241/166
f 118/118/66 179/121/66 24/120/167 25/119/167
f 174/84/168 156/242/168 61/201/168 135/200/168
f 165/61/169 102/59/169 36/243/169 166/244/169
f 78/76/170 92/166/170 156/242/170 174/84/170
f 396/245/171 390/246/171 384/247/171 371/248/171
f 25/119/172 24/120/172 140/111/172 141/108/172
f 223/183/173 212/182/173 315/94/173 273/93/173
f 102/59/175 170/58/175 71/89/175 1/253/175
f 15/105/176 155/180/176 35/181/176 83/106/176
f 34/254/177 40/255/177 153/145/177 143/146/177
f 12/256/178 105/257/178 117/258/178 1/253/178
f 141/108/179 140/111/179 45/110/179 37/109/179
f 193/67/180 350/66/180 170/58/180
f 196/63/98 320/53/181 87/30/98
f 435/259/182 413/260/182 420/261/182 431/262/182
f 385/263/183 395/264/183 387/18/183
f 400/265/184 427/266/184 421/267/184 383/268/184
f 380/271/25 379/272/25 375/273/25
f 375/273/25 369/274/25 380/271/25
f 396/245/186 393/275/186 402/276/186
f 371/248/187 391/277/187 373/278/187
f 399/279/188 392/280/188 377/281/188
f 390/246/189 396/245/189 402/276/189
f 387/18/190 391/277/190 385/263/190
f 183/23/191 7/32/191 157/175/191 158/25/191
f 403/162/192 389/165/192 402/276/192
f 369/282/193 382/217/193 394/216/193
f 393/275/194 403/162/194 402/276/194
f 394/216/195 398/163/195 381/283/195
f 378/284/196 399/279/196 377/281/196
f 438/285/197 426/286/197 413/260/197 435/259/197
f 433/287/198 412/288/198 421/267/198 427/266/198
f 340/212/199 339/25/199 272/33/199 205/223/199
f 378/284/201 375/293/201 379/16/201 399/279/201
f 430/296/203 438/285/203 435/259/203 419/297/203
f 430/296/204 419/297/204 412/288/204 433/287/204
f 417/298/205 437/203/206 424/202/207 423/299/207
f 416/300/208 436/301/208 417/298/208 415/302/208
f 434/204/209 437/203/209 429/303/209 425/304/209
f 436/301/210 429/303/210 437/203/206 417/298/205
f 421/267/213 412/288/213 428/316/213 422/317/213
f 402/276/214 400/265/214 390/246/214
f 389/165/215 405/318/215 402/276/215
f 426/286/216 405/318/216 404/319/216 413/260/216
f 377/281/217 407/320/217 378/284/217
f 422/317/219 424/202/219 432/205/219
f 39/144/220 32/147/220 143/146/220 153/145/220
f 369/324/221 394/325/221 373/326/221 380/327/221
f 418/271/25 415/273/25 417/272/25
f 415/273/25 418/271/25 411/274/25
f 433/287/222 402/276/222 430/296/222
f 412/288/223 414/328/223 428/316/223
f 436/301/224 377/281/224 429/303/224
f 427/266/225 402/276/225 433/287/225
f 424/202/226 422/317/226 428/316/226
f 377/281/227 392/280/227 388/329/227 370/330/227
f 438/285/228 402/276/228 426/286/228
f 411/331/229 431/262/229 420/261/229
f 430/296/230 402/276/230 438/285/230
f 431/262/231 419/297/231 435/259/231
f 416/300/232 377/281/232 436/301/232
f 301/12/233 297/11/233 206/196/233 299/57/233
f 374/336/235 370/330/235 388/329/235 397/337/235
f 397/337/236 395/264/236 439/338/236 374/336/236
f 387/18/237 395/264/237 397/337/237 401/19/237
f 373/339/238 386/340/238 379/272/238 380/271/238
f 112/195/243 111/349/243 138/214/243 116/68/243
f 383/268/245 376/352/245 385/263/245 384/247/245
f 387/357/247 386/358/247 373/359/247 391/360/247
f 373/326/248 394/325/248 381/361/248 371/362/248
f 402/276/250 427/266/250 400/265/250
f 426/286/251 402/276/251 405/318/251
f 377/281/253 416/300/253 407/320/253
f 424/357/254 428/360/254 414/359/254 423/358/254
f 376/352/255 439/338/255 395/264/255 385/263/255
f 106/5/25 70/37/25 197/47/25
f 106/5/25 197/47/25 41/6/25
f 41/41/256 68/40/256 9/34/256
f 41/41/257 9/34/257 56/366/257
f 47/56/28 197/47/28 70/37/258 114/62/258
f 78/76/48 162/85/48 57/167/260 92/166/260
f 397/337/266 388/329/266 392/280/266 401/19/266
f 346/206/267 347/379/267 230/42/267 288/45/267
f 414/380/269 412/381/269 419/382/269 431/383/269
f 36/243/270 102/59/270 1/253/270 117/258/270
f 377/281/282 370/330/282 425/304/282 429/303/282
f 226/224/293 228/227/293 229/226/293 234/225/293
f 229/254/295 326/146/295 335/145/295 234/255/295
f 26/122/297 189/108/297 184/111/297 23/123/297
f 389/165/301 372/164/301 404/319/301 405/318/301
f 366/108/305 361/111/305 237/110/305 231/109/305
f 353/84/313 318/200/313 251/201/313 337/242/313
f 12/256/314 1/253/314 71/89/314 42/88/314
f 374/336/316 434/204/316 425/304/316 370/330/316
f 69/171/317 98/174/317 32/173/317 39/172/317
f 347/424/328 346/425/328 287/426/328 348/427/328
f 393/275/344 381/283/344 398/163/344 403/162/344
f 213/96/351 270/215/351 35/181/351 155/180/351
f 288/45/385 198/44/385 71/89/385 170/58/385
f 393/275/386 396/245/386 371/248/386 381/283/386
f 374/336/391 439/338/391 432/205/391 434/204/391
f 331/141/395 235/54/395 296/472/395 352/149/395
f 300/474/399 321/13/399 301/12/399 202/209/399
f 265/76/403 353/84/403 337/242/403 278/166/403
f 195/64/36 193/67/36 171/60/415 165/210/415
f 411/485/417 418/486/417 414/380/417 431/383/417
f 414/339/421 418/271/421 417/272/421 423/340/421
f 400/265/429 383/268/429 384/247/429 390/246/429
f 383/268/439 421/267/439 422/317/439 376/352/439
f 432/205/449 439/338/449 376/352/449 422/317/449
f 384/247/507 385/263/507 391/277/507 371/248/507
f 40/116/517 31/115/517 107/112/517 153/117/517
f 137/35/526 87/30/526 66/8/526 43/10/526
f 210/87/533 198/44/533 302/43/533 290/518/533
f 399/279/572 379/16/6 401/19/8 392/280/572
f 338/175/580 339/25/580 340/212/580 304/211/580
f 222/119/588 324/108/588 323/111/588 221/120/588
s 0
f 527/538/608 526/539/608 525/540/608 523/541/608
f 529/542/609 528/543/609 522/544/609 521/545/609
f 531/546/610 530/547/610 520/548/610 519/549/610
f 533/550/611 532/551/611 518/552/611 524/553/611
f 526/539/612 533/550/612 524/553/612 525/540/612
f 528/543/613 527/554/613 523/555/613 522/544/613
f 530/547/614 529/542/614 521/545/614 520/548/614
f 524/556/615 518/557/615 519/558/615 520/559/615 521/560/615 522/561/615 523/562/615 525/563/615
f 550/564/615 552/565/615 526/566/615 527/567/615
f 542/568/615 544/569/615 530/570/615 531/571/615
f 548/572/615 550/564/615 527/567/615 528/573/615
f 552/565/615 554/574/615 533/575/615 526/566/615
f 540/576/615 542/568/615 531/571/615 532/577/615
f 546/578/615 548/572/615 528/573/615 529/579/615
f 554/574/615 540/576/615 532/577/615 533/575/615
f 532/551/616 531/546/616 519/549/616 518/552/616
f 544/580/615 546/578/615 529/579/615 530/581/615
f 567/582/609 540/583/609 554/584/609 566/585/609
f 553/586/617 551/587/617 535/588/617 534/589/617
f 568/590/613 542/591/613 540/583/613 567/582/613
f 549/592/618 547/593/618 537/594/618 536/595/618
f 569/596/608 544/564/608 542/591/608 568/590/608
f 543/597/619 541/598/619 557/599/619 539/600/619
f 570/601/612 546/602/612 544/564/612 569/596/612
f 551/603/620 549/592/620 536/595/620 535/604/620
f 571/605/611 548/606/611 546/602/611 570/601/611
f 541/598/621 555/607/621 556/608/621 557/599/621
f 572/609/616 550/610/616 548/606/616 571/605/616
f 545/611/622 543/597/622 539/600/622 538/612/622
f 573/613/610 552/614/610 550/569/610 572/615/610
f 547/593/623 545/611/623 538/612/623 537/594/623
f 566/585/614 554/584/614 552/614/614 573/613/614
f 555/607/624 553/586/624 534/589/624 556/608/624
f 565/616/614 566/617/614 573/618/614 564/619/614
f 573/618/610 572/620/610 563/621/610 564/619/610
f 572/622/616 571/623/616 562/624/616 563/625/616
f 571/623/611 570/626/611 561/627/611 562/624/611
f 570/626/612 569/628/612 560/629/612 561/627/612
f 569/628/608 568/630/608 559/631/608 560/629/608
f 568/630/613 567/632/613 558/633/613 559/631/613
f 567/632/609 566/617/609 565/616/609 558/633/609
f 541/583/609 558/582/609 565/585/609 555/584/609
f 543/591/613 559/590/613 558/582/613 541/583/613
f 545/564/608 560/596/608 559/590/608 543/591/608
f 547/602/612 561/601/612 560/596/612 545/564/612
f 549/606/611 562/605/611 561/601/611 547/602/611
f 551/610/616 563/609/616 562/605/616 549/606/616
f 553/614/610 564/613/610 563/615/610 551/569/610
f 555/584/614 565/585/614 564/613/614 553/614/614
f 576/634/625 577/635/625 581/636/625 580/637/625
f 580/637/626 581/636/626 579/638/626 578/639/626
f 578/639/627 579/638/627 575/640/627 574/641/627
f 576/642/628 580/637/628 578/639/628 574/643/628
f 581/636/629 577/644/629 575/645/629 579/638/629
f 582/646/630 583/647/630 584/648/630
f 584/648/631 583/647/631 585/649/631
f 585/649/632 583/647/632 582/650/632
s 1
usemtl UMSMarinesII.Skins.JMarine8
f 207/26/14 205/27/14 259/28/14 236/29/14
f 372/49/26 382/50/26 406/51/26 408/52/26
f 510/70/39 513/71/39 514/72/39 511/73/39
f 65/97/56 187/98/56 97/99/56 18/100/56
f 325/101/57 312/102/57 358/103/57 279/104/57
f 332/124/69 303/125/69 251/126/69 319/127/69
f 58/128/70 57/104/70 162/129/70 55/130/70
f 204/131/71 338/132/71 333/133/71 201/134/71
f 243/153/82 322/154/82 334/155/82 313/156/82
f 457/158/84 456/159/84 483/160/84 472/161/84
f 294/168/89 336/97/89 298/169/89 267/170/89
f 333/176/92 356/177/92 260/178/92 341/179/92
f 272/184/95 327/185/95 259/186/95 205/187/95
f 314/192/103 354/193/103 274/194/103 243/153/103
f 266/197/119 267/170/119 289/198/119 218/199/119
f 410/207/125 411/208/125 420/50/125 406/51/125
f 328/219/152 290/220/152 302/221/152 199/222/152
f 93/104/159 142/101/159 92/229/159 57/230/159
f 53/128/161 93/104/161 57/231/161 58/232/161
f 330/197/162 218/199/162 289/198/162 307/233/162
f 211/234/163 104/235/164 42/236/164 210/237/163
f 347/249/174 348/250/174 345/251/174 230/252/174
f 203/269/185 215/270/185 327/185/185 272/184/185
f 181/289/200 64/290/200 365/291/200 200/292/200
f 175/193/202 132/294/202 186/295/202 130/192/202
f 107/305/25 31/306/25 33/307/25 81/308/25
f 160/179/211 172/309/211 134/310/211 144/311/211
f 296/312/212 295/313/212 238/314/212 297/315/212
f 219/321/218 232/322/218 306/323/218 269/221/218
f 247/332/234 250/333/234 205/334/234 207/335/234
f 43/341/239 111/312/239 110/313/239 44/342/239
f 100/343/240 89/344/240 49/345/240 90/346/240
f 169/347/241 94/348/241 128/102/242 129/156/242
f 123/233/244 185/350/244 65/97/244 163/351/244
f 462/353/246 461/354/246 466/355/246 464/356/246
f 246/130/249 245/363/249 322/364/249 343/129/249
f 325/101/252 278/229/252 337/365/252 280/348/252
f 19/367/259 108/368/259 185/350/259 29/369/259
f 307/233/261 344/351/261 254/97/261 362/350/261
f 365/291/262 133/370/262 199/371/262 345/372/262
f 257/373/25 284/374/25 268/308/25 292/305/25
f 341/179/263 327/311/263 317/310/263 351/309/263
f 240/345/264 276/346/264 241/375/264 242/376/264
f 245/377/265 271/378/265 334/155/265 322/154/265
f 235/341/268 236/342/268 295/313/268 296/312/268
f 217/367/271 224/369/271 362/350/271 293/368/271
f 199/371/272 133/370/272 104/384/272 211/385/272
f 354/193/273 314/192/273 363/295/273 316/294/273
f 279/104/274 248/230/274 278/229/274 325/101/274
f 364/98/275 283/99/275 232/386/275 336/97/275
f 318/387/276 253/388/276 310/389/276 252/390/276
f 18/100/277 122/323/277 82/221/277
f 18/100/278 82/221/278 30/391/278
f 357/392/279 260/178/280 356/177/280 209/393/279
f 336/97/281 232/386/281 219/394/281 298/169/281
f 349/347/283 313/156/284 312/102/284 280/348/283
f 295/313/285 236/342/285 259/395/285 357/392/285
f 358/103/286 312/102/286 313/156/286 334/155/286
f 319/127/287 282/396/287 281/397/287 332/124/287
f 217/367/288 293/368/288 294/168/288 309/369/288
f 29/369/289 185/350/289 123/233/289 148/197/289
f 249/128/290 246/130/290 343/129/290 248/104/290
f 46/314/291 11/393/292 178/392/292 110/313/291
f 254/97/294 216/100/294 283/99/294 364/98/294
f 244/128/296 249/232/296 248/231/296 279/104/296
f 286/343/298 276/346/298 240/345/298 275/344/298
f 275/345/299 240/344/299 242/398/299 239/376/299
f 208/399/300 202/400/300 47/401/300 168/402/300
f 160/179/302 151/176/302 161/403/302
f 311/404/303 244/128/303 279/104/303 358/103/303
f 344/351/304 225/391/304 216/100/304 254/97/304
f 267/170/306 298/169/307 359/405/307 289/198/306
f 109/168/308 154/97/308 187/98/308 108/368/308
f 293/368/309 362/350/309 254/97/309 364/98/309
f 332/124/310 310/389/310 253/388/310 303/125/310
f 224/369/311 330/197/311 307/233/311 362/350/311
f 313/156/312 349/347/312 314/192/312 243/153/312
f 125/369/315 79/197/315 80/170/315 109/168/315
f 452/406/318 448/407/318 453/408/318 449/409/318
f 209/410/319 356/411/320 304/412/320 220/413/319
f 11/414/321 22/415/321 120/416/322 177/417/322
f 186/418/25 132/419/25 147/420/25
f 130/192/323 76/421/323 174/422/323
f 94/348/324 142/101/324 128/102/324
f 174/422/325 169/347/325 130/192/325
f 367/423/326 337/365/326 251/126/326 303/125/326
f 139/154/327 88/194/327 52/153/327
f 130/192/329 186/295/329 77/428/329
f 72/429/330 178/392/330 73/178/330
f 367/423/331 368/430/331 349/347/283 280/348/283
f 294/168/332 293/368/332 364/98/332 336/97/332
f 309/369/333 294/168/333 267/170/333 266/197/333
f 126/431/334 95/397/334 150/124/334
f 53/432/335 58/433/335 55/434/335
f 191/430/336 169/347/336 174/422/336
f 156/365/337 94/348/337 190/423/337
f 246/434/338 244/432/338 311/435/338 245/436/338
f 77/428/339 76/421/339 130/192/339
f 147/420/340 77/437/340 186/418/340
f 54/436/341 84/438/341 127/435/341
f 122/323/342 18/100/342 97/99/342
f 97/99/343 38/322/343 122/323/343
f 368/430/345 367/423/345 303/125/345 253/388/345
f 69/373/25 107/305/25 81/308/25 98/374/25
f 510/70/346 511/73/346 500/439/346 498/355/346
f 289/198/347 359/405/347 344/351/347 307/233/347
f 479/73/348 475/440/348 474/441/348 482/72/348
f 238/314/349 295/313/349 357/392/279 209/393/279
f 95/397/350 126/389/350 62/390/350 96/396/350
f 359/405/352 269/221/352 225/391/352 344/351/352
f 292/305/25 268/308/25 228/307/25 226/306/25
f 106/442/353 22/443/353 8/444/353
f 12/445/354 13/446/354 146/447/354
f 12/445/25 146/447/25 105/60/25
f 5/400/355 91/448/355 10/399/355
f 91/448/356 5/400/356 115/449/356
f 2/222/357 164/251/357 36/252/357
f 281/397/358 282/396/358 252/390/358 310/389/358
f 36/252/359 117/221/359 2/222/359
f 43/450/360 44/451/360 9/26/360
f 3/452/361 167/250/361 164/251/361
f 3/452/362 101/453/362 167/250/362
f 146/219/363 13/454/363 2/222/363
f 8/455/364 46/456/364 112/457/364
f 60/458/365 159/459/365 59/333/365
f 17/460/366 144/311/366 134/310/366
f 4/461/367 74/462/367 161/403/367
f 74/462/368 134/310/368 75/463/368
f 172/309/369 161/403/369 75/463/369
f 75/463/370 134/310/370 172/309/370
f 161/403/371 172/309/371 160/179/371
f 75/463/372 161/403/372 74/462/372
f 134/310/373 74/462/373 17/460/373
f 161/403/374 151/176/374 4/461/374
f 242/376/375 241/375/375 285/464/375 239/398/375
f 259/465/376 327/311/376 341/179/376
f 259/465/377 341/179/377 260/178/377
f 3/452/378 164/251/378 188/466/378
f 133/370/379 64/290/379 188/466/379
f 52/153/380 129/156/380 152/155/380 139/154/380
f 79/197/381 20/199/381 103/198/381 80/170/381
f 22/443/382 59/333/382 159/459/382 120/467/382
f 19/367/383 125/369/383 109/168/383 108/368/383
f 443/468/384 444/469/384 441/470/384 446/471/384
f 286/343/387 275/344/387 239/398/387 285/464/387
f 55/130/388 162/129/388 139/364/388 54/363/388
f 56/332/389 9/335/389 60/334/389 59/333/389
f 142/101/390 94/348/390 156/365/390 92/229/390
f 80/170/392 103/198/392 182/405/393 113/169/393
f 13/446/394 12/445/394 42/236/164 104/235/164
f 127/404/396 180/103/396 93/104/396 53/128/396
f 461/354/397 460/473/397 468/439/397 466/355/397
f 190/423/398 119/125/398 61/126/398 156/365/398
f 111/312/400 112/315/400 46/314/400 110/313/400
f 216/100/401 225/391/401 269/221/401
f 216/100/402 269/221/402 306/323/402
f 142/101/404 93/104/404 180/103/404 128/102/404
f 21/321/405 82/221/405 122/323/405 38/322/405
f 209/410/406 220/413/406 206/475/406 238/476/406
f 148/197/407 123/233/407 103/198/407 20/199/407
f 85/184/408 60/187/408 72/186/408 144/185/408
f 9/26/409 44/29/409 72/28/409 60/27/409
f 375/477/410 378/478/410 407/479/410 409/480/410
f 109/168/411 80/170/411 113/169/411 154/97/411
f 190/423/412 94/348/241 169/347/241 191/430/412
f 154/97/413 113/169/413 21/394/413 38/386/413
f 89/345/414 48/376/414 51/398/414 49/344/414
f 7/481/416 4/482/416 151/483/416 157/484/416
f 151/176/418 160/179/418 73/178/418 177/177/418
f 51/376/419 48/398/419 99/464/419 50/375/419
f 90/346/420 50/375/420 99/464/420 100/343/420
f 100/343/422 99/464/422 48/398/422 89/344/422
f 341/179/423 342/403/423 333/176/423
f 181/289/424 3/452/424 188/466/424 64/290/424
f 338/132/425 304/412/320 356/411/320 333/133/425
f 84/378/426 152/155/426 180/103/426 127/404/426
f 2/222/427 13/454/427 104/384/427 133/370/427
f 135/387/428 62/390/428 126/389/428 63/388/428
f 499/487/430 513/71/430 512/488/430 497/489/430
f 508/490/431 509/491/431 496/356/431 495/492/431
f 178/392/292 11/393/292 177/177/432 73/178/432
f 6/269/433 85/184/433 144/185/433 17/270/433
f 136/127/434 150/124/434 95/397/434 96/396/434
f 150/124/435 136/127/435 61/126/435 119/125/435
f 146/219/436 2/222/436 117/221/436 105/220/436
f 55/434/437 54/436/437 127/435/437 53/432/437
f 130/192/438 52/153/438 88/194/438 175/193/438
f 180/103/440 152/155/440 129/156/440 128/102/440
f 363/418/25 329/420/25 316/419/25
f 314/192/441 353/422/441 263/421/441
f 280/348/442 312/102/442 325/101/442
f 353/422/443 314/192/443 349/347/443
f 129/156/444 52/153/444 130/192/444 169/347/444
f 322/154/445 243/153/445 274/194/445
f 11/414/446 46/456/446 8/455/446 22/415/446
f 314/192/447 264/428/447 363/295/447
f 259/429/448 260/178/448 357/392/448
f 318/387/450 353/422/450 368/430/450 253/388/450
f 515/160/451 504/161/451 501/493/451 499/487/451
f 310/431/452 332/124/452 281/397/452
f 244/432/453 246/434/453 249/433/453
f 368/430/454 353/422/454 349/347/454
f 337/365/455 367/423/455 280/348/455
f 22/443/456 106/442/456 56/332/456 59/333/456
f 264/428/457 314/192/457 263/421/457
f 329/420/458 363/418/458 264/437/458
f 245/436/459 311/435/459 271/438/459
f 306/323/460 283/99/460 216/100/460
f 283/99/461 306/323/461 232/322/461
f 110/313/462 178/392/462 72/395/462 44/342/462
f 490/494/463 506/441/463 514/72/463 501/493/463
f 135/387/464 63/388/464 191/430/464 174/422/464
f 157/484/465 151/483/465 177/417/322 120/416/322
f 182/405/393 82/221/466 21/394/466 113/169/393
f 103/198/467 123/233/467 163/351/467 182/405/467
f 150/124/468 119/125/468 63/388/468 126/389/468
f 166/249/469 36/252/469 164/251/469 167/250/469
f 54/377/470 139/154/470 152/155/470 84/378/470
f 359/405/307 298/169/307 219/394/471 269/221/471
f 220/443/472 250/333/472 247/332/472 291/442/472
f 291/442/473 206/444/473 220/443/473
f 210/237/474 328/495/474 211/234/474
f 210/237/25 290/496/25 328/495/25
f 202/400/475 208/399/475 277/448/475
f 277/448/476 300/449/476 202/400/476
f 199/222/477 230/252/477 345/251/477
f 188/466/478 164/251/478 2/222/478 133/370/478
f 230/252/479 199/222/479 302/221/479
f 235/450/480 207/26/480 236/451/480
f 200/292/481 345/372/481 348/497/481
f 200/452/482 348/250/482 287/453/482
f 328/498/483 199/371/483 211/385/483
f 206/475/484 297/499/484 238/476/484
f 205/458/485 250/333/485 340/459/485
f 215/460/486 317/310/486 327/311/486
f 201/461/487 342/403/487 261/462/487
f 261/462/488 262/463/488 317/310/488
f 351/309/489 262/463/489 342/403/489
f 262/463/490 351/309/490 317/310/490
f 342/403/491 341/179/491 351/309/491
f 262/463/492 261/462/492 342/403/492
f 317/310/493 215/460/493 261/462/493
f 342/403/494 201/461/494 333/176/494
f 10/399/495 168/402/495 47/401/495 5/400/495
f 200/292/496 365/291/496 345/372/496
f 133/370/497 365/291/497 64/290/497
f 163/351/498 65/97/498 18/100/498 30/391/498
f 369/208/499 375/477/499 409/480/499
f 369/208/500 409/480/500 410/207/500
f 413/49/501 408/52/501 406/51/501 420/50/501
f 415/477/502 409/480/502 407/479/502 416/478/502
f 408/52/503 404/500/503 372/49/503
f 410/207/504 406/51/504 382/50/504 369/208/504
f 411/208/505 410/207/505 409/480/505
f 411/208/499 409/480/499 415/477/499
f 471/501/506 454/502/506 465/489/506 484/503/506
f 408/52/508 413/49/508 404/500/508
f 160/179/509 144/311/509 72/465/509
f 160/179/510 72/465/510 73/178/510
f 442/409/511 440/504/511 446/408/511
f 443/468/512 440/505/512 442/506/512
f 442/506/513 445/507/513 443/468/513
f 443/468/514 446/471/514 440/505/514
f 445/507/515 444/469/515 443/468/515
f 441/407/516 444/508/516 445/406/516
f 450/509/518 453/510/518 448/511/518 451/512/518
f 449/409/519 453/408/519 447/504/519
f 450/509/520 449/513/520 447/514/520
f 449/513/521 450/509/521 452/515/521
f 450/509/522 447/514/522 453/510/522
f 452/515/523 450/509/523 451/512/523
f 448/407/524 452/406/524 451/508/524
f 445/406/525 442/409/525 446/408/525 441/407/525
f 187/98/527 154/97/527 38/386/527 97/99/527
f 479/73/528 468/439/528 459/516/528 475/440/528
f 509/491/529 510/70/529 498/355/529 496/356/529
f 511/73/530 507/440/530 491/516/530 500/439/530
f 191/430/531 63/388/531 119/125/531 190/423/531
f 497/489/532 512/488/532 502/517/532 486/502/532
f 469/493/534 467/487/534 481/71/534 482/72/534
f 501/493/535 514/72/535 513/71/535 499/487/535
f 480/488/536 477/491/536 478/70/536 481/71/536
f 511/73/537 514/72/537 506/441/537 507/440/537
f 465/489/538 454/502/538 470/517/538 480/488/538
f 503/501/539 516/503/539 497/489/539 486/502/539
f 516/503/540 515/160/540 499/487/540 497/489/540
f 484/503/541 465/489/541 467/487/541 483/160/541
f 504/161/542 505/519/542 490/494/542 501/493/542
f 455/520/543 471/501/543 484/503/543
f 489/158/544 504/161/544 515/160/544 488/159/544
f 456/159/545 455/520/545 484/503/545 483/160/545
f 457/158/546 472/161/546 473/519/546
f 464/356/547 463/492/547 462/353/547
f 494/353/548 496/356/548 498/355/548 493/354/548
f 459/516/549 468/439/549 460/473/549
f 493/354/550 498/355/550 500/439/550 492/473/550
f 470/521/551 454/522/551 485/523/551
f 454/522/552 471/524/552 485/523/552
f 471/524/553 455/525/553 485/523/553
f 455/525/554 456/526/554 485/523/554
f 456/526/555 457/527/555 485/523/555
f 457/527/556 473/528/556 485/523/556
f 473/528/557 458/529/557 485/523/557
f 458/529/558 474/530/558 485/523/558
f 474/530/559 475/531/559 485/523/559
f 475/531/560 459/532/560 485/523/560
f 459/532/561 460/533/561 485/523/561
f 460/533/562 461/534/562 485/523/562
f 461/534/563 462/535/563 485/523/563
f 462/535/564 463/536/564 485/523/564
f 463/536/565 476/537/565 485/523/565
f 476/537/566 470/521/566 485/523/566
f 477/491/567 464/356/567 466/355/567 478/70/567
f 476/490/568 463/492/568 464/356/568 477/491/568
f 478/70/569 466/355/569 468/439/569 479/73/569
f 220/443/570 304/467/570 340/459/570 250/333/570
f 470/517/571 476/490/571 477/491/571 480/488/571
f 478/70/573 479/73/573 482/72/573 481/71/573
f 467/487/574 465/489/574 480/488/574 481/71/574
f 108/368/575 187/98/575 65/97/575 185/350/575
f 512/488/576 513/71/576 510/70/576 509/491/576
f 502/517/577 512/488/577 509/491/577 508/490/577
f 458/494/578 469/493/578 482/72/578 474/441/578
f 472/161/579 469/493/579 458/494/579 473/519/579
f 483/160/581 467/487/581 469/493/581 472/161/581
f 271/378/582 311/404/582 358/103/582 334/155/582
f 487/520/583 516/503/583 503/501/583
f 182/405/584 163/351/584 30/391/584 82/221/584
f 488/159/585 515/160/585 516/503/585 487/520/585
f 489/158/586 505/519/586 504/161/586
f 496/356/587 494/353/587 495/492/587
f 491/516/589 492/473/589 500/439/589
f 49/345/590 51/376/590 50/375/590 90/346/590
f 502/521/591 517/523/591 486/522/591
f 486/522/592 517/523/592 503/524/592
f 503/524/593 517/523/593 487/525/593
f 487/525/594 517/523/594 488/526/594
f 488/526/595 517/523/595 489/527/595
f 489/527/596 517/523/596 505/528/596
f 505/528/597 517/523/597 490/529/597
f 490/529/598 517/523/598 506/530/598
f 506/530/599 517/523/599 507/531/599
f 507/531/600 517/523/600 491/532/600
f 491/532/601 517/523/601 492/533/601
f 492/533/602 517/523/602 493/534/602
f 493/534/603 517/523/603 494/535/603
f 494/535/604 517/523/604 495/536/604
f 495/536/605 517/523/605 508/537/605
f 508/537/606 517/523/606 502/521/606
f 276/346/607 286/343/607 285/464/607 241/375/607
